<?xml version="1.0" encoding="UTF-8"?><svg id="Capa_1" xmlns="http://www.w3.org/2000/svg" viewBox="0 0 1080 1080"><path d="M732,673.29c-2.04,3.01-4.97,3.6-8.42,3.6-122.38-.05-244.77-.05-367.15,0-3.46,0-6.39-.58-8.43-3.6v-3.74c1.75-3.65,4.92-3.97,8.5-3.97,113.71,.05,227.42,.04,341.13,.04,9,0,18,.1,26.99-.05,3.37-.06,5.82,.98,7.38,3.98v3.74Z"/><path d="M732,624.63c-2.22,2.7-5.1,3.4-8.53,3.3-6.96-.2-13.94-.02-20.9-.07-4.48-.03-6.84-2.03-6.81-5.6,.03-3.52,2.43-5.55,6.9-5.6,7.47-.07,14.93,.05,22.4-.05,3.02-.04,5.13,1.36,6.94,3.52v4.49Z"/><path d="M348,608.91c4.83-5.91,10.27-11.09,17.24-14.46,3.93-1.9,7.15-1.28,8.73,1.75,1.58,3.02,.1,5.91-3.45,8.24-3.82,2.5-7.64,5.16-10.88,8.34-4.92,4.84-6.84,5.18-11.65,.62v-4.49Z"/><path d="M633.82,604.55c15.77,.95,29.57,7.61,44.09,11.63,3.23,.89,4.95,3.63,4.4,6.42-.62,3.09-3.32,5.11-6.75,4.32-4.73-1.09-9.43-2.44-13.96-4.16-13.94-5.3-28.3-7.88-43.22-7.88-9.67,0-18.59-3.17-27.31-7.15-8.5-3.88-16.91-8.23-25.8-10.89-18.18-5.45-36.05-3.89-53,5.19-5.17,2.77-10.32,5.57-15.52,8.28-13.5,7.05-27.43,7.81-41.67,2.58-13.13-4.82-26.26-9.66-40.15-11.79-6.65-1.02-13.4-1.46-20.12-1.86-4.98-.29-7.7-2.07-7.64-5.71,.06-3.59,2.8-5.68,7.81-5.54,5.85,.17,11.69,.61,17.39,.93,4.23-7.54,8.47-15.09,12.82-22.84-1.67-.56-3.43-1.09-5.14-1.73-13.36-4.95-22.07-17.72-21.74-31.85,.14-6.08,2.66-9.43,8.52-11.22,9.32-2.85,18.24-1.64,27.1,3.13v-12.65c-11.84-4.71-16.94-13.58-14.7-26.41-2.98-1.01-5.88-1.76-8.59-2.94-15.28-6.71-22.91-24.24-17.48-39.96,2.06-5.96,5.15-8.09,11.46-8.1,6.58,0,12.47,2.17,17.72,5.4,3.66-2.13,7.13-4.06,10.48-6.17,.68-.43,1.31-1.5,1.34-2.3,.14-3.72,.06-7.46,.06-11.29-7.8-2.66-12.86-7.75-14.95-15.59-2.12-7.99,1.16-14.58,5.76-20.66-3.44-1.87-6.8-3.28-9.69-5.35-10.02-7.16-14.63-17.08-14.05-29.33,.21-4.56,2.63-7.66,6.98-9.22,8.25-2.95,16.41-2.66,24.49,.67,.8,.33,1.6,.69,2.4,1.02,.09,.04,.23-.04,.6-.1,.57-.89,1.2-1.93,1.89-2.94,4.83-7.07,13.61-10.21,21.75-7.79,8.05,2.4,13.72,9.59,13.9,18.01,.16,7.47,.03,14.95,.03,22.37,4.44-.38,8.59-.98,12.76-1.03,5.22-.07,8.63,2.3,10,7.35,1.25,4.64,1.72,9.49,2.64,14.82,1.16,.32,3.06,.78,4.91,1.38,6.21,2.03,8.75,5.61,8.37,12.02-.71,11.96-6.16,21.14-16.58,27.19-1.86,1.08-2.9,2.28-3.56,4.37-2.14,6.7-6.73,11.24-13.34,13.7-1.63,.61-3.29,1.12-5.02,1.71v48.28c1.2,.34,2.45,.69,3.89,1.09,.44-1.56,.79-2.86,1.18-4.15,4.39-14.68,18.62-24.61,33.9-23.64,4.72,.3,7.95,2.62,9.56,7.11,2.77,7.7,2.58,15.39-.21,23.26,.96,.67,1.84,1.3,2.74,1.9,5.34,3.55,9.28,8.26,11.89,14.12,1.96,4.4,1.16,8.21-2.09,11.67-10.66,11.31-28.39,13.28-41.48,4.58-1.13-.75-2.23-1.55-3.56-2.48-3.42,4.95-8.21,7.63-13.73,9.35-.93,.29-2.12,1.79-2.12,2.74-.12,19.09-.08,38.18-.06,57.27,0,.35,.18,.7,.53,1.93,4.29-1.05,8.73-1.67,12.8-3.25,4.75-1.83,9.35-4.2,13.71-6.83,22.87-13.81,46.96-16.53,72.35-8.41,.22,.07,.49,0,.79,0,3.99-6.92,7.99-13.87,12.12-21.03-1.74-.57-3.5-1.09-5.22-1.72-13.61-5-22.34-18.12-21.72-32.6,.23-5.26,2.67-8.62,7.73-10.28,8.3-2.71,16.48-2.3,24.47,1.25,1.1,.49,2.2,.97,3.56,1.56v-12.6c-5.26-1.87-9.79-4.97-12.66-10.12-2.87-5.14-3.48-10.57-1.99-16.37-1.1-.28-1.92-.5-2.74-.69-18.87-4.5-29.75-23.88-23.58-42.01,2.05-6.01,5.11-8.16,11.4-8.18,6.58-.01,12.49,2.12,17.8,5.41,3.59-2.1,7.05-4.04,10.41-6.14,.7-.44,1.2-1.42,1.45-2.25,.25-.8-.03-1.74,.07-2.6,.66-5.33-.32-8.9-6.02-11.94-10-5.34-12.33-18.65-6.3-28.48,.96-1.57,2.02-3.08,3.19-4.86-1.28-.55-2.27-.98-3.26-1.4-13.32-5.62-21.27-18.2-20.59-32.61,.23-4.95,2.54-8.09,7.31-9.75,8.13-2.83,16.19-2.52,24.14,.78,.9,.37,1.79,.78,2.84,1.23,.67-1.05,1.24-1.99,1.84-2.9,4.82-7.3,13.67-10.59,21.95-8.14,8.18,2.42,13.84,9.74,13.98,18.35,.12,7.35,.02,14.7,.02,22.05,4.36-.38,8.5-.99,12.65-1.04,5.28-.07,8.4,2.28,10.09,7.27,.79,2.35,1.4,4.8,1.69,7.26,.29,2.44,.06,4.94,.06,7.39,2.42,.71,4.46,1.21,6.43,1.9,5.54,1.94,7.88,5.17,7.7,10.96-.37,12.15-5.72,21.51-16.2,27.77-2.05,1.22-3.26,2.52-4.03,4.89-2.03,6.25-6.34,10.64-12.5,13.08-1.85,.73-3.76,1.32-5.73,2.01v48.42c1.29,.3,2.49,.57,3.88,.89,.42-1.45,.79-2.74,1.18-4.03,4.39-14.73,18.53-24.63,33.84-23.69,4.72,.29,8,2.59,9.59,7.07,2.26,6.39,2.84,12.95,.84,19.47-.9,2.95-.6,4.56,2.25,6.26,5.27,3.15,8.85,7.97,11.34,13.59,1.93,4.37,1.2,8.21-2.08,11.67-10.74,11.34-28.33,13.3-41.47,4.58-1.13-.75-2.23-1.55-3.56-2.48-3.39,4.95-8.18,7.64-13.72,9.32-.89,.27-2.12,1.55-2.12,2.36-.12,19.32-.09,38.64-.09,58.52Zm-18.28-156.19c1.28-.65,2.99-1.71,4.83-2.39,1.9-.7,2.23-1.92,2.23-3.73-.04-30.66-.02-61.33-.05-91.99,0-5.42-3.49-9.12-8.31-9.11-4.83,.01-8.27,3.7-8.27,9.15-.04,27.05-.03,54.1,.02,81.14,0,1.15,.35,2.44,.95,3.41,2.7,4.42,5.55,8.74,8.61,13.52Zm-160.42-.02c1.13-.56,2.73-1.55,4.46-2.17,2.16-.77,2.59-2.17,2.59-4.29-.06-30.41-.03-60.82-.05-91.23,0-5.78-3.32-9.5-8.27-9.52-4.93-.01-8.33,3.78-8.34,9.49-.02,26.92-.02,53.84,.03,80.76,0,1.15,.34,2.44,.94,3.41,2.71,4.41,5.56,8.73,8.66,13.54Zm167.45,9.09c-3.83,2.24-7.09,3.49-8.23,8.28-1.08,4.55-4.24,8.59-6.34,12.92-.87,1.8-1.95,3.76-1.97,5.66-.16,15.08,.1,30.16-.2,45.24-.1,5.19,1.33,9.62,3.72,14.02,3.38-1.87,6.54-3.91,9.94-5.41,2.44-1.07,3.15-2.46,3.14-5.05-.1-23.93-.06-47.86-.06-71.79,0-1.09,0-2.17,0-3.88Zm-173.4,86.09c3.27-1.81,6.43-3.81,9.81-5.34,2.35-1.07,3.23-2.34,3.22-5-.12-24.04-.06-48.08-.08-72.11,0-1.04-.15-2.07-.24-3.26-4.33,1.69-7.01,3.88-8.13,8.58-1,4.2-3.54,8.18-6.04,11.81-1.51,2.2-2.27,4.16-2.26,6.76,.08,14.82,.24,29.65-.07,44.46-.11,5.2,1.27,9.66,3.79,14.1Zm173.28,5.98c-.84,.3-1.22,.36-1.52,.55-4.69,2.92-9.32,5.48-12.42,10.73-1.85,3.14-2.58,5.83-2.58,9.13,.01,9.21,0,18.42,0,27.62v4.56c5.73,.68,11.04,1.31,16.51,1.96v-54.55Zm-160.65,53.88v-53.63c-7.65,2.32-11.76,8.26-16.07,13.94-.26,.34-.22,.96-.22,1.45-.01,10.71,0,21.42,0,32.32,5.45,1.98,10.78,3.91,16.3,5.92Zm188.3-88.76c7.93,.2,14.22-2.78,18.78-9.03,4.45-6.1,5.51-12.83,3.07-19.98-15.38-.88-26.44,13.64-21.85,29.01Zm-138.69-28.96c-14.02-1.42-26.22,13.21-22.5,26.85,.54,1.98,1.61,2.14,3.24,2.12,13.93-.22,24.35-15.88,19.26-28.97Zm87.92-42.05c-16.34,4.63-19.36,25.78-9.97,34.53,14.63-4.59,20.01-23.23,9.97-34.53Zm-160.29-.07c-16.58,4.81-19.47,26.09-10.05,34.58,14.44-4.48,19.65-22.03,10.05-34.58Zm160.28,110.27c.26-7.89-2.94-14.19-9.37-18.73-6.04-4.27-12.68-5.27-19.69-2.88-1.16,15.53,15.29,27.36,29.06,21.61Zm-182.64-22.8c-.56,.03-1.69,.02-2.79,.16-4.4,.58-4.76,1.1-3.96,5.52,2.26,12.44,13.29,20.26,25.69,18.36,2.62-.4,3.49-1.42,3.27-4.14-.88-10.74-10.56-19.74-22.21-19.89Zm156.72-180.85c-2.23,11.54,10.18,24.14,21.29,22.81,0-5.74,.06-11.55-.07-17.34-.02-.79-.82-1.78-1.54-2.29-6.05-4.28-12.63-5.39-19.68-3.18Zm-160.69,.15c-.77,12.38,9.36,23.15,21.54,22.76,0-4.04,0-8.11,0-12.18,0-7.22-1.18-8.87-8.2-10.89-4.39-1.27-8.8-1.39-13.35,.31Zm60.69,58.31c8-4.02,12.32-9.9,13.15-17.94,.31-3.02-.86-6.19-1.36-9.29-3.26,.58-6.57,.96-9.74,1.85-.89,.25-1.94,1.94-1.97,2.99-.17,7.2-.09,14.4-.09,22.4Zm160.44-.03c7.84-3.87,12.16-9.63,13.09-17.51,.37-3.13-.81-6.44-1.29-9.67-3.26,.56-6.56,.94-9.74,1.81-.89,.25-1.95,1.93-1.98,2.97-.17,7.2-.09,14.41-.09,22.39Zm23.51,116.78c8.5,7.89,21.58,7.34,28.96-.9-2.15-4.46-5.4-7.83-10.02-10-5.19,5.64-11.35,9.17-18.95,10.9Zm-160.27-.02c7.77,7.88,21.29,7.38,28.64-.7-2-4.86-5.03-7.91-10.05-10.02-4.88,5.46-11.07,8.92-18.59,10.72Zm79.63-76.66c-3.4-1.09-6.29-2.11-9.23-2.93-2.18-.61-3.43,.22-3.86,2.64-1.46,8.31,.89,15.25,7.22,20.81,.55,.49,1.34,.71,2.44,1.28-.96-7.7-.17-14.66,3.42-21.79Zm-160.45-.11c-3.62-1.06-6.74-2.1-9.93-2.82-.78-.17-2.28,.49-2.64,1.19-3.6,7.03,1.31,19.81,9.15,23.37-1.03-7.41-.1-14.42,3.42-21.74Zm235.74-26.59c5.33-3.67,8.33-8.74,8.93-15.2,.08-.91-.78-2.61-1.44-2.73-1.62-.31-4.11-.61-4.96,.3-2.93,3.13-5.31,6.77-7.94,10.28,1.6,2.17,3.34,4.54,5.42,7.36Zm-160.39,0c5.37-3.86,8.31-8.85,8.92-15.11,.09-.93-.7-2.66-1.35-2.8-1.63-.36-4.17-.72-5,.17-2.99,3.21-5.43,6.94-8.02,10.39,1.73,2.32,3.49,4.7,5.45,7.35Zm102.81,174.85v-21.79l-.83-.29c-3.12,5.56-6.25,11.13-9.53,16.98,3.75,1.85,6.92,3.41,10.36,5.11Zm-120.78-83.87v19.01c6.64-1.48,8.88-5.88,6.17-11.55-.58-1.22-1.03-2.53-1.34-3.84-.57-2.4-2.01-3.56-4.83-3.62Zm160.38,18.99c6.57-1.33,8.94-5.87,6.24-11.47-.59-1.22-1.03-2.54-1.35-3.86-.63-2.57-2.2-3.73-4.89-3.68v19.01Zm-210.15,59.31c3.82,.96,6.93,1.74,10.04,2.52v-18.76c-.26-.07-.52-.15-.77-.22-3.02,5.37-6.05,10.75-9.27,16.46Zm170.58-184.34v-15.5c-5.4,4.29-5.26,12.54,0,15.5Zm-160.54,.13v-15.8c-4.96,4.68-5.36,11.95,0,15.8Zm160.68,82.06c-.26-.3-.52-.59-.78-.89-1.14,1.01-3.2,1.98-3.25,3.05-.15,2.91,.77,5.74,4.03,7.47v-9.63Zm-160.34-.15c-.3-.22-.6-.43-.89-.65-1.13,.92-3.15,1.76-3.23,2.76-.24,2.99,.79,5.77,3.95,7.82,.08-.85,.16-1.29,.17-1.73,.01-2.73,0-5.47,0-8.2Zm199.86-68.75c-.32,5.31,.4,5.78,7.14,5.03-2.67-1.88-4.63-3.26-7.14-5.03Zm-153.35,4.94c-2.63-1.82-4.58-3.18-6.81-4.72-.86,4.94,.18,5.67,6.81,4.72Zm-2.19,13.08l.03-1.15c-1.6-.14-3.19-.28-5.17-.45,.07,1.47,.12,2.57,.2,4.24,2-1.07,3.47-1.85,4.94-2.64Zm155.52-1.57v4.36c2.02-1.25,3.51-2.18,5-3.11-.11-.29-.22-.58-.33-.87-1.51-.12-3.02-.24-4.67-.38Z"/><path d="M443.23,651.47c-2.99,0-5.97,.09-8.95-.02-3.99-.15-6.31-2.47-6.16-5.94,.15-3.32,2.37-5.21,6.37-5.25,5.97-.05,11.94-.06,17.91,0,3.83,.04,6.17,2.17,6.22,5.44,.05,3.22-2.32,5.57-6.05,5.72-3.1,.13-6.22,.03-9.33,.03Z"/><path d="M647.27,640.27c1.99,0,3.99-.09,5.98,.02,3.2,.18,5.23,2.11,5.45,5.04,.22,2.93-1.52,5.66-4.52,5.88-4.58,.35-9.22,.35-13.8,0-3.02-.23-4.74-2.91-4.53-5.87,.2-2.91,2.25-4.88,5.43-5.05,1.99-.11,3.99-.02,5.98-.02Z"/><path d="M567.79,628.99c2.12,0,4.25-.14,6.36,.03,3.03,.24,4.78,2.04,4.98,5.06,.2,3.01-1.27,5.41-4.23,5.68-4.69,.42-9.46,.41-14.16,.07-3.05-.23-4.78-2.93-4.45-5.89,.34-3.01,2.09-4.74,5.13-4.93,2.11-.13,4.24-.03,6.36-.03,0,0,0,0,0,.01Z"/><path d="M407.33,633.25c-1.49-.08-3-.02-4.46-.26-2.98-.5-4.6-2.39-4.62-5.39-.02-3.01,1.61-5.09,4.59-5.38,3.19-.31,6.47-.32,9.65,.04,2.98,.34,4.55,2.52,4.46,5.49-.09,2.97-1.79,4.84-4.78,5.26-1.59,.23-3.22,.17-4.83,.24Z"/><path d="M533.25,629.12c-1.24,0-2.49,.09-3.72-.01-3.04-.25-5.14-2.36-5.3-5.21-.16-2.87,1.69-5.48,4.64-5.79,2.94-.32,5.97-.31,8.91-.02,2.97,.29,4.87,2.85,4.75,5.71-.11,2.9-2.15,5.04-5.19,5.31-1.35,.12-2.73,.02-4.09,.02Z"/></svg>