<?xml version="1.0" encoding="UTF-8"?><svg id="Capa_1" xmlns="http://www.w3.org/2000/svg" viewBox="0 0 1080 1080"><path d="M704,537c-1.01,3.97-1.76,8.03-3.07,11.91-6.82,20.29-25.64,34.39-46.1,34.47-1.91,0-4.48-.71-5.57-2.05-1.07-1.32-1.45-4.3-.67-5.75,.85-1.59,3.33-3.08,5.21-3.22,21.43-1.6,36.15-15.39,38.61-36.73,.18-1.55-.61-3.7-1.71-4.83-13.99-14.36-31.56-19.48-51.01-18.91-26.53,.78-50.57,10.1-73.82,22.12-4.33,2.24-6.35,5.1-7.17,9.81-1.49,8.6-3.63,17.08-5.48,25.62-.18,.82-.25,1.66-.41,2.82h4.29c22.7,0,45.4,0,68.11,0,1.12,0,2.25-.07,3.37,.05,3.25,.34,4.95,2.32,5.01,5.47,.06,3.16-1.61,5.26-4.82,5.63-2.09,.24-4.24,.1-6.35,.1-22.58,0-45.15,0-67.73,0h-4.92c-.94,9.79-2.28,19.42-2.73,29.08-1.15,24.99,2.31,49.6,6.85,74.08,2.16,11.65,5.05,23.22,6.38,34.97,2.94,25.8-12.41,45.58-38.05,50.07-11.57,2.03-22.85,1.08-33.7-3.66-4.19-1.83-5.53-4.46-4.05-7.82,1.5-3.43,4.2-4.21,8.45-2.55,15.71,6.13,30.94,5.48,44.7-4.76,11.54-8.59,13.48-20.89,11.06-34.35-3.47-19.28-7.22-38.52-10.21-57.88-4.95-32.08-3.79-63.99,4.15-95.57,1.55-6.16,2.76-12.4,4.33-19.54-19.88,14.67-40.48,26.24-64.04,32.6,.67,4.58,1.33,8.97,1.96,13.36,2.96,20.43,2.89,40.93,.07,61.29-3.13,22.61-7.35,45.07-11.01,67.62-1.18,7.27-.74,14.42,2.25,21.3,1.76,4.04,.58,7.37-2.85,8.72-3.19,1.26-5.62-.08-7.45-4.25-4.94-11.27-4.23-22.81-1.87-34.55,5.24-26.08,10.08-52.23,11.36-78.89,.82-17.28-.14-34.41-3.62-51.72-2.88,.38-5.55,.85-8.24,1.05-7.08,.55-14.16,1.34-21.25,1.39-23.2,.18-46.4,.11-69.6,.06-32.13-.08-56.2-28.06-51.44-59.98,3.62-24.29,16.42-41.17,40.45-48.24,4.82-1.42,10.08-1.68,15.15-1.79,38.92-.89,68.39-17.5,86.99-52.23,10.36-19.33,26.37-29.7,48.24-29.85,22.03-.15,38.37,10.02,48.78,29.52,14.93,27.98,37.73,45.36,68.97,51.03,7.31,1.33,14.89,1.12,22.33,1.83,26.45,2.51,47.13,22.07,51.23,48.32,.11,.72,.44,1.4,.67,2.1v12.75Zm-14.45-22.35c-4.48-14.98-20.55-27.83-36.56-29.41-7.93-.78-16.01-.56-23.83-1.91-35.57-6.11-61.54-25.65-78.48-57.46-8.21-15.42-21.18-23.31-38.53-23.21-17.18,.1-29.93,8.06-38.1,23.32-20.86,38.97-53.75,58.02-97.53,58.65-18.89,.27-34.41,10.42-41.16,28.09-12.34,32.29,9.96,61.16,39.97,59.78,22.16-1.02,44.41,.16,66.6-.35,10.78-.25,21.69-1.32,32.25-3.44,23.26-4.67,43.57-16,62.7-29.73,20.12-14.43,42.01-25.43,65.83-32.27,29.7-8.52,58.95-10.22,86.83,7.93Z"/><path d="M487.98,440.19c5.93-.1,8.65,4.66,5.92,8.73-4.02,6-8.21,11.94-12.88,17.43-11.21,13.17-24.73,23.5-40.16,31.28-4.1,2.07-7.83,.45-8.7-3.63-.75-3.52,1.31-5.18,4.11-6.62,14.59-7.5,27.31-17.42,37.77-30.1,3.56-4.32,6.57-9.1,10.02-13.52,1.28-1.64,3.11-2.84,3.93-3.57Z"/><path d="M397.06,511.31c-3.62-.22-5.66-1.81-6.12-5.06-.49-3.47,1.05-5.63,4.7-6.38,5.61-1.15,11.23-2.26,16.86-3.3,3.5-.65,6,.98,6.81,4.24,.73,2.95-.75,5.77-4.01,6.57-6.04,1.48-12.16,2.64-18.25,3.93Z"/></svg>