<?xml version="1.0" encoding="UTF-8"?><svg id="Capa_1" xmlns="http://www.w3.org/2000/svg" viewBox="0 0 1080 1080"><path d="M796,345c-1.82,9.62-3.26,19.34-5.53,28.86-12.06,50.63-35.44,95.6-68.37,135.73-1.48,1.8-2.98,3.59-4.45,5.4-.2,.25-.31,.58-.59,1.13,3.26,16.66,3.25,33.5-1.02,50.26-4.83,18.98-14.03,35.52-27.61,49.61-12.51,12.97-30.7,13.4-43.66,.86-9.58-9.27-18.89-18.83-28.32-28.24-1.28-1.28-2.63-2.5-4.07-3.87-24.94,8.4-50.25,14.89-76.22,18.15-25.75,3.23-51.63,5.39-77.88,8.07,.52,.91,1.35,2.4,2.22,3.86,24.88,41.55,18.3,96.99-15.68,131.64-1.71,1.75-3.88,3.05-5.83,4.56h-5c-3.01-2.56-6.43-4.77-8.96-7.74-26.15-30.64-33.8-65.48-23.25-104.34,.52-1.91,.92-3.85,1.37-5.78,.1-.11,.24-.2,.28-.33,.02-.05-.19-.26-.25-.25-.13,.04-.22,.18-.33,.28-8.94,1.79-17.81,4.37-26.85,5.23-33.03,3.15-61.72-7.04-86-29.59-6.75-6.27-6.64-11.4-.05-17.77,34.92-33.68,89.58-40,131.31-15.2,1.39,.83,2.84,1.56,4.98,2.73,1.47-53.06,8.07-104.7,25.15-155-10.01-9.92-19.96-19.73-29.88-29.59-15.74-15.65-15.71-33.39,.76-48.16,27.17-24.36,59.03-33.04,94.96-27.01,.82,.14,1.64,.26,2.46,.36,.16,.02,.32-.05-.24-1.15,17.87-12.14,35.2-25.2,53.74-36.23,38.95-23.17,80.91-38.05,126.44-41.69,1.14-.09,2.25-.52,3.37-.79,7.33,0,14.67,0,22,0,4.42,.69,8.84,1.39,13.26,2.06,31.95,4.84,48.11,19.4,55.33,49.88,.8,3.35,1.61,6.7,2.41,10.06v44Zm-40.27,71.69c13.19-32.57,22.23-65.67,21.04-100.76-.31-9.2-2.54-18.42-4.68-27.45-3.12-13.14-11.72-21.6-24.82-24.67-9.35-2.19-18.91-4.22-28.46-4.65-23.69-1.07-46.74,3.45-69.31,10.36-10.28,3.14-20.35,6.99-30.45,10.49-.8,5.77-1.71,10.69-2.13,15.64-1.43,16.88,1.23,33.16,7.23,48.98,2.36,6.22,.09,11.49-5.39,13.61-5.37,2.07-10.57-.54-13-6.69-5.24-13.26-8.36-27.01-8.79-41.29-.19-6.26-.03-12.53-.03-19.29-1.43,.64-2.51,1.01-3.46,1.58-10.13,6.08-20.46,11.85-30.31,18.36-42.77,28.29-74.54,65.22-91.57,114.41-18.14,52.41-24.94,106.43-25.55,161.51-.01,.93,.33,1.87,.52,2.87,1.06,.08,1.88,.21,2.69,.21,47.15-.45,93.72-5.38,139.16-18.54,33.39-9.67,65.1-22.95,91.5-46.23,23.05-20.32,41.43-44.61,57.01-71.03,2.83-4.8,5.41-9.76,8.33-15.06-2.98,0-5.13-.1-7.26,.02-17.88,.94-35.28-1.57-51.87-8.25-8.3-3.34-16.27-7.57-24.12-11.89-6.13-3.37-7.63-9.2-4.46-14.29,3.16-5.08,8.71-6,14.88-2.44,.86,.5,1.69,1.06,2.56,1.56,25.12,14.49,51.8,19.26,80.73,12.94Zm-334.93,182.88c-31.58-27.01-83.06-24.48-110.18,.26,31.74,26.51,81.64,24.59,110.18-.26Zm15.63,15.45c-28.34,33.43-23.32,85.55,.3,110.3,25.2-29.87,25.17-81.02-.3-110.3Zm22.87-212.1c10.45-24.46,23.74-46.47,41.93-66.03-1.56-.33-2.19-.59-2.81-.57-3.99,.16-8,.18-11.95,.64-20.54,2.36-38.27,10.76-53.07,25.18-4.52,4.41-5.03,9.96-.88,14.25,8.53,8.84,17.44,17.31,26.78,26.52Zm240.76,132.71l-1.47-.49c-19.09,17.95-41.28,31.03-65.84,41.74,8.76,8.75,16.91,16.99,25.18,25.12,5.8,5.71,11.19,5.59,16.82-.37,12.31-13.03,20.3-28.33,23.29-46.03,1.11-6.59,1.37-13.31,2.02-19.98Z"/><path d="M635.81,393.11c-5.52-.04-9.8-4.35-9.76-9.83,.05-5.4,4.51-9.76,9.95-9.71,5.41,.05,9.88,4.57,9.81,9.9-.07,5.44-4.47,9.67-10.01,9.64Z"/><path d="M714.81,331.13c-5.6,.1-9.86-3.97-9.96-9.53-.1-5.54,4.06-9.93,9.53-10.04,5.47-.11,9.9,4.14,10.02,9.61,.12,5.49-4.08,9.85-9.59,9.96Z"/></svg>