<?xml version="1.0" encoding="UTF-8"?><svg id="Capa_1" xmlns="http://www.w3.org/2000/svg" viewBox="0 0 1080 1080"><path d="M504.64,871c-6.03-4.57-7.41-9.94-4.65-17.32,19.13-51.25,31.29-104.32,40.37-158.14,2.87-17-4.68-34.96-19.05-47.84-12.49,9.6-23.99,20.27-37.14,28.21-38.54,23.29-78.02,24.78-118.05,2.73-31.42-17.3-57.68-40.68-80.42-67.96-14.06-16.87-26.7-34.94-39.56-52.76-6.83-9.46-4.88-15.25,5.62-19.95,38.46-17.21,78.28-29.84,120.23-34.97,24.53-3,48.99-2.68,73.04,3.65,34.49,9.08,56.57,32.64,71.86,63.37,8.11,16.29,13.71,33.49,12.67,52.19-.1,1.81,.68,4.1,1.86,5.48,4.86,5.72,10.04,11.19,16.05,17.79,1.29-13.32,3-25.66,3.59-38.06,1.29-27.25,2.16-54.51,2.83-81.78,.1-3.87-1.19-8.12-2.97-11.62-9.42-18.48-21.64-35.02-36.11-50.45-12.28,7.65-25.35,12.4-39.69,14.27-24.77,3.23-45.17-5.12-62.23-22.35-26.49-26.75-41.64-59.93-52.44-95.36-2.02-6.63,1.55-12.36,8.27-13.38,38.51-5.87,76.59-6.13,113.8,8.02,37.89,14.42,51.21,56.08,46,86.36-.42,2.45-.33,5.85,1.06,7.6,6.95,8.76,14.4,17.12,22.55,26.64-2.06-41.38-7.44-81.27-14.64-119.47-11.87-4.77-23.4-8.09-33.63-13.75-30.73-16.97-40.94-44.75-38.5-78.26,2.3-31.5,11.89-60.99,25.66-89.23,4.12-8.44,9.95-10.56,17.12-5.66,29.26,19.99,54.68,43.69,72.76,74.71,23.28,39.95,6.71,79.46-19.86,101.87-1.69,1.43-3.34,4.56-2.98,6.53,9.09,49.69,14.53,99.76,16.21,150.24,.03,.89,.26,1.78,.54,3.63,7.06-8.54,13.69-16.44,20.12-24.5,.69-.87,.45-2.63,.34-3.96-3.61-46.09,21.38-79.69,66.47-87.73,34.75-6.19,68.96-1.31,102.59,8.24,6.52,1.85,9.86,7.43,7.27,13.32-16.91,38.47-38.23,73.71-75.08,96.66-21.29,13.25-43.68,11.87-66.01,3.06-7.79-3.07-14.96-7.72-23.08-12.01-10.76,11.35-19.36,24.69-25.83,39.46-4.82,11-7.72,22.31-8.09,34.51-1.6,53.49-8.37,106.41-18.62,158.91-.3,1.55-.47,3.13-.94,6.24,10.08-7.53,19.28-14.1,28.01-21.24,1.5-1.23,1.32-4.94,1.33-7.51,.27-41.36,14.17-76.43,48.62-101.01,17.31-12.35,37.96-16.94,58.8-19.45,46.95-5.66,92.75,1.13,137.95,13.62,9.11,2.52,12.03,8.11,8.25,16.56-19.36,43.22-43.54,83.25-78.41,115.95-15.49,14.52-32.4,27.57-53.38,32.68-40.98,9.99-76.84-1.47-108.36-28.47-1.04-.89-1.95-1.94-2.97-2.85-.32-.28-.82-.35-2.6-1.05-14.16,11.5-28.96,23.35-43.47,35.54-1.83,1.54-2.36,4.8-3.15,7.36-8.31,27.13-16.36,54.33-25,81.35-1.34,4.2-5.3,7.57-8.04,11.33h-6.88Zm-237.16-317.49c6.04,8.27,11.37,16,17.15,23.39,23.12,29.6,48.59,56.73,80.45,77.3,33.15,21.4,67.25,26.74,103.17,7.3,13.74-7.44,26.41-16.2,36.96-30.66-15.67-7.86-30.02-16.75-45.55-22.43-21.22-7.76-43.33-13.04-65.05-19.46-6.71-1.98-9.79-6.95-8.28-12.88,1.38-5.41,6.59-8.38,13.01-7.04,36.49,7.62,71.89,18.29,104.15,37.64,1.08,.65,2.36,.98,4.52,1.84-.61-3.27-.91-5.71-1.52-8.07-4.08-15.75-11.42-29.93-21.29-42.77-12.89-16.76-29.32-27.97-50.34-32.28-24.64-5.05-49.17-4.01-73.79,.12-32.01,5.37-62.7,14.98-93.59,27.99Zm342.53,169.76c1.36,1.49,2.13,2.6,3.15,3.42,21.88,17.38,46.64,26.01,74.68,23.67,20.93-1.75,37.35-13.29,52.4-26.59,30.52-26.99,52.1-60.64,70.25-96.7,1.09-2.17,2-4.43,3.28-7.29-43.46-10.24-86.32-16.21-130.06-8.8-28.87,4.89-53.01,17.15-66.94,44.68-7.28,14.38-12.31,29.3-13.06,45.55,1.05,0,1.58,.16,1.91-.03,2.59-1.47,5.16-2.97,7.69-4.53,34.02-20.94,69.55-38.79,107.32-51.99,7.34-2.57,14.74-5.02,22.21-7.17,6.42-1.85,11.79,.69,13.65,5.91,2.05,5.77-.63,10.92-7.12,13.55-1.69,.69-3.44,1.27-5.19,1.79-37.09,11-71.69,27.64-105.2,46.68-9.69,5.51-19,11.7-28.96,17.87Zm6.21-259.93c2.61-1.76,4.74-3.36,7.03-4.7,5.68-3.33,11.35-2.4,14.65,2.28,3.27,4.65,2.24,10.38-2.86,14.51-3.51,2.84-7.26,5.39-10.97,8.12,13.78,12.98,41.81,17.5,57.51,9.08,31.86-17.08,49.47-46.29,65.95-77.48-3.04-.71-5.18-1.26-7.34-1.71-26.87-5.57-53.79-8.47-80.97-2.03-24.91,5.89-42.42,26.61-42.99,51.93Zm-232.37-98.03c10.53,29.59,23.53,56.29,45.71,77.66,22.62,21.8,52.77,16,69.94,5.1-8.43-6.43-16.21-13.14-24.74-18.69-10.92-7.09-22.45-13.22-33.7-19.81-5.14-3.01-7.66-7.24-5.36-13.22,2.1-5.44,7.53-7.6,13.67-5.5,2.15,.74,4.33,1.61,6.24,2.83,15.77,10.12,31.49,20.33,47.2,30.55,1.79,1.16,3.4,2.59,6.36,4.86-2-23.93-8.67-43.03-30.58-53.23-30.02-13.98-61.64-13.44-94.74-10.56Zm148.39-33.6c-.32-1.91-.41-3.01-.69-4.07-6.47-24.08-12.99-48.15-19.45-72.24-2.02-7.52,.26-12.88,6.06-14.69,6.31-1.97,11.36,1.2,13.75,8.87,2.04,6.55,3.96,13.15,5.76,19.77,4.95,18.24,9.81,36.51,14.73,54.88,15.24-12.17,22.75-37.59,16.84-55.3-6.01-18.04-16.68-33.13-29.78-46.44-10.5-10.66-21.99-20.35-33.43-30.83-14.05,30.82-20.69,60.53-20.25,84.48,.57,31.83,21.88,49.01,46.44,55.56Z"/><path d="M347.92,582.33c-3.36-.53-6.8-.77-10.06-1.65-5.42-1.47-7.72-5.52-7.11-10.87,.58-5.11,3.71-8.37,8.98-8.59,4.3-.18,8.67-.03,12.92,.61,6.32,.95,10.08,5.68,9.57,11.25-.51,5.63-4.91,9.11-11.53,9.09-.91,0-1.82-.09-2.73-.13-.02,.1-.03,.19-.05,.29Z"/><path d="M690.46,445.49c-.29,8.11-7.61,9.16-14.07,11.18-6.01,1.87-12.12,3.72-16.52-2.96-3.3-5.01-1.53-11.94,4.15-14.44,4.73-2.08,9.85-3.62,14.95-4.44,6.4-1.02,11.31,3.51,11.48,10.65Z"/></svg>