<?xml version="1.0" encoding="UTF-8"?><svg id="Capa_1" xmlns="http://www.w3.org/2000/svg" viewBox="0 0 1080 1080"><path d="M316,586.49c5.4-18.68,20.38-27.73,36.48-34.92,11.66-5.21,24.06-8.76,36.21-12.84,4.09-1.37,7.29,.34,8.1,3.64,.82,3.35-1.08,6.06-5.31,7.21-15.92,4.31-31.56,9.4-45.6,18.27-4.79,3.03-9.38,6.71-13.22,10.86-8.29,8.98-6.99,19.47,3,27.41,10.72-7.22,22.52-12.43,34.8-16.63,22.02-7.54,44.72-12.01,67.75-14.99,36.87-4.77,73.86-5.66,110.9-2.84,36.02,2.74,71.61,8.06,105.43,21.55,8.74,3.48,17,8.16,25.71,12.39,9.07-7.02,10.41-17.19,2.96-26.39-5.45-6.72-12.62-11.26-20.2-15.16-18.67-9.62-38.66-15.53-59.21-18.95-20.5-3.41-41.25-5.37-61.89-7.95-.85-.11-1.72-.01-2.51-.01-5.99,11.74-15.02,19.15-28.24,20.27-14.6,1.24-25.66-4.9-33-17.46-1.36-2.34-2.69-3.09-5.2-2.8-17.69,2.09-35.4,4.08-53.09,6.18-4.14,.49-6.85-.94-7.42-4.29-.6-3.48,1.21-6.1,5.35-6.62,17.8-2.24,35.62-4.29,53.44-6.41,.74-.09,1.47-.16,2.11-.23,2.6-20.88,14.42-37.45,24.9-54.59,1.61-2.63,2.08-4.3,.17-7.15-6.85-10.22-5.51-23.73,3.09-32.73,7.24-7.57,14.73-14.91,22.18-22.28,7.98-7.89,12.89-17.32,14.62-28.41,2.04-13.13,7.86-24.32,17.21-33.7,6.78-6.81,13.56-13.61,20.37-20.39,3.33-3.31,6.59-3.65,9.11-1.03,2.36,2.45,2.01,5.76-1.08,8.89-6.05,6.12-12.01,12.35-18.28,18.24-9.17,8.61-14.72,18.96-16.65,31.4-2,12.88-8.1,23.69-17.29,32.84-6.99,6.95-13.96,13.91-20.9,20.91-6.91,6.97-7.24,16.55-.86,23.02,6.33,6.41,16.1,6.19,23.04-.64,6.41-6.3,12.87-12.54,19.03-19.08,10.4-11.04,22.98-17.66,37.96-19.96,9.51-1.46,17.75-5.77,24.64-12.45,7.43-7.21,14.62-14.67,22.08-21.85,1.4-1.34,3.62-2.57,5.42-2.52,1.59,.04,3.83,1.63,4.49,3.11,.67,1.49,.46,4.42-.6,5.47-10.47,10.31-20.84,20.77-31.99,30.32-6.99,5.99-16.12,8.2-25.2,9.67-10.31,1.68-19.04,6.42-26.39,13.77-6.36,6.35-12.83,12.58-19.02,19.09-5.87,6.16-12.44,10.71-21.77,10.96,8.4,15.84,18.98,30.36,20.86,49.14,2.67,.24,5.72,.53,8.76,.78,34.4,2.76,68.32,8,100.8,20.28,12.17,4.6,23.8,10.27,33.76,18.88,9.07,7.85,14.06,17.33,13.59,29.77-.52,13.45-.59,26.96,.02,40.41,.6,13.4-5.07,23.28-15,31.36-12.29,10-26.61,16.05-41.44,21-25.18,8.41-51.14,13.1-77.5,15.68-11.41,1.12-22.88,1.66-34.32,2.49-1.11,.08-2.2,.36-3.29,.54h-40.42c-1.1-.19-2.19-.43-3.29-.55-20.81-2.08-41.72-3.47-62.42-6.38-24.09-3.4-47.65-9.41-69.76-19.93-15.72-7.48-30.38-16.34-35.94-34.52v-59.13Zm11.23,27.81c0,7.56,.44,14.4-.1,21.15-.84,10.37,3.82,17.67,11.58,23.66,14.08,10.87,30.44,16.83,47.26,21.64,35.71,10.23,72.35,13.97,109.34,14.89,25.59,.63,51.11-.54,76.53-3.62,25.16-3.05,49.97-7.78,73.83-16.59,12.08-4.46,23.74-9.8,33.48-18.53,4.15-3.72,8.19-7.96,8.53-13.64,.57-9.37,.16-18.81,.16-28.76-11.32,10.08-24.23,16.39-37.83,21.38-34.13,12.52-69.7,17.73-105.74,20.02-40.05,2.55-80.01,1.25-119.71-5.11-20.94-3.36-41.56-8.05-61.4-15.72-12.8-4.95-25-11.01-35.9-20.79Zm17.8-1.46c.03,.51,.06,1.02,.09,1.53,6.83,3.21,13.51,6.82,20.53,9.55,34.53,13.46,70.75,18.55,107.44,20.86,33.68,2.12,67.32,1.3,100.84-2.91,23.91-3.01,47.53-7.46,70.2-15.84,8.9-3.29,17.42-7.61,27.02-11.86-2.22-1.44-3.17-2.25-4.27-2.73-8.76-3.87-17.32-8.33-26.36-11.4-34.88-11.85-71.09-16.23-107.68-18.06-31.47-1.57-62.85-.29-94.08,3.82-24.64,3.24-48.94,8.05-72.17,17.16-7.35,2.88-14.38,6.56-21.56,9.88Zm162.95-136.13c-1.12,1.73-2.01,3.05-2.85,4.41-7.26,11.78-14.57,23.56-18.98,36.77-2.99,8.96,.7,18.78,8.6,24.37,7.93,5.61,18.74,5.53,26.62-.19,7.73-5.61,11.3-15.3,8.35-24.1-4.94-14.77-13.31-27.77-21.75-41.26Z"/><path d="M700,337.13c-1.19,2.05-1.77,3.76-2.91,4.92-10.77,10.9-21.6,21.73-32.48,32.51-2.69,2.67-5.98,2.65-8.29,.28-2.17-2.23-2.18-5.51,.3-8.02,10.87-10.97,21.73-21.96,32.83-32.68,1.36-1.31,4.36-1.81,6.29-1.37,1.6,.37,2.74,2.7,4.26,4.36Z"/><path d="M465.6,475.13c.09,3.04-2.58,5.76-5.63,5.75-3.39-.01-8.54-5.24-8.52-8.65,.02-3.15,2.62-5.64,5.76-5.52,3.27,.13,8.31,5.17,8.4,8.41Z"/><path d="M465.6,493.15c.09,3.35-5.06,8.65-8.49,8.73-2.96,.07-5.5-2.29-5.66-5.27-.18-3.34,4.78-8.71,8.23-8.91,3.07-.18,5.84,2.37,5.92,5.44Z"/><path d="M555.17,480.89c-2.91-.05-5.45-2.58-5.53-5.5-.08-3.34,5.09-8.62,8.51-8.68,3-.05,5.49,2.28,5.64,5.27,.17,3.55-5.08,8.98-8.63,8.91Z"/><path d="M563.8,496.25c.02,3.14-2.58,5.71-5.68,5.63-3.23-.09-8.32-5.12-8.47-8.37-.14-3.05,2.47-5.79,5.55-5.82,3.38-.04,8.59,5.14,8.6,8.56Z"/><path d="M550.02,634.67c-6.53-1.78-12.92,.09-19.61,2.52-9.94,3.6-20.36,3.18-30.52,.17-2.95-.87-5.88-2.15-8.47-3.8-10.05-6.41-10.07-16.89-.26-23.67,1.04-.72,2.36-1.76,2.57-2.85,1.2-6.12,5.41-9.42,10.67-11.54,10.21-4.13,20.62-3.99,31.13-1.02,1.95,.55,4.12,.7,6.15,.51,10.67-1,21.19-.72,31.21,3.58,2.71,1.16,5.38,2.69,7.66,4.56,8.06,6.58,7.98,16.07-.04,22.67-5.56,4.58-12.2,6.65-19.16,7.75-3.56,.56-7.18,.72-11.33,1.12Zm1.27-10.8c5.37-1.18,11.3-2.05,16.9-3.9,2.65-.87,4.69-3.6,7-5.48-2.28-1.9-4.28-4.45-6.89-5.58-8.45-3.69-17.4-3.56-26.42-2.59-2.83,.31-5.92,.05-8.64-.77-8.39-2.53-16.64-2.78-24.85,.48-2.05,.81-3.39,1.69-2.7,4.68,.38,1.67-1.46,4.09-2.76,5.81-.72,.95-2.55,.97-3.64,1.74-1.45,1.03-2.67,2.38-3.99,3.59,1.29,1.09,2.42,2.56,3.9,3.22,9.14,4.06,19.04,5.14,27.97,1.24,7.9-3.45,15.3-4.9,24.12-2.43Z"/><path d="M438.42,631.5c-7.32,.06-14.4-1.05-20.87-4.68-4.78-2.69-8.44-6.41-8.36-12.31,.08-5.72,3.55-9.59,8.35-11.92,13.69-6.65,27.62-6.63,41.39-.28,5.08,2.34,8.88,6.31,8.88,12.35,0,6.22-4.07,9.92-9.16,12.58-6.32,3.31-13.17,4.34-20.23,4.26Zm-17.73-16.79c4.36,7.46,31.51,7.41,35.72-.11-6.88-7.56-29.76-7.49-35.72,.11Z"/></svg>