<?xml version="1.0" encoding="UTF-8"?><svg id="Capa_1" xmlns="http://www.w3.org/2000/svg" viewBox="0 0 1080 1080"><defs><style>.cls-1{stroke:#000;stroke-miterlimit:10;}.cls-2{fill:none;}</style></defs><path class="cls-2" d="M756.82,289.11c-90.47-98.86-235.04-128.52-350.58-67.13-118.41,62.92-180.63,164.43-181.94,298.6-.98,100.44,48.79,172.46,139.98,214.72,55.22,25.59,114.28,32.6,181.84,32.67h-.01c27.36,.48,61.76-2.53,95.71-9.92,51.47-11.2,98.7-31.38,136.79-68.76,60.08-58.96,77.73-132.2,67.16-213.2-9.34-71.59-40.22-133.73-88.95-186.98Zm-344.35,195.26c-8.6,1.12-14.72-3.55-16.8-12.95-.62-2.78-.66-5.71-1.51-8.4-2.67-8.47-11.39-14.45-20.41-14.29-9.47,.17-17.98,6.8-20.19,15.85-.52,2.14-.48,4.42-.93,6.58-2,9.46-8.01,14.2-16.65,13.24-8.17-.92-13.35-7.72-12.92-16.99,1.23-26.82,24.4-48.71,51.38-48.53,26.61,.18,49.2,21.67,50.73,48.26,.53,9.17-4.63,16.18-12.7,17.23Zm205.39,130.38c-6.51,36.44-49.3,55.1-81.77,27.74h-.01c-14.27,11.55-29.72,16.34-47.39,11.22-18.6-5.39-32.8-22.29-34.73-41.28-1.12-11.02,3.91-18.83,12.88-19.99,8.53-1.1,14.43,4.48,16.5,15.6s9.29,18,18.93,18.04c9.59,.04,16.74-6.66,18.6-18,1.44-8.78,5.37-15.05,14.94-15.63,8.14-.5,13.51,5.37,15.45,16.07,1.94,10.71,8.7,17.29,18.07,17.57,9.54,.29,17.24-6.68,19.37-17.53,2.32-11.84,8.26-17.44,17.01-16.04,9.47,1.53,14.28,10.27,12.15,22.23Zm18.64-110.81c-11.86,46.18-50.69,75.72-100.35,75.73h0c-60.1,.03-105.56-44.58-102.95-102.89,1.17-26,5.96-52.01,22.48-73.56,25.46-33.21,59.43-47.6,100.51-38.94,41.39,8.73,67.02,35.61,77.02,76.68,5.04,20.67,8.8,41.51,3.28,62.98Zm100.31-19.61c-9.15,1.43-16.13-3.83-17.42-14.39-1.25-10.19-5.59-17.4-15.69-20.24-12.31-3.46-23.91,3.84-26.39,16.37-.37,1.86-.49,3.77-.92,5.62-2.15,9.29-8.41,13.92-17.01,12.66-7.66-1.13-12.73-7.84-12.49-16.53,.74-26.44,24.18-48.9,51.07-48.94h0c26.33-.04,48.25,20.17,50.89,46.91,.99,10.04-3.68,17.24-12.04,18.54Z"/><path class="cls-2" d="M230.28,361.51c20.56-41.59,47.28-78.58,81.78-110.81h0c-29.04-18.47-70.58-9.12-91.31,19.71-20.15,28.02-16.01,70.61,9.53,91.1Z"/><path class="cls-2" d="M535.87,391.78c-32.13,.12-59.4,21.43-67.38,52.83-1.64,6.44-2.88,12.99-4.12,19.53-9,47.51,23,86.07,71.42,86.11,35.5,.03,63.19-20.36,71.61-52.55,4.88-18.64,.35-36.6-4.28-54.35-8.12-31.1-35.47-51.69-67.25-51.57Z"/><path class="cls-2" d="M535.08,869.04c-48.54,.29-101.38,36.19-110.6,74.74l223.51,1.39c-8.81-40.03-62.8-76.43-112.91-76.13Z"/><path class="cls-2" d="M423.88,946.57h224.41c-.09-.47-.19-.94-.3-1.4l-223.51-1.39c-.22,.93-.43,1.86-.6,2.79Z"/><path class="cls-2" d="M960.69,205.01c7.74-10.1,8.18-14.66,1.54-25.7-10.1-16.79-25.47-27.41-43.2-34.4-54.49-21.5-108.13-17.23-160.64,6.96-25.04,11.53-46.46,28.1-65.01,49.22,14.58,9.69,28.5,18.93,42.92,28.51h.01c24.64-16.26,50.88-22.74,79.33-15.69,38.18,9.46,64.54,32.76,74.79,70.99,10.52,39.23-.45,73.38-30.21,101.13-3.95,3.68-5.42,6.41-3.52,12.02,4.96,14.69,9.21,29.65,13.11,44.67,1.31,5.05,3.47,7.11,8.41,6.44,19.11-2.61,38.62-3.63,57.22-8.27,22.4-5.58,41.41-18.54,48.86-41.45,16.4-50.38,18.76-99.08-21.95-141.2-14.6-15.11-14.4-36.6-1.66-53.23Z"/><path class="cls-2" d="M851.31,270.32c-20.96-28.85-62.8-38.18-91.18-19.6,34.08,31.93,61.16,68.96,81.73,110.87,25.62-21.14,29.65-63.47,9.45-91.27Z"/><path class="cls-1" d="M535.08,869.04c31.25-.71,56.03,12.73,66.81,19.54,2.65,1.67,4.62,3.04,5.14,3.4,21.66,15.25,34.11,36.21,41.48,54.53h32c-.51-2-1.29-4.79-2.41-8.06-16.39-47.9-71.84-99.46-142.26-99.44-68.99,.02-130.38,49.52-141.95,99.89-.69,3.02-1.11,5.63-1.38,7.61h32c22.47-45.99,65.05-76.43,110.58-77.46Z"/><path class="cls-1" d="M837.5,946.5c-.21-2.62-.46-5.28-.74-7.99-.34-3.28-.72-6.48-1.14-9.6,0,0-9.31-48.43-32.27-85.81-5.13-8.35-12.85-10.75-20.18-6.81-7.74,4.16-9.92,12.52-5.46,21.34,1.43,2.83,3.15,5.51,4.7,8.28,13.92,24.9,23.16,51.25,25.35,80.53,9.91,.02,19.83,.04,29.74,.06Z"/><path class="cls-1" d="M985.43,239.76c-5.08-5.35-5.45-11.71-.59-17.21,19.01-21.55,12.81-43.16,1.06-61.2-14.64-22.47-36.11-36.25-60.52-45.82-84.82-33.26-188.75-7.09-252.06,63.8-6.02,6.74-10.53,7.85-18.99,4.57-78.53-30.51-157.38-30.5-235.96-.22-8.8,3.38-13.34,2.62-19.8-4.51-42.67-47.16-96.2-72.56-159.61-76.8-4.65-.31-11.17,.85-13.8,3.92-3.1,3.63-4.62,10.37-3.77,15.23,1.3,7.45,8.08,9.56,15.35,10.11,53.1,4.02,98.72,24.39,135.96,62.81,2.08,2.14,3.88,4.55,5.81,6.84-14.86,9.83-28.81,19.04-42.72,28.24-31.96-20.93-65.34-24.51-99.86-8.65-65.31,30-78.14,115.51-24.73,164.39,5.1,4.67,5.67,8.22,3.55,14.48-4.78,14.1-8.76,28.48-12.44,42.91-1.27,5-3.33,7.29-8.34,6.53-20.61-3.13-41.64-4.66-61.7-9.92-21.11-5.54-38.12-19.24-44.88-40.65-15.84-50.16-18.15-98.59,22.36-140.39,14.64-15.11,14.39-36.56,1.64-53.25-7.72-10.1-8.13-14.69-1.48-25.71,9.22-15.27,23.04-25.38,39-32.34,10.71-4.67,22.14-7.64,33.18-11.57,8.34-2.97,12.43-10.37,10.2-17.86-2.31-7.78-9.55-12.35-17.77-10.51-25.11,5.61-48.42,15.26-68.38,31.88-12.4,10.33-22.14,22.72-27.82,38.01-5.78,15.57-3.62,29.87,6.79,42.93,7.55,9.47,7.35,14.06-1.23,22.99-15.78,16.42-26.07,35.81-31.79,57.73-1.51,5.79-2.72,11.66-4.07,17.49l.02-.06v43.85c1.2,6.2,2.53,12.38,3.58,18.61,5.96,35.48,21.54,64.98,55.65,80.07,17.15,7.59,36.05,11.59,54.49,15.78,10.88,2.47,22.4,2.15,33.69,3.09-10.06,124.94,35.03,220.13,147.52,280-9.79,7.91-19.71,16.96-29.42,27.3-51.37,54.72-70.91,118.08-79.05,159.85,9.72,0,19.44,.02,29.17,.03,1.76-9.85,2.78-18.68,4.96-27.22,15.62-61.13,53.85-106.17,102.99-143.19,2.46-1.86,7.37-2.22,10.47-1.21,34.28,11.14,69.42,17.66,105.31,20.5,67.7,5.35,134.49,1.27,199.52-19.82,7.32-2.37,12.65-1.58,18.13,3.43,12.65,11.57,25.56,22.84,38.25,34.36,7.81,7.09,15.49,7.76,21.98,1.59,6.25-5.94,6.35-14.93-.69-22-11.39-11.45-23.29-22.39-35.16-33.71,112.67-59.77,157.29-155.54,147.4-278.88,19.12-2.64,37.88-3.88,55.98-8.02,36.77-8.41,67.83-26.46,79.99-64.41,19.28-60.16,19.92-118.33-27.37-168.19Zm-764.68,30.65c20.73-28.83,62.27-38.18,91.31-19.72h0c-34.5,32.24-61.22,69.23-81.78,110.82-25.54-20.49-29.68-63.08-9.53-91.1Zm557.86,418.88c-38.09,37.38-85.32,57.56-136.79,68.76-33.95,7.39-68.35,10.4-95.71,9.93h.01c-67.56-.08-126.62-7.09-181.84-32.68-91.19-42.26-140.96-114.28-139.98-214.72,1.31-134.17,63.53-235.68,181.94-298.6,115.54-61.39,260.11-31.73,350.58,67.13,48.73,53.25,79.61,115.39,88.95,186.98,10.57,81-7.08,154.24-67.16,213.2Zm-18.48-438.57c28.38-18.58,70.22-9.25,91.18,19.6,20.2,27.8,16.17,70.13-9.45,91.27-20.57-41.91-47.65-78.94-81.73-110.87Zm224.17,148.72c-7.45,22.91-26.46,35.87-48.86,41.45-18.6,4.64-38.11,5.66-57.22,8.27-4.94,.67-7.1-1.39-8.41-6.44-3.9-15.02-8.15-29.98-13.11-44.67-1.9-5.61-.43-8.34,3.52-12.02,29.76-27.75,40.73-61.9,30.21-101.13-10.25-38.23-36.61-61.53-74.79-70.99-28.45-7.05-54.69-.57-79.33,15.68h-.01c-14.42-9.57-28.34-18.81-42.92-28.5,18.55-21.12,39.97-37.69,65.01-49.22,52.51-24.19,106.15-28.46,160.64-6.96,17.73,6.99,33.1,17.61,43.2,34.4,6.64,11.04,6.2,15.6-1.54,25.7-12.74,16.63-12.94,38.12,1.66,53.23,40.71,42.12,38.35,90.82,21.95,141.2Z"/><polygon class="cls-1" points="535.8 550.25 535.79 550.25 535.79 550.25 535.8 550.25"/><path class="cls-1" d="M556.2,364.28c-41.08-8.66-75.05,5.73-100.51,38.94-16.52,21.55-21.31,47.56-22.48,73.56-2.61,58.31,42.85,102.92,102.95,102.9h0c49.66-.02,88.49-29.56,100.35-75.74,5.52-21.47,1.76-42.31-3.28-62.98-10-41.07-35.63-67.95-77.02-76.68Zm51.2,133.42c-8.42,32.19-36.11,52.58-71.61,52.55,0,0,0,0,0,0h0s0,0,0,0c-48.43-.04-80.42-38.6-71.42-86.11,1.24-6.54,2.48-13.09,4.12-19.53,7.98-31.4,35.25-52.71,67.38-52.83,31.78-.12,59.13,20.47,67.25,51.57,4.63,17.75,9.16,35.71,4.28,54.35Z"/><path class="cls-1" d="M605.71,592.52c-8.75-1.4-14.69,4.2-17.01,16.04-2.13,10.85-9.83,17.82-19.37,17.53-9.37-.28-16.13-6.86-18.07-17.57-1.94-10.7-7.31-16.57-15.45-16.07-9.57,.58-13.5,6.85-14.94,15.63-1.86,11.34-9.01,18.04-18.6,18-9.64-.04-16.86-6.92-18.93-18.04s-7.97-16.7-16.5-15.6c-8.97,1.16-14,8.97-12.88,19.99,1.93,18.99,16.13,35.89,34.73,41.28,17.67,5.12,33.12,.33,47.39-11.22h.01c32.47,27.36,75.26,8.7,81.77-27.74,2.13-11.96-2.68-20.7-12.15-22.23Z"/><path class="cls-1" d="M697.96,418.88c-26.89,.04-50.33,22.5-51.07,48.94-.24,8.69,4.83,15.4,12.49,16.53,8.6,1.26,14.86-3.37,17.01-12.66,.43-1.85,.55-3.76,.92-5.62,2.48-12.53,14.08-19.83,26.39-16.37,10.1,2.84,14.44,10.05,15.69,20.24,1.29,10.56,8.27,15.82,17.42,14.39,8.36-1.3,13.03-8.5,12.04-18.54-2.64-26.74-24.56-46.95-50.89-46.91Z"/><path class="cls-1" d="M374.44,418.88c-26.98-.18-50.15,21.71-51.38,48.53-.43,9.27,4.75,16.07,12.92,16.99,8.64,.96,14.65-3.78,16.65-13.24,.45-2.16,.41-4.44,.93-6.58,2.21-9.05,10.72-15.68,20.19-15.85,9.02-.16,17.74,5.82,20.41,14.29,.85,2.69,.89,5.62,1.51,8.4,2.08,9.4,8.2,14.07,16.8,12.95,8.07-1.05,13.23-8.06,12.7-17.23-1.53-26.59-24.12-48.08-50.73-48.26Z"/></svg>