<?xml version="1.0" encoding="UTF-8"?><svg id="Capa_1" xmlns="http://www.w3.org/2000/svg" viewBox="0 0 1080 1080"><defs><style>.cls-1{stroke:#000;stroke-miterlimit:10;}</style></defs><path class="cls-1" d="M48.02,318.01c1.35-5.83,2.56-11.7,4.07-17.49,5.72-21.92,16.01-41.31,31.79-57.73,8.58-8.93,8.78-13.52,1.23-22.99-10.41-13.06-12.57-27.36-6.79-42.93,5.68-15.29,15.42-27.68,27.82-38.01,19.96-16.62,43.27-26.27,68.38-31.88,8.22-1.84,15.46,2.73,17.77,10.51,2.23,7.49-1.86,14.89-10.2,17.86-11.04,3.93-22.47,6.9-33.18,11.57-15.96,6.96-29.78,17.07-39,32.34-6.65,11.02-6.24,15.61,1.48,25.71,12.75,16.69,13,38.14-1.64,53.25-40.51,41.8-38.2,90.23-22.36,140.39,6.76,21.41,23.77,35.11,44.88,40.65,20.06,5.26,41.09,6.79,61.7,9.92,5.01,.76,7.07-1.53,8.34-6.53,3.68-14.43,7.66-28.81,12.44-42.91,2.12-6.26,1.55-9.81-3.55-14.48-53.41-48.88-40.58-134.39,24.73-164.39,34.52-15.86,67.9-12.28,99.86,8.65,13.91-9.2,27.86-18.41,42.72-28.24-1.93-2.29-3.73-4.7-5.81-6.84-37.24-38.42-82.86-58.79-135.96-62.81-7.27-.55-14.05-2.66-15.35-10.11-.85-4.86,.67-11.6,3.77-15.23,2.63-3.07,9.15-4.23,13.8-3.92,63.41,4.24,116.94,29.64,159.61,76.8,6.46,7.13,11,7.89,19.8,4.51,78.58-30.28,157.43-30.29,235.96,.22,8.46,3.28,12.97,2.17,18.99-4.57,63.31-70.89,167.24-97.06,252.06-63.8,24.41,9.57,45.88,23.35,60.52,45.82,11.75,18.04,17.95,39.65-1.06,61.2-4.86,5.5-4.49,11.86,.59,17.21,47.29,49.86,46.65,108.03,27.37,168.19-12.16,37.95-43.22,56-79.99,64.41-18.1,4.14-36.86,5.38-55.98,8.02,9.89,123.34-34.73,219.11-147.4,278.88,11.87,11.32,23.77,22.26,35.16,33.71,7.04,7.07,6.94,16.06,.69,22-6.49,6.17-14.17,5.5-21.98-1.59-12.69-11.52-25.6-22.79-38.25-34.36-5.48-5.01-10.81-5.8-18.13-3.43-65.03,21.09-131.82,25.17-199.52,19.82-35.89-2.84-71.03-9.36-105.31-20.5-3.1-1.01-8.01-.65-10.47,1.21-49.14,37.02-87.37,82.06-102.99,143.19-2.18,8.54-3.2,17.37-4.96,27.22,4.02,.19,7.07,.45,10.11,.45,35.9,.03,71.81-.12,107.71,.14,6.52,.05,9.9-1.46,12.39-8.23,22.11-60.05,78.59-99.55,141.95-99.89,62.68-.33,120.1,39.61,142.26,99.44,2.36,6.37,5.16,8.78,12.09,8.71,36.22-.35,72.44-.15,108.66-.19,2.79,0,5.58-.32,8.92-.52-2.19-29.28-11.43-55.63-25.35-80.53-1.55-2.77-3.27-5.45-4.7-8.28-4.46-8.82-2.28-17.18,5.46-21.34,7.33-3.94,15.05-1.54,20.18,6.81,16.28,26.51,27.73,54.92,32.27,85.81,1.52,10.33,2.2,20.84,2.45,31.29,.25,10.61-4.79,15.59-15.46,16.5-3.79,.33-7.62,.24-11.43,.24-183.33,.01-366.65,0-549.98,0-3.18,0-6.36,.06-9.53-.1-13.33-.67-17.94-5.71-17.59-19.27,1.76-68.46,32.8-123.38,79.47-170.92,9.3-9.48,19.46-18.11,29.42-27.3-112.49-59.87-157.58-155.06-147.52-280-11.29-.94-22.81-.62-33.69-3.09-18.44-4.19-37.34-8.19-54.49-15.78-34.11-15.09-49.69-44.59-55.65-80.07-1.05-6.23-2.38-12.41-3.58-18.61v-43.85l-.02,.06Zm498.09,449.97c27.36,.47,61.76-2.54,95.71-9.93,51.47-11.2,98.7-31.38,136.79-68.76,60.08-58.96,77.73-132.2,67.16-213.2-9.34-71.59-40.22-133.73-88.95-186.98-90.47-98.86-235.04-128.52-350.58-67.13-118.41,62.92-180.63,164.43-181.94,298.6-.98,100.44,48.79,172.46,139.98,214.72,55.22,25.59,114.28,32.6,181.84,32.67h-.01ZM736.31,229.59c24.64-16.25,50.88-22.73,79.33-15.68,38.18,9.46,64.54,32.76,74.79,70.99,10.52,39.23-.45,73.38-30.21,101.13-3.95,3.68-5.42,6.41-3.52,12.02,4.96,14.69,9.21,29.65,13.11,44.67,1.31,5.05,3.47,7.11,8.41,6.44,19.11-2.61,38.62-3.63,57.22-8.27,22.4-5.58,41.41-18.54,48.86-41.45,16.4-50.38,18.76-99.08-21.95-141.2-14.6-15.11-14.4-36.6-1.66-53.23,7.74-10.1,8.18-14.66,1.54-25.7-10.1-16.79-25.47-27.41-43.2-34.4-54.49-21.5-108.13-17.23-160.64,6.96-25.04,11.53-46.46,28.1-65.01,49.22,14.58,9.69,28.5,18.93,42.92,28.51h.01ZM423.88,946.57h224.41c-7.84-40.58-62.51-77.84-113.21-77.53-49.71,.3-103.94,37.94-111.2,77.53h0ZM312.06,250.69c-29.04-18.46-70.58-9.11-91.31,19.72-20.15,28.02-16.01,70.61,9.53,91.1,20.56-41.59,47.28-78.58,81.78-110.81h0Zm448.07,.02c34.08,31.93,61.16,68.96,81.73,110.87,25.62-21.14,29.65-63.47,9.45-91.27-20.96-28.85-62.8-38.18-91.18-19.6Z"/><path class="cls-1" d="M536.16,579.68c-60.1,.02-105.56-44.59-102.95-102.9,1.17-26,5.96-52.01,22.48-73.56,25.46-33.21,59.43-47.6,100.51-38.94,41.39,8.73,67.02,35.61,77.02,76.68,5.04,20.67,8.8,41.51,3.28,62.98-11.86,46.18-50.69,75.72-100.35,75.73h0Zm-.37-29.42c35.5,.03,63.19-20.36,71.61-52.55,4.88-18.64,.35-36.6-4.28-54.35-8.12-31.1-35.47-51.69-67.25-51.57-32.13,.12-59.4,21.43-67.38,52.83-1.64,6.44-2.88,12.99-4.12,19.53-9,47.51,23,86.07,71.43,86.11h0Z"/><path class="cls-1" d="M536.08,642.49c-14.27,11.55-29.72,16.34-47.39,11.22-18.6-5.39-32.8-22.29-34.73-41.28-1.12-11.02,3.91-18.83,12.88-19.99,8.53-1.1,14.43,4.48,16.5,15.6s9.29,18,18.93,18.04c9.59,.04,16.74-6.66,18.6-18,1.44-8.78,5.37-15.05,14.94-15.63,8.14-.5,13.51,5.37,15.45,16.07,1.94,10.71,8.7,17.29,18.07,17.57,9.54,.29,17.24-6.68,19.37-17.53,2.32-11.84,8.26-17.44,17.01-16.04,9.47,1.53,14.28,10.27,12.15,22.23-6.51,36.44-49.3,55.1-81.77,27.74h-.01Z"/><path class="cls-1" d="M697.96,418.88c26.33-.04,48.25,20.17,50.89,46.91,.99,10.04-3.68,17.24-12.04,18.54-9.15,1.43-16.13-3.83-17.42-14.39-1.25-10.19-5.59-17.4-15.69-20.24-12.31-3.46-23.91,3.84-26.39,16.37-.37,1.86-.49,3.77-.92,5.62-2.15,9.29-8.41,13.92-17.01,12.66-7.66-1.13-12.73-7.84-12.49-16.53,.74-26.44,24.18-48.9,51.07-48.94h0Z"/><path class="cls-1" d="M374.44,418.88c26.61,.18,49.2,21.67,50.73,48.26,.53,9.17-4.63,16.18-12.7,17.23-8.6,1.12-14.72-3.55-16.8-12.95-.62-2.78-.66-5.71-1.51-8.4-2.67-8.47-11.39-14.45-20.41-14.29-9.47,.17-17.98,6.8-20.19,15.85-.52,2.14-.48,4.42-.93,6.58-2,9.46-8.01,14.2-16.65,13.24-8.17-.92-13.35-7.72-12.92-16.99,1.23-26.82,24.4-48.71,51.38-48.53Z"/></svg>