<?xml version="1.0" encoding="UTF-8"?><svg id="Capa_1" xmlns="http://www.w3.org/2000/svg" viewBox="0 0 1080 1080"><path d="M417.17,725.98c-3.16-.15-7.08,.16-10.79-.57-60.75-12.03-97.92-49.94-116.31-107.52-4.5-14.09-6.56-29.01-8.94-43.68-.64-3.93,.52-9.17,2.86-12.33,3.89-5.25,10.99-3.53,15.81,3.04,15.87,21.61,35.33,39.1,60.29,49.3,12.78,5.22,26.45,8.28,40.5,12.56-3.11-12.45-5.9-22.91-8.26-33.47-.93-4.15-1.78-8.68-1.01-12.73,.71-3.72,2.87-8.74,5.79-10.03,2.89-1.28,8.2,.39,11.27,2.5,10.24,7.02,19.2,16.21,30.03,21.96,14.26,7.57,19.54,8.28,22.07-11.85,2.05-16.27-.13-33.05,.06-49.59,.11-9.84,1.39-19.65,1.65-29.49,.08-3.1-.51-7.05-2.39-9.24-14.4-16.73-23.11-35.49-22.48-57.98,.25-9.12,5.69-13.68,14.3-10.75,14.95,5.08,29.64,10.88,45.3,16.69,2.53-4.64,5.6-10.3,8.69-15.95,9.22-16.81,18.27-33.72,27.79-50.36,2.74-4.79,6.32-9.41,10.43-13.07,28.73-25.51,57.55-50.98,92.23-68.43,13.63-6.85,28.06-11.12,43.57-10.41,7.5,.35,11.5,4.04,11.25,10.23-.23,5.93-4.41,9.47-11.53,9.35-21.47-.37-39.54,9.1-56.12,20.98-20.58,14.76-40.77,30.24-59.8,46.93-9.16,8.03-16.28,18.94-22.52,29.61-9.96,17.01-18.43,34.91-27.41,52.21,5.05,5.35,10.39,10.48,15.07,16.16,2.79,3.39,4.89,7.49,6.67,11.55,2.31,5.26,.39,9.76-4.58,12.21-4.94,2.43-9.99,1.36-12.61-3.64-12.63-24.08-36.81-31.05-58.85-41.22-.62,.41-1.24,.81-1.86,1.22,2.77,6.5,4.98,13.31,8.43,19.43,7.78,13.81,19.85,23.55,32.71,32.38,2.31,1.58,4.67,3.08,6.96,4.69,6.19,4.33,7.77,9.66,4.38,14.66-3.45,5.09-9.05,5.74-15.21,1.71-4.44-2.91-8.84-5.89-13.83-9.22,0,10.89,.2,20.87-.05,30.84-.39,15.76-.68,31.55-1.86,47.26-.36,4.76-2.99,9.61-5.45,13.91-6.64,11.59-15.95,15.82-28.73,12.02-9.88-2.94-19.26-7.55-29.95-11.85,3.28,6.78,6.07,13.69,9.8,20.04,7.09,12.07,3.81,19-10.31,19.01-38.65,.04-72.57-13.04-102-37.98-1.71-1.45-3.37-2.94-5.08-4.38-.26-.22-.67-.24-1.02-.35,2.03,46.85,58.17,100.52,109.02,104.47,1.46-8.41,2.65-16.85,4.44-25.16,1.71-7.95,6.73-11.42,12.9-9.7,5.99,1.67,7.57,6.74,6.33,14.47-1.46,9.09-2.34,18.38-2.3,27.59,.03,8.22,4.82,14.62,12.09,18.26,24.23,12.13,49.18,16.47,73.4,1.12,15.66-9.92,30.6-21.29,44.62-33.43,23.49-20.34,32.41-46.32,27.21-77.36-3.57-21.29-5.76-42.81-8.61-64.22-.98-7.33,1.9-12.15,7.96-13.09,5.83-.9,10.23,2.45,11.31,9.57,2.77,18.22,5.2,36.5,7.76,54.75,.25,1.79,.45,3.59,.81,6.52,8.14-1.02,15.72-1.98,23.05-2.9-1.04-13.33-2.84-25.36-2.75-37.37,.21-27.39,1.29-54.78,2.15-82.16,.2-6.39,4.55-10.65,10.03-10.5,5.76,.17,9.55,4.74,9.35,11.57-.73,25.71-.98,51.46-2.52,77.12-.92,15.44,4.82,26.31,16.54,35.88,19.69,16.07,40.87,27.87,66.86,29.28,7.08,.38,11.07,4.56,10.75,10.27-.33,5.89-5.08,9.64-12.31,9.27-28.1-1.43-52.15-12.79-73.65-30.3-1.58-1.29-3.14-2.61-5.05-4.21-10.98,11.97-25.89,12.44-41.49,13.69,0,6.56,.74,12.94-.13,19.1-3.92,27.66-19.98,48.45-40.53,65.55-14.96,12.45-31.17,23.74-48.01,33.51-25.73,14.92-70.42,9.98-93.03-9.33-5.9-5.04-10.01-12.16-15.14-18.58Z"/><path d="M531.84,557.88c-2.92,11.24-4.99,20.67-7.91,29.83-1.53,4.8-6.3,7.27-10.76,5.12-3.21-1.54-7.48-6.15-7.14-8.85,1.26-9.85,3.8-19.62,6.8-29.13,1.5-4.74,6.6-6.68,11.08-4.59,3.31,1.54,5.6,5.28,7.92,7.61Z"/></svg>