<?xml version="1.0" encoding="UTF-8"?><svg id="Capa_1" xmlns="http://www.w3.org/2000/svg" viewBox="0 0 1080 1080"><path d="M673.1,241c7.82,2.13,15.98,3.43,23.4,6.52,33.45,13.89,53.65,39,57.56,74.97,4.13,38.04-11.1,68.06-43.45,88.73-11.05,7.06-21.52,14.46-29.34,25.16-5.85,8-8.93,16.8-9.75,26.75-1.47,17.89-2.44,35.94-5.7,53.53-4.91,26.46-17.68,49.75-33.11,71.6-12.72,18.02-25.29,36.14-37.88,54.24-1.12,1.61-1.88,3.46-2.44,5.54,19.36-19.94,43.74-32.76,66.27-48.16,7.33-5.02,14.53-10.33,21.22-16.16,20.91-18.2,34.87-41.17,44.41-66.95,3.97-10.74,2.64-21.53-.72-32.2-4.75-15.07-7.31-30.23-2.45-45.87,6.09-19.59,20.55-31.9,38.95-32.85,29.63-1.52,51.36,27.33,41.59,55.38-4.72,13.56-13.05,24.47-25.22,32.25-4.52,2.89-9.18,5.6-13.93,8.11-11.61,6.13-19.93,15.05-24.95,27.3-7.06,17.23-16.15,33.34-27.88,47.88-13.2,16.36-29.54,29.02-46.91,40.64-17.08,11.43-34.63,22.43-50.35,35.55-19.06,15.9-33.22,35.9-38.9,60.79-1.06,4.64-1.5,9.42-2.14,13.61,5.5,2.73,11.01,4.26,14.87,7.66,5.44,4.79,11.66,10.27,13.93,16.73,3.05,8.68,7.82,9.67,15.45,9.29,7.55-.38,15.3-.32,22.7,1.01,18.47,3.31,32.06,19.62,32.9,38.34,.28,6.17-2.44,10.04-7.39,10.52-4.89,.48-8.32-2.88-9.17-8.97-2.06-14.9-10.17-23.16-23.85-24.1,1.92,4.72,4.16,9.26,5.59,14.04,1.04,3.49,1.4,7.3,1.39,10.96-.02,4.74-2.91,7.7-7.59,8.01-4.68,.31-7.56-2.28-8.67-6.92-1.11-4.64-1.9-9.47-3.83-13.77-2.31-5.16-6.69-8.58-13.1-10.84,0,7.97,.14,15.14-.04,22.31-.16,6.12-4.21,10.09-9.31,9.22-5.28-.89-7.32-4.53-7.33-9.59,0-10.2,0-20.41-.03-30.61-.02-10.05-3.96-17.95-12.77-23.15-.63-.37-1.32-.66-2.02-.89-.31-.1-.71,.05-1.88,.17,0,1.87,0,3.82,0,5.77,0,15.96-.04,31.91,.01,47.87,.02,4.91-1.34,8.89-6.53,10.31-5.58,1.52-10.11-2.82-10.15-9.91-.11-15.95-.04-31.91-.04-47.87,0-2.01,0-4.02,0-6.11-8.19,1.19-15.58,9.48-16.19,18.99-.66,10.16-.37,20.39-.49,30.59-.02,2.04,.08,4.09-.09,6.12-.46,5.21-3.91,8.56-8.52,8.42-4.41-.14-7.8-3.36-7.97-8.36-.25-7.39-.07-14.79-.07-22.23-7.59,.74-14.77,8.76-16.23,17.65-.33,2.01-.42,4.07-.83,6.06-.98,4.68-4.06,7.17-8.73,6.78-4.68-.39-7.98-3.51-7.36-8.12,.9-6.68,2.96-13.22,4.73-19.77,.46-1.7,1.67-3.2,2.61-4.92-11.8-.12-22.04,8.65-23.87,20.2-.26,1.65-.34,3.33-.62,4.97-.85,4.95-4.21,7.95-8.59,7.74-4.65-.22-7.93-3.81-7.82-9.05,.27-13.46,5.88-24.33,16.52-32.52,7.28-5.6,15.63-8.39,24.82-8.46,8.52-.07,17.05-.02,25.9-.02,4.55-16.87,15.03-27.88,33.44-32.91-2.14-8.7-3.4-17.73-6.57-26.03-9.48-24.82-26.41-44.11-47.7-59.48-13.66-9.87-28-18.82-42.18-27.95-31.51-20.3-54.76-47.59-68.93-82.24-6.08-14.87-15.71-25.65-30.06-32.68-14.89-7.3-26.73-17.8-33.69-33.32-10.2-22.75-.9-47.95,21.33-57.2,22.35-9.31,46.69,1.73,55.65,25.05,5.41,14.07,6.49,28.66,1.16,42.46-8.97,23.21-3.38,43.56,7.88,64.19,15.13,27.73,36.99,48.34,63.46,64.78,20.32,12.62,40.77,25.12,58.3,42.16-.88-1.65-1.62-3.4-2.68-4.92-12.8-18.41-25.46-36.93-38.53-55.15-24.38-33.99-38.31-71.66-37.74-113.59,.38-28.33-13.2-47.01-36.16-60.49-22.14-13.01-37.5-31.25-44.37-56.06-6.96-25.16-3.68-49.21,9.57-71.79,4.1-6.98,8.51-8.88,13.31-6.03,4.89,2.91,5.22,7.46,1.06,14.46-19.08,32.12-12.13,72.66,16.59,96.58,1.82,1.51,3.77,2.86,7.11,5.37-2.75-18.64,.41-34.2,14.62-45.7,8.09-6.54,17.48-9.61,27.91-9.16,8.57,.37,16.33,3.18,23.2,8.32,7.04,5.27,12.55,12.02,14.47,20.52,1.79,7.94,1.84,16.28,2.69,24.79,12.81-8.56,22.08-20.25,27.78-34.71,11.82-30.01,3.17-63.67-21.61-84.8-24.15-20.61-59.11-23.47-86.74-7.09-1.12,.66-2.2,1.39-3.36,1.96-4.64,2.26-9.27,1-11.55-3.1-2.2-3.93-1.15-8.29,3.09-11.11,10.96-7.29,23.03-11.81,36.01-13.93,1.42-.23,2.79-.73,4.18-1.1,6.68,0,13.36,0,20.04,0,.85,.32,1.67,.79,2.54,.93,39.18,6.01,69.78,34.56,77.44,72.29,7.87,38.75-9.35,77.11-43.8,98.05-5.84,3.55-11.68,7.33-16.75,11.86-11.78,10.52-20.65,22.83-20.94,39.58-.54,31.47,4.14,62.02,20.08,89.51,10.57,18.22,23.15,35.32,35.39,52.51,14.37,20.17,27.49,40.92,35.14,64.7,.18,.56,.72,1.01,.84,1.17,5.18-11.21,9.26-22.9,15.62-33.17,11.21-18.09,23.19-35.79,35.99-52.8,26.05-34.61,40.64-72.83,40.5-116.49-.04-13.6-3.57-25.46-12.29-35.95-7.6-9.14-16.96-15.88-27.04-21.98-43.51-26.31-57.25-83.5-30.54-126.38,3.78-6.07,8.13-7.84,12.71-5.16,4.81,2.82,5.29,7.48,1.43,13.98-.28,.48-.57,.95-.85,1.43-18.88,32.31-10.78,74.13,18.82,97.02,1.38,1.07,2.91,1.96,5.28,3.53-1.7-13.72-1.11-25.97,6.74-36.72,7.92-10.85,18.61-16.84,32-17.62,11.04-.65,20.89,2.81,29.26,10.02,13.37,11.52,16.2,26.66,13.62,44.34,2.27-1.47,3.51-2.18,4.65-3.03,25.07-18.6,35.78-52.48,26.13-82.57-9.8-30.53-38.12-51.81-69.59-52.34-14.85-.25-28.6,3.44-41.31,11.13-6.05,3.66-10.84,3.19-13.69-1.21-3-4.64-1.29-9.21,5.18-13.06,3.65-2.17,7.36-4.49,11.35-5.82,8.72-2.9,17.64-5.21,26.48-7.76,6.68,0,13.36,0,20.04,0Zm-290.6,252.77c2.29-8.54,4.47-16.37,6.47-24.24,2.73-10.77,1.94-21.31-2.41-31.55-5.39-12.69-19.63-18.69-32.32-13.66-12.97,5.14-19.2,19.51-14.01,32.56,3.58,8.99,8.96,16.71,17.22,21.94,8.1,5.14,16.46,9.85,25.05,14.95Zm360.59,0c7.82-4.55,15.02-8.72,22.2-12.93,9.64-5.66,16.3-13.86,20.3-24.23,4.89-12.68-.97-26.65-13.34-31.98-12.41-5.35-26.55-.07-32.45,12.16-4.23,8.77-5.85,18.1-4.01,27.6,1.89,9.75,4.76,19.31,7.31,29.39Zm-280.46-60.87c5.37-7.04,10.44-13.63,15.46-20.26,6.61-8.75,9.62-18.67,9.54-29.58-.11-14.08-11.12-25.16-25.02-25.15-13.88,.01-24.88,11.15-24.93,25.23-.04,10.29,2.5,19.83,8.64,28.19,5.24,7.14,10.68,14.14,16.32,21.58Zm200.45-.03c5.34-7.01,10.5-13.72,15.59-20.49,6.34-8.44,9.25-17.99,9.37-28.52,.17-14.41-10.66-25.85-24.76-25.96-14.34-.11-25.37,11.44-25.19,26.08,.14,11.17,3.59,21.06,10.41,29.86,4.76,6.14,9.46,12.34,14.58,19.03Z"/><path d="M342.98,392.34c-4.39,.12-8.19-3.41-8.43-7.84-.25-4.72,3.35-8.66,8.02-8.77,4.59-.1,8.61,3.82,8.56,8.36-.05,4.33-3.8,8.12-8.15,8.25Z"/><path d="M783.11,392.34c-4.58,.08-8.58-3.88-8.51-8.43,.07-4.36,3.8-8.09,8.19-8.18,4.65-.1,8.47,3.73,8.41,8.42-.06,4.47-3.65,8.12-8.08,8.2Z"/><path d="M427.19,289.07c4.52-.02,8.5,4.06,8.36,8.58-.14,4.46-3.77,7.97-8.27,7.99-4.54,.03-8.09-3.38-8.23-7.91-.15-4.71,3.54-8.64,8.14-8.66Z"/><path d="M506.26,297.14c.14,4.79-3.45,8.5-8.21,8.49-4.49,0-8.14-3.51-8.3-7.96-.16-4.52,3.79-8.61,8.32-8.61,4.38,0,8.05,3.63,8.18,8.08Z"/><path d="M824.58,408.05c.13,4.69-3.64,8.63-8.25,8.61-4.28-.02-8.17-3.8-8.33-8.1-.17-4.56,3.7-8.48,8.37-8.47,4.55,0,8.09,3.44,8.21,7.96Z"/><path d="M824.59,486.61c.1,4.53-3.26,8.16-7.77,8.38-4.71,.23-8.69-3.38-8.81-8-.11-4.52,3.89-8.56,8.43-8.51,4.42,.05,8.05,3.67,8.15,8.13Z"/><path d="M317.72,408.34c-.03,4.52-4.19,8.49-8.68,8.29-4.43-.19-7.92-3.89-7.91-8.38,.01-4.75,3.77-8.33,8.55-8.16,4.45,.16,8.07,3.87,8.03,8.25Z"/><path d="M309.23,478.48c4.53-.08,8.57,3.95,8.49,8.46-.08,4.39-3.75,7.99-8.2,8.07-4.56,.08-8.15-3.27-8.36-7.79-.21-4.71,3.43-8.66,8.08-8.74Z"/><path d="M462.41,291.05c-4.63-.14-8.21-4.12-7.94-8.82,.26-4.46,4-7.92,8.42-7.78,4.65,.14,8.22,4.11,7.94,8.82-.26,4.46-4.01,7.93-8.42,7.79Z"/><path d="M412.49,324.54c4.44-.03,8.09,3.5,8.25,7.97,.17,4.7-3.51,8.6-8.14,8.63-4.64,.03-8.37-3.82-8.26-8.53,.11-4.47,3.72-8.05,8.15-8.08Z"/><path d="M520.98,332.79c.03,4.67-3.83,8.49-8.44,8.36-4.41-.12-7.96-3.79-7.99-8.25-.03-4.68,3.81-8.48,8.44-8.35,4.42,.12,7.97,3.79,8,8.25Z"/><path d="M635.98,297.5c-.06,4.66-3.97,8.31-8.69,8.12-4.51-.18-7.88-3.76-7.83-8.31,.05-4.46,3.63-8.14,8.01-8.25,4.51-.11,8.57,3.91,8.51,8.43Z"/><path d="M698.4,289.06c4.37-.07,8.11,3.53,8.28,7.97,.19,4.8-3.34,8.55-8.09,8.6-4.49,.04-8.18-3.4-8.4-7.85-.23-4.51,3.68-8.65,8.21-8.72Z"/><path d="M671.29,282.67c.04,4.68-3.8,8.5-8.42,8.38-4.41-.11-7.97-3.77-8.01-8.23-.04-4.69,3.78-8.49,8.42-8.38,4.42,.11,7.98,3.77,8.02,8.23Z"/><path d="M613.11,324.54c4.65,.09,8.27,4.01,8.05,8.72-.21,4.47-3.91,7.97-8.33,7.89-4.64-.08-8.27-4.01-8.05-8.72,.21-4.47,3.9-7.96,8.33-7.88Z"/><path d="M712.98,341.15c-4.65-.12-8.23-4.06-7.98-8.78,.24-4.47,3.96-7.94,8.39-7.82,4.65,.12,8.24,4.07,7.98,8.78-.24,4.47-3.97,7.94-8.39,7.83Z"/></svg>