<?xml version="1.0" encoding="UTF-8"?><svg id="Capa_1" xmlns="http://www.w3.org/2000/svg" viewBox="0 0 1080 1080"><path d="M546,333c1.15,.46,2.3,.91,3.45,1.39,9.37,3.93,13.15,14.98,8.11,23.77-.56,.97-1.19,1.89-1.78,2.81,5.38,9.16,5.38,13.5,.27,22.19,1.22,3.01,2.67,5.67,3.34,8.52,.63,2.7,.45,5.59,.67,9.27,1.81-3.48,2.61-6.87,4.75-8.73,4.36-3.81,6.25-7.88,5.98-13.78-.21-4.63,2.93-8.38,6.89-10.97,1.52-.99,2.16-1.83,1.79-3.87-1.56-8.42,3.13-16.14,11.12-18.84,7.91-2.68,16.57,.87,20.34,8.32,3.78,7.48,1.56,16.26-5.39,21.27-.71,.51-1.44,.98-2.29,1.56,1.78,8.33-.27,15.24-7.84,19.99-.43,.27-.92,1.06-.82,1.48,1.39,5.79-.45,11.03-2.67,16.45,4.5-3.95,8.72-8.04,15.28-8.22,1.01-6.14,3.64-11.69,9.64-13.67,4.82-1.59,7.1-4.05,8.99-8.65,2.9-7.07,11.41-10.21,19-8.23,7.15,1.86,12.23,8.51,12.27,16.04,.05,7.93-4.94,14.62-12.73,16.33-2.62,.58-3.47,1.59-4.2,4.1-2.12,7.37-7.56,11.13-15.41,12.19-.52,6.33-4.63,10.64-9.07,14.45,5.73-.84,11.45-1.67,18.39-2.68,3.87-5.79,10.32-8.91,19-6.86,.72,.17,1.98-1.07,2.69-1.91,4.71-5.55,10.55-7.96,17.69-6.07,6.93,1.83,11.04,6.52,12.35,13.56,2.08,11.2-8.26,21.26-19.75,19.01-2.23-.44-3.26,0-4.6,1.71-4.2,5.35-9.78,7.6-16.55,6.18-1.95-.41-2.9,.23-4.39,1.52-3.68,3.17-7.87,5.75-11.97,8.64,5.48,.06,11.48,.17,16.01,4.82,7.82-5.35,15.33-5,22.5,.72,10.12-5.38,18.67-4.25,24.25,3.12,4.98,6.58,4.34,16.06-1.49,21.91-6.28,6.3-15.06,6.51-23.47,.56-10.5,4.89-14.26,4.74-22.83-1.1-4.84,3.95-10.77,4.08-17.35,3.4,3.93,2.62,7.8,4.25,10.26,7.1,2.61,3.02,4.64,4.54,9,4.36,6.76-.27,11.66,3.79,14.72,9.83,2.83,0,5.61-.41,8.24,.08,7.49,1.38,12.9,7.72,13.34,15.1,.46,7.71-4.17,14.65-11.38,17.07-7.12,2.39-15.01-.09-19.15-6.43-1.35-2.06-2.52-2.78-5.02-2.52-6.83,.71-12.23-2.07-15.83-7.87-1.07-1.73-2.23-1.7-3.94-1.84-3.42-.28-7.06-.48-10.13-1.82-9.72-4.23-19.24-8.93-28.78-13.56-2.21-1.07-4.21-2.57-6.47-3.96-8.64,13.11-15.68,26.74-15.6,43.1,.14,30.07,.02,60.13,.05,90.2,.01,10.73,7.11,17.8,17.87,17.83,13.12,.04,26.25,.01,39.37,.01,11.55,0,13.06,.5,22.14,7.39,5.48-5.91,12.48-7.53,20.35-7.45,20.62,.2,41.25,.13,61.87,0,3.44-.02,6.08,.84,7.93,3.77v37.43c-1.85,2.92-4.49,3.79-7.92,3.77-19.61-.13-39.22-.22-58.82,.01-8.84,.11-17.22-.49-23.62-7.67-5.65,5.9-12.33,7.67-19.95,7.66-53.58-.11-107.15-.13-160.73,.02-8.52,.02-16.43-.85-22.54-7.71-5.7,6.03-12.54,7.76-20.28,7.69-20.73-.18-41.46-.12-62.19,0-3.43,.02-6.08-.84-7.92-3.76v-37.43c1.84-2.94,4.49-3.87,7.93-3.76,6.49,.21,13,.02,19.5,.08,4.13,.03,6.55,2.16,6.54,5.57,0,3.4-2.43,5.51-6.57,5.55-5.23,.05-10.46,.01-15.94,.01v22.26c.5,.09,.97,.25,1.43,.25,20.12,.02,40.25,.1,60.37-.02,8.94-.05,14.3-9.08,10.06-16.64-2.2-3.92-5.69-5.83-10.18-5.85-6.87-.03-13.75,.01-20.62-.02-4.48-.02-6.94-2-6.98-5.51-.04-3.54,2.42-5.6,6.85-5.63,6-.04,12-.01,18,0,9.39,0,12.79,1.24,20.09,7.47,6.4-7.21,14.96-7.7,23.9-7.53,12.37,.24,24.75,.09,37.12,.05,10.99-.03,18.02-7.06,18.03-18.05,.03-21.58,0-43.16,.01-64.74,0-1.12-.1-2.26,.07-3.36,.49-3.14,2.45-5,5.58-4.98,2.96,.02,4.84,1.82,5.41,4.76,.19,.97,.1,1.99,.1,2.99,0,21.58,.02,43.16,0,64.74-.02,17.93-11.89,29.77-29.85,29.8-14.12,.02-28.25-.01-42.37,.01-7.48,.01-12.62,4.74-12.51,11.44,.1,6.52,5.19,11.08,12.5,11.08,55.62,.01,111.24,.01,166.86,0,7.59,0,12.69-4.58,12.69-11.27,0-6.69-5.12-11.24-12.71-11.25-14.12-.02-28.25,.02-42.37-.01-17.71-.04-29.63-11.93-29.65-29.61-.03-29.44,.02-58.88-.02-88.32-.02-13.78,3.32-26.62,10.26-38.54,4.39-7.54,8.9-15.02,13.03-22.71,14.45-26.88-5.32-58.81-35.86-58.07-28.9,.7-47.13,32.04-33.47,57.7,4.16,7.81,8.76,15.39,13.21,23.04,6.4,11,9.85,22.83,10.22,35.55,.13,4.53-1.76,7.03-5.25,7.21-3.62,.19-5.77-2.36-5.9-7-.28-9.89-2.73-19.22-7.49-27.9-2.51-4.58-5.18-9.09-7.52-13.19-11.61,5.58-23.05,11.01-34.41,16.6-4.18,2.06-8.75,1.66-12.95,2.64-3.63,.85-6.14,5.71-9.73,7.77-2.49,1.44-5.97,1.45-9.03,1.52-1.92,.05-3.05,.22-4.2,2.01-4.45,6.95-12.46,9.59-19.93,6.87-7.25-2.64-11.79-10.02-10.92-17.74,.86-7.59,6.88-13.64,14.8-14.66,2.07-.27,4.2-.04,6.8-.04,2.67-4.89,6.87-8.66,13.22-9.54,6.21-.87,6.33-1.23,11.14-5.23,2.69-2.24,5.97-3.78,8.37-5.25-5.1-.95-10.71-1.99-17.57-3.27-5.87,4.63-13.38,5.2-21.01-.04-7.76,5.77-16.95,6.72-24.41-1.09-5.51-5.77-5.78-15.07-.95-21.34,5.66-7.35,13.94-8.44,24.13-3.16,8.9-5.69,13.74-5.9,22.55-.72,4.47-4.36,10.39-4.82,16.56-5.49-1.52-.64-3.17-1.08-4.53-1.96-2.77-1.82-5.33-3.95-8.09-5.8-1.16-.77-2.7-1.77-3.88-1.57-7.12,1.22-12.84-.91-17.17-6.58-1.15-1.51-2.1-1.86-4.01-1.47-8.43,1.75-16.31-2.67-19.24-10.53-2.87-7.68,.26-16.31,7.36-20.36,7.45-4.24,16.39-2.48,21.76,4.53,1.25,1.64,2.17,2.01,4.26,1.62,7.85-1.46,13.89,1.59,18.43,8.59,5.92-2.25,11.58-.42,17.45,1.73-4.15-4.36-8.59-8.42-8.97-14.94-8.63-1.31-14.33-5.66-16.17-14.42-.16-.77-2.03-1.41-3.2-1.71-7.36-1.85-12.6-7.85-13.02-15.08-.45-7.83,3.71-14.37,10.82-17.03,9.34-3.48,19.49,1.82,22.18,11.44,.33,1.18,1.3,2.76,2.32,3.08,9.26,2.94,12.19,5.88,14.46,14.86,2.91,1.14,5.85,1.9,8.37,3.38,2.43,1.43,4.42,3.6,7.17,5.22-.45-1.14-1.11-2.24-1.32-3.42-.66-3.74-1.1-7.52-1.75-11.27-.2-1.17-.48-2.74-1.29-3.31-6.87-4.85-8.88-11.39-7.12-19.59-5.9-3.5-9.59-8.51-9.5-15.7,.13-9.61,8.62-17.23,18.1-16.34,9.96,.94,16.94,9.67,15.22,19.31-.37,2.05-.03,3.06,1.7,4.25,5.75,3.98,8.06,9.56,7.15,16.53-.14,1.07,0,2.87,.65,3.25,4.75,2.82,6.95,7.35,8.86,12.16,.11,.28,.43,.47,1.25,1.33-.15-6.52-.2-12.44,4.16-17.12-5.56-7.6-5.57-15.11-.14-22.52-6.34-10.38-4.81-20.22,3.99-25.55,1.79-1.08,3.84-1.73,5.77-2.58,2,0,4,0,6,0Zm177.58,372.06v-22.31c-.66-.09-1.13-.2-1.6-.2-20.12-.01-40.25-.02-60.37,0-.99,0-2,.14-2.95,.4-5.52,1.53-9.05,6.68-8.38,12.15,.7,5.76,5.47,9.93,11.7,9.94,18.5,.05,37,.02,55.5,.02,1.97,0,3.94,0,6.11,0Zm-186.28-293.46c0,5.1-.05,10.2,.01,15.3,.05,4.63,2.21,7.22,5.79,7.15,3.45-.07,5.55-2.57,5.57-6.99,.06-10.33,.06-20.65,0-30.98-.03-4.41-2.14-6.91-5.6-6.96-3.58-.05-5.71,2.52-5.76,7.17-.06,5.1-.01,10.2-.01,15.3Zm79.14,81.66s0-.07,0-.1c5.35,.24,10.71,.6,16.06,.67,3.53,.05,5.84-2.24,5.97-5.38,.13-3.24-1.95-5.65-5.45-5.82-11.08-.55-22.16-1.03-33.25-1.4-3.69-.12-6.17,2.3-6.22,5.53-.04,3.23,2.32,5.51,6.08,5.72,5.6,.3,11.2,.52,16.81,.78Zm-146.86-.12s0,.09,0,.13c5.23-.25,10.46-.51,15.69-.74,4.68-.2,7.23-2.25,7.15-5.81-.08-3.56-2.78-5.66-7.38-5.49-10.34,.39-20.67,.86-31,1.33-4.39,.2-6.69,2.34-6.52,5.94,.17,3.49,2.72,5.48,7.13,5.34,4.98-.16,9.96-.47,14.94-.71Zm160.38,28.74c-.67-.8-1.64-2.96-3.28-3.78-10.15-5.04-20.42-9.85-30.73-14.58-2.92-1.34-5.95-.02-7.2,2.75-1.34,2.95-.61,5.72,2.16,7.09,10.38,5.15,20.83,10.16,31.4,14.89,3.73,1.67,7.63-1.28,7.65-6.37Zm-110.32-83.33c5.32,.03,8.05-3.89,6.41-7.9-4.21-10.24-8.59-20.41-13.01-30.55-1.48-3.38-4.66-4.59-7.67-3.26-2.8,1.23-4.09,4.33-2.73,7.59,4.26,10.22,8.57,20.42,13.14,30.49,.8,1.75,3.01,2.86,3.86,3.63Zm46.82,.03c.89-.9,3.02-2.27,4.03-4.22,2.28-4.4,4.01-9.1,5.97-13.67,2.29-5.38,4.67-10.72,6.85-16.14,1.33-3.32,.17-6.36-2.6-7.65-2.71-1.26-6.12-.38-7.37,2.45-4.68,10.58-9.28,21.19-13.62,31.91-1.44,3.57,1.49,7.24,6.73,7.32Zm-104.27,90.1c.62-.2,1.74-.41,2.73-.88,9.59-4.5,19.17-9,28.72-13.59,3.79-1.82,5.05-4.69,3.67-7.79-1.42-3.2-4.71-4.19-8.53-2.41-6.55,3.05-13.06,6.18-19.59,9.28-3.38,1.6-6.81,3.1-10.1,4.86-2.43,1.3-3.6,3.52-2.86,6.28,.72,2.68,2.62,4.16,5.96,4.25Zm33.8-65.09c-.61-.79-1.5-3.17-3.08-3.81-10.73-4.34-21.58-8.4-32.47-12.33-3.08-1.11-5.87,.55-6.87,3.47-1.06,3.1,.07,5.71,2.89,6.83,10.64,4.24,21.35,8.32,32.13,12.17,3.85,1.38,7.25-1.27,7.4-6.33Zm100.03,6.68c.69-.19,1.78-.42,2.82-.8,9.68-3.62,19.36-7.24,29.01-10.92,4.2-1.6,5.77-4.35,4.57-7.65-1.27-3.48-4.29-4.53-8.69-2.89-6.54,2.42-13.05,4.91-19.57,7.38-3.61,1.37-7.25,2.66-10.8,4.17-2.78,1.19-3.81,3.54-3.17,6.44,.61,2.8,2.58,4.11,5.83,4.28Zm-87.31-24.01c-1.06-2.01-1.51-3.68-2.57-4.72-7.92-7.76-15.91-15.43-23.98-23.03-2.57-2.43-5.79-2.32-8.03-.1-2.35,2.33-2.29,5.57,.31,8.27,2.16,2.24,4.46,4.35,6.7,6.5,5.66,5.43,11.18,11.03,17.1,16.17,1.46,1.27,4.42,1.74,6.36,1.26,1.58-.39,2.68-2.74,4.1-4.34Zm105.58-24.34c-1.44-1.66-2.52-4.02-4.1-4.43-1.93-.5-4.95-.09-6.36,1.18-8.13,7.34-15.97,15.01-23.82,22.65-2.64,2.57-2.69,6.02-.44,8.3,2.21,2.24,5.45,2.41,8.04-.02,8.08-7.59,16.07-15.27,23.99-23.02,1.07-1.05,1.58-2.68,2.69-4.66Zm-197.07,9.24c-2.98-.28-5.88,2.22-6.12,5.27-.22,2.89,2.07,5.61,5,5.92,3.17,.34,5.94-1.88,6.22-5,.28-3.14-2-5.91-5.1-6.2Zm9.48,111.29c.06-3.04-2.6-5.75-5.65-5.77-3.08-.01-5.65,2.62-5.61,5.74,.03,3.01,2.39,5.4,5.41,5.49,3.15,.1,5.8-2.38,5.85-5.47Zm238.76-5.74c-2.98-.31-5.9,2.16-6.16,5.22-.25,2.91,2.01,5.63,4.94,5.97,3.17,.37,5.97-1.84,6.29-4.94,.31-3.1-1.98-5.93-5.07-6.25Zm-122.55-181.24c3.11,.04,5.7-2.52,5.69-5.64,0-2.98-2.38-5.46-5.35-5.6-3.11-.15-5.77,2.32-5.86,5.45-.09,3.13,2.41,5.75,5.52,5.8Zm105.39,83.73c-3.2-.06-5.68,2.37-5.69,5.56,0,3.13,2.58,5.73,5.65,5.68,2.88-.05,5.47-2.57,5.59-5.46,.13-3.06-2.42-5.72-5.56-5.78Zm26.6-2.46c-.04-3.02-2.83-5.69-5.83-5.59-3.1,.1-5.55,2.76-5.42,5.9,.12,3.03,2.51,5.32,5.55,5.33,3.14,.01,5.74-2.56,5.7-5.64Zm-82.25-55.57c-.06-3.15-2.66-5.63-5.79-5.51-2.92,.11-5.42,2.65-5.46,5.55-.05,3.04,2.61,5.7,5.69,5.7,3.13,0,5.62-2.57,5.56-5.74Zm-145.66,151.64c.04-3.06-2.6-5.75-5.64-5.75-3.04,0-5.67,2.69-5.62,5.76,.04,2.99,2.43,5.37,5.45,5.46,3.18,.09,5.77-2.35,5.82-5.47Zm203.26,.1c.1-3.07-2.47-5.79-5.53-5.85-3.05-.06-5.72,2.57-5.73,5.65,0,2.98,2.34,5.42,5.35,5.55,3.19,.14,5.81-2.23,5.91-5.36Zm-151.2-157.25c-3.13-.08-5.7,2.43-5.73,5.58-.02,3.01,2.28,5.49,5.26,5.67,3.09,.18,5.84-2.29,5.98-5.39,.14-3.04-2.44-5.78-5.51-5.86Zm49.54-3.17c.1-3.13-2.39-5.75-5.5-5.8-2.99-.05-5.48,2.25-5.67,5.25-.2,3.14,2.18,5.84,5.3,6,3.09,.16,5.78-2.33,5.87-5.44Zm47.21-17.5c-3.07,.07-5.65,2.78-5.53,5.84,.11,3.1,2.78,5.5,5.95,5.34,3.03-.15,5.33-2.56,5.31-5.57-.02-3.12-2.63-5.68-5.73-5.62Zm44.71,41.81c3.22-.07,5.54-2.55,5.41-5.8-.12-2.98-2.58-5.39-5.53-5.41-3.02-.02-5.72,2.69-5.69,5.71,.03,3.09,2.65,5.56,5.81,5.49Zm-209.74,97.93c3.12-.1,5.63-2.8,5.46-5.87-.17-3.08-2.95-5.57-6-5.37-2.97,.2-5.25,2.7-5.21,5.71,.04,3.17,2.6,5.63,5.74,5.53Zm224.65-11.25c-3.07-.01-5.72,2.64-5.68,5.7,.03,3.08,2.69,5.62,5.81,5.55,3.01-.08,5.36-2.46,5.42-5.48,.06-3.17-2.42-5.75-5.54-5.76Zm-165.32-128.5c-3.08-.01-5.67,2.6-5.63,5.71,.03,3.02,2.36,5.38,5.4,5.49,3.16,.11,5.79-2.33,5.86-5.44,.06-3.05-2.57-5.75-5.62-5.76Zm134.09,57.42c3.13-.03,5.7-2.65,5.62-5.73-.08-3.04-2.86-5.63-5.9-5.5-2.95,.12-5.32,2.59-5.35,5.59-.03,3.18,2.45,5.67,5.62,5.64Zm-162.22,0c3.17-.07,5.56-2.62,5.44-5.81-.11-2.99-2.56-5.4-5.52-5.42-3.05-.02-5.74,2.65-5.72,5.68,.02,3.08,2.67,5.62,5.8,5.55Zm-10.68-21.2c-.03-3.03-2.79-5.69-5.8-5.6-3.11,.08-5.53,2.71-5.42,5.88,.11,3.07,2.42,5.3,5.51,5.32,3.16,.02,5.74-2.51,5.71-5.6Zm-7.92,53.71c.06-3.2-2.36-5.69-5.55-5.7-3.14-.01-5.75,2.56-5.71,5.64,.04,2.85,2.59,5.46,5.47,5.59,3.06,.14,5.73-2.41,5.8-5.53Zm-29.61,45.17c.04-3.02-2.66-5.73-5.69-5.72-2.94,.01-5.41,2.43-5.53,5.41-.13,3.24,2.19,5.73,5.4,5.81,3.17,.07,5.77-2.39,5.81-5.49Zm269.67-.04c0-3.14-2.55-5.73-5.63-5.68-3.03,.05-5.68,2.81-5.59,5.82,.09,2.97,2.52,5.35,5.53,5.41,3.22,.06,5.68-2.32,5.68-5.54Z"/></svg>