<?xml version="1.0" standalone="no"?>
<!DOCTYPE svg PUBLIC "-//W3C//DTD SVG 20010904//EN"
 "http://www.w3.org/TR/2001/REC-SVG-20010904/DTD/svg10.dtd">
<svg version="1.0" xmlns="http://www.w3.org/2000/svg"
 width="512.000000pt" height="512.000000pt" viewBox="0 0 512.000000 512.000000"
 preserveAspectRatio="xMidYMid meet">
<metadata>
Created by potrace 1.14, written by Peter Selinger 2001-2017
</metadata>
<g transform="translate(0.000000,512.000000) scale(0.100000,-0.100000)"
fill="#000000" stroke="none">
<path d="M4198 4855 c-2 -2 -35 -5 -73 -6 -39 -1 -88 -6 -110 -10 -22 -4 -53
-10 -70 -12 -51 -9 -179 -49 -192 -59 -7 -6 -13 -7 -13 -3 0 11 -205 -101
-268 -146 -31 -23 -97 -81 -146 -130 -89 -88 -93 -90 -141 -68 -11 5 -60 22
-110 38 -79 25 -124 36 -225 56 -151 30 -467 26 -609 -6 -25 -6 -57 -13 -71
-15 -45 -9 -134 -36 -210 -65 l-75 -29 -95 93 c-212 209 -474 331 -761 354
-80 6 -94 0 -124 -51 -7 -12 -28 -18 -70 -22 -33 -3 -66 -7 -72 -9 -8 -3 -13
4 -13 15 0 18 -48 53 -67 49 -5 -1 -39 -10 -76 -21 -201 -55 -357 -170 -428
-313 -50 -103 -43 -179 27 -271 26 -34 25 -65 -4 -98 -10 -12 -29 -32 -41 -46
-66 -74 -124 -199 -147 -314 -12 -66 -13 -313 -1 -333 3 -5 8 -24 11 -43 37
-227 144 -361 353 -445 88 -36 237 -62 358 -64 l40 -1 -2 -177 c-1 -162 2
-205 31 -356 33 -179 139 -404 259 -552 84 -103 239 -243 327 -295 14 -8 58
-33 98 -56 l72 -42 -27 -17 c-57 -37 -251 -243 -315 -335 -103 -148 -170 -292
-207 -440 -24 -101 -40 -270 -28 -298 21 -47 -34 -45 1574 -45 835 0 1528 3
1541 7 31 10 44 40 43 101 -2 169 -58 364 -155 542 -42 76 -72 99 -117 89 -20
-5 -30 3 -65 51 -37 51 -40 59 -28 81 9 17 9 32 3 52 -9 26 -117 136 -182 187
-33 26 -29 38 19 58 84 35 250 158 347 257 268 273 396 622 385 1042 l-3 146
50 1 c27 0 57 2 65 3 8 2 42 6 75 10 288 30 487 187 549 433 23 88 26 113 30
253 4 120 -9 232 -34 285 -5 11 -18 42 -29 69 -22 52 -73 126 -124 183 -38 42
-41 68 -12 108 65 89 75 165 33 256 -70 151 -224 267 -435 328 -86 24 -114 29
-210 36 -43 4 -83 8 -90 10 -6 2 -13 2 -15 0z"/>
</g>
</svg>
