<?xml version="1.0" encoding="UTF-8"?><svg id="Capa_1" xmlns="http://www.w3.org/2000/svg" viewBox="0 0 1080 1080"><path d="M712.6,534.77c-1.98,8.21-5.52,15.45-12.58,20.58-5.92,4.3-12.61,6.07-19.86,6.11-.34,1.21-.65,2.22-.91,3.24-2.54,9.85-10.38,16.15-20.53,16.28-8.65,.11-17.29-.01-25.94,.04-16.46,.1-26.92,10.75-27.39,27.21-.44,15.79-1.01,31.6-2.25,47.35-.48,6.12-2.74,12.14-4.56,18.1-.98,3.21-1.21,6,.32,9.16,2.19,4.54,3.94,9.29,5.77,13.99,1.69,4.35,.39,8.02-3.18,9.34-3.47,1.29-6.66-.35-8.4-4.62-14.76-36.14-29.48-72.3-44.22-108.45-1.12-2.74-1.79-5.84,.75-7.71,2.06-1.51,5.05-1.77,7.62-2.58,.19,.39,.38,.78,.57,1.17,3.23-5.48,6.27-11.08,9.73-16.41,10.1-15.53,24.76-24.09,42.78-27.1,22.63-3.79,44.41,.44,65.91,7.25,2.1,.67,4.42,1.29,6.56,1.09,13.39-1.29,20.41-13.1,15.9-26.66-2.46-7.39-7.2-12.93-14.27-16.37-.95-.47-1.93-.9-2.84-1.44-3.2-1.91-4.3-5.08-2.87-8.13,1.41-3.01,4.68-4.36,8.07-3.03,10.54,4.14,18.1,11.47,22.51,21.88,1.38,3.26,2.23,6.75,3.32,10.14v9.58Zm-123.51,123.83c.35-.02,.7-.04,1.04-.06,.65-4.15,1.71-8.28,1.86-12.45,.47-12.74,.62-25.49,.84-38.24,.39-22.84,16.96-39.33,39.76-39.46,8.37-.05,16.75,.05,25.12-.03,6.52-.06,9.56-3.41,9.29-10.34-18.17-5.2-36.54-8.57-55.63-5.07-15.57,2.85-27.48,10.77-35.34,24.6-2.62,4.62-4.99,9.41-7.98,13.78-3.17,4.64-3.11,8.76-.89,13.93,7.6,17.65,14.65,35.54,21.91,53.34Z"/><path d="M324.49,654.87c7.97-7.91,16.31-14.85,26.13-19.83,26.01-13.2,52.29-13.53,78.74-1.37,3.7,1.7,5.1,5.28,3.63,8.52-1.4,3.07-4.82,4.43-8.47,2.83-9.83-4.3-19.94-6.99-30.76-7.53-34.84-1.74-68.5,23.89-75.45,58.15-3.97,19.57-2.45,38.7,7.13,56.59,7.79,14.55,20.48,23.44,35.52,29.32,18.9,7.4,38.76,9.09,58.76,9.27,26.88,.24,53.76,.07,80.64,.06,.91,0,1.81-.15,2.67-.22,1.04-6.71-.96-9.19-7.39-9.2-15.3-.03-30.61-.03-45.91,.01-3.34,0-6.48-.27-8.07-3.79-1.61-3.55,.46-5.99,2.54-8.55,18.31-22.51,26.48-47.64,19.27-76.55-2.18-8.73-6.15-16.68-11.44-23.97-.62-.86-1.28-1.71-1.82-2.62-1.97-3.37-1.32-6.86,1.59-8.8,2.79-1.87,6.39-1.5,8.43,1.67,4.02,6.23,7.97,12.57,11.2,19.22,2.52,5.19,3.93,10.91,5.83,16.4,7.14-1.96,17.85-9.64,23.73-17.08-3.74-4.89-7.65-9.75-11.27-14.81-2.16-3.01-1.53-6.55,1.06-8.57,2.54-1.98,6.14-1.61,8.65,.94,.65,.66,1.19,1.43,1.76,2.16,19.33,24.91,38.66,49.82,57.98,74.73,14.52,18.71,29.07,37.39,43.49,56.17,1.64,2.14,3.32,2.93,5.97,2.92,16.5-.11,33-.06,49.5-.06h3.82c1.25-10.35-5.66-19.65-15.41-20.58-6.34-.6-12.76-.5-19.14-.39-4.44,.08-7.23-1.55-8.87-5.78-3.35-8.67-7.13-17.18-10.37-25.89-.8-2.14-.94-5.15,0-7.1,.74-1.55,3.79-3.15,5.43-2.83,2.08,.41,4.57,2.38,5.49,4.33,3.32,7.09,6.15,14.41,8.97,21.73,.91,2.35,2.15,3.22,4.69,3.13,4.65-.16,9.34-.27,13.96,.18,17.43,1.68,29.88,16.62,28.06,35.64-.57,5.94-5.02,9.82-11.14,9.86-19.69,.11-39.39,.02-59.08,.07-4.96,.01-8.04-2.79-10.84-6.41-13.82-17.9-27.7-35.75-41.57-53.62-.88-1.14-1.8-2.24-2.25-2.79-9.69,4.74-18.76,9.8-28.3,13.7-16.6,6.79-34.13,8.83-52,8.4-5.72-.14-5.72-.02-8.54,6.04,1.38,.09,2.62,.24,3.86,.24,10.11,.02,20.23,.11,30.34-.01,17.09-.21,23.59,13.3,19.85,28.27-.59,2.34-4.03,4.12-6.42,5.79-.94,.66-2.59,.39-3.91,.39-32.6-.07-65.21,.27-97.8-.41-20.3-.43-40.15-4.16-58.67-13.25-26.4-12.96-40.64-34.48-43.55-63.3-2.96-29.28,1.49-58.02,10.71-85.69,29.25-87.75,88.49-144.97,177.3-171.16,21.41-6.31,43.5-8.76,65.82-8.82,2.47,0,3.72-.79,4.86-3,7.58-14.71,23.66-22.63,40.04-19.92,16.04,2.66,28.71,15.76,30.99,32.18,.36,2.58,1.11,4.37,3.97,5.11,2.94,.75,5.76,2.02,8.59,3.16,4.45,1.8,6.15,5.05,4.65,8.71-1.36,3.34-4.79,4.51-9.14,2.95-4.88-1.74-9.69-3.68-14.57-5.42-3.89-1.39-5.92-4.04-5.56-8.16,1.04-12.15-8.85-25.36-23.79-26.52-10.33-.81-21.14,5.75-25.23,15.96-2.84,7.08-3.43,7.52-11.17,7.48-58.13-.25-110.18,17.36-155.38,53.98-40.8,33.05-68.1,75.17-82.07,125.85-.17,.62-.19,1.28-.28,1.92Zm217.17,74.82c-11.07-14.25-21.79-28.05-32.68-42.08-8.56,8.52-17.63,15.35-28.49,19.59-.95,.37-1.75,2.43-1.76,3.71-.11,12.22-2.12,24.06-6.52,35.49-.41,1.05-.64,2.17-1.07,3.63,25.8,.52,49.05-5.77,70.52-20.33Z"/><path d="M621.69,476.19c.03,13.19-10.68,23.94-23.76,23.84-13.01-.1-23.51-10.63-23.56-23.65-.05-13.16,10.67-23.92,23.78-23.85,12.96,.07,23.52,10.68,23.55,23.66Zm-23.59-11.07c-6.22-.03-11.2,4.83-11.3,11.01-.1,6.23,5.18,11.55,11.37,11.45,6.06-.09,11.13-5.25,11.12-11.32-.01-6.12-5.02-11.11-11.18-11.14Z"/><path d="M505.65,556.27c.04,3.18-2.84,6.17-6.05,6.27-3.34,.11-6.46-3-6.37-6.34,.08-3.22,3.04-6.09,6.25-6.06,3.2,.02,6.14,2.95,6.18,6.14Z"/><path d="M409.85,585.5c-.1,3.29-2.94,6-6.26,5.98-3.47-.02-6.35-3.07-6.13-6.47,.21-3.34,3.04-5.87,6.43-5.75,3.32,.12,6.06,2.98,5.97,6.24Z"/><path d="M423.49,539.55c3.29,.01,6.14,2.81,6.19,6.06,.05,3.43-2.94,6.3-6.44,6.19-3.27-.1-6.07-3.02-5.99-6.24,.08-3.28,2.93-6.02,6.24-6.01Z"/><path d="M508.14,509.99c3.31-.03,6.18,2.7,6.28,5.97,.1,3.24-2.66,6.13-5.97,6.25-3.5,.13-6.52-2.73-6.49-6.14,.03-3.27,2.86-6.05,6.17-6.09Z"/><path d="M471.13,518.93c-.08,3.25-3,6.11-6.21,6.09-3.35-.03-6.34-3.22-6.14-6.56,.19-3.22,3.24-6.01,6.41-5.87,3.28,.15,6.02,3.07,5.94,6.34Z"/><path d="M467.55,556.49c-.08,3.39-2.83,6.1-6.15,6.06-3.48-.04-6.2-3.02-6.02-6.58,.17-3.35,3.04-6,6.34-5.84,3.36,.16,5.91,2.95,5.83,6.36Z"/><path d="M461.28,589.86c-.09,3.38-2.83,6.08-6.15,6.04-3.45-.04-6.24-3.06-6.05-6.56,.18-3.33,3.07-5.97,6.36-5.82,3.31,.15,5.92,2.99,5.83,6.34Z"/><path d="M607.78,478.2c-.02,3.22-2.91,6.12-6.13,6.16-3.38,.04-6.41-3.07-6.27-6.42,.14-3.25,3.08-6.03,6.33-5.95,3.26,.07,6.09,2.97,6.08,6.21Z"/></svg>