<?xml version="1.0" encoding="UTF-8"?><svg id="Capa_1" xmlns="http://www.w3.org/2000/svg" viewBox="0 0 1080 1080"><path d="M191,628.4c3.97-12.26,6.63-25.15,12.17-36.65,14.57-30.22,38.75-50.35,70.07-62.21,2.56-.97,6.02-3.54,6.36-5.78,4.91-31.93,21.73-55.65,48.77-72.29-2.19-10.71-5.08-21.21-6.39-31.9-8.36-68.36,33.71-131.26,100.36-150.16,5.22-1.48,7.8-3.72,9.81-8.92,17.62-45.58,51.46-71.57,99.33-79.11,57.82-9.1,116.74,27.61,134.13,82.2,.69,2.18,3.88,4.32,6.33,5.06,12.74,3.82,17.92,9.85,15.49,18.89-2.36,8.82-9.8,10.33-23.08,8.36-15.09-2.24-21.9-9.22-26.26-24.29-11.29-39.04-52.27-65.36-94.69-63.64-40.95,1.66-78.3,31.6-87.45,70.67-2.33,9.93-8.1,13.85-17.68,15.61-64.96,11.96-105.12,80.09-84.26,142.45,.43,1.29,1.01,2.53,.82,2.06,15.3,1,29.86,.3,43.69,3.16,39.01,8.05,68.5,40.62,74.62,79.91,.39,2.49,2.23,6.1,4.23,6.79,21.78,7.58,40.21,20.01,56.33,37.89,.22-2.8,.49-4.7,.49-6.6,.02-47.34-.08-94.68,.16-142.02,.02-5.03-1.81-7.26-6.07-9.24-24.18-11.28-48.29-22.74-72.33-34.31-9.73-4.68-12.46-14.06-6.72-21.66,4.34-5.76,10.85-7.05,18.75-3.34,19.53,9.17,39,18.49,58.5,27.74,2.25,1.07,4.54,2.06,7.73,3.5,0-11.22,0-21.56,0-31.9,0-9.75-.18-19.5,.08-29.24,.22-8.34,6.44-14.24,14.19-14.05,7.47,.18,13.25,5.96,13.56,14.01,.25,6.49,.07,12.99,.07,19.49,0,25.29,0,50.59,0,75.88v7.73c14.07-6.67,27.22-12.9,40.36-19.13,8.18-3.88,16.33-7.81,24.52-11.65,9.75-4.57,17.7-2.67,21.51,5.05,3.84,7.77,.38,15.34-9.31,19.98-22.82,10.9-45.59,21.92-68.59,32.43-6.19,2.83-8.83,5.9-8.71,13.24,.54,32.02,.23,64.04,.23,96.07,0,2.28,0,4.55,0,7.85,5.74-5.31,10.2-10.83,15.88-14.4,12.69-7.98,26.05-14.88,38.97-22.49,2.42-1.42,5.62-3.89,5.92-6.2,6.53-51.21,56.66-92.37,112.87-82.88,1.56,.26,3.17,.26,5.15,.41,7.11-19.38,8.47-38.96,4.75-58.98-.42-2.28-1.02-4.53-1.38-6.82-1.24-7.8,3.2-14.53,10.67-16.28,7.13-1.67,14.38,2.74,16.38,10.52,3.97,15.41,5.6,31.13,3.46,46.92-1.57,11.65-4.35,23.13-6.74,35.4,2.05,1.37,4.99,3.19,7.76,5.21,22.46,16.39,36.09,38.16,40.63,65.68,.42,2.52,2.96,5.82,5.3,6.72,45.46,17.47,73.92,49.09,82.55,97.54,.11,.62,.67,1.16,1.01,1.74v25.07c-.42,1.04-1.05,2.05-1.22,3.13-10.22,64.35-71.85,110.46-136.3,101.47-11.36-1.58-22.43-5.2-33.63-7.87v114.95c2.98,0,5.5,0,8.02,0,33.7,0,67.4-.04,101.1,.03,9.8,.02,16.25,6.05,15.93,14.46-.25,6.65-4.81,10.12-9.72,13.36H246.81c-8.29-5.65-11.1-10.97-9.27-17.49,2.05-7.28,7.45-10.36,18.25-10.36,33.01,0,66.01,0,99.02,0h7.51v-116.02c-2.34,.79-4.3,1.37-6.2,2.1-66.95,25.67-143.57-13.68-161.64-83.03-1.27-4.88-2.32-9.82-3.48-14.72,0-8.36,0-16.71,0-25.07Zm199.5,39.57c.62,.34,1.23,.67,1.85,1.01,2.47-2.76,4.88-5.58,7.44-8.27,2.72-2.86,5.48-5.69,8.41-8.33,6.29-5.67,13.8-5.92,19.46-.83,6.25,5.61,6.36,14.12-.25,20.91-11.17,11.48-22.67,22.64-33.94,34.04-5.08,5.14-4.38,9.71,1.88,13.19,18.73,10.4,38.61,13.72,59.86,10.46,43.63-6.68,78.99-46.18,78.96-88.72-.02-40.47-30.66-77.85-72.22-88.1-13.33-3.29-15.29-5.71-15.74-19.49-1.21-37.17-32.6-67.15-70.12-66.96-37.16,.19-68.18,30.24-69.26,67.11-.4,13.59-2.36,15.99-15.89,19.36-39.05,9.73-69.91,44.4-71.77,81.97-1.79,36.32,14.62,63.76,45.2,82.12,30.57,18.36,62.4,19.33,93.95,1.61,2.15-1.21,3.97-4.91,4.06-7.51,.43-11.82-.05-23.66,.31-35.49,.13-4.45-1.56-6.51-5.33-8.36-22.91-11.23-45.73-22.64-68.54-34.08-9.06-4.54-12.22-12.28-8.36-19.82,3.83-7.48,11.82-9.46,20.94-5,10.84,5.3,21.6,10.75,32.4,16.12,9.28,4.62,18.57,9.22,28.77,14.28,0-3.36,0-5.62,0-7.88,0-17.17-.08-34.34,.03-51.5,.06-9.35,6.01-15.63,14.25-15.43,7.97,.2,13.52,6.31,13.59,15.4,.12,15.08,.03,30.16,.03,45.24,0,14.31,0,28.63,0,42.94Zm343.2-28.73c8.57-4.26,16.2-8.05,23.82-11.85,13.08-6.52,26.08-13.2,39.26-19.52,7.65-3.67,15.53-.97,19.05,5.96,3.55,7,.96,14.48-6.57,18.83-1.81,1.04-3.71,1.91-5.58,2.84-21.59,10.77-43.14,21.61-64.82,32.21-3.81,1.87-5.4,3.99-5.28,8.4,.35,11.82,.32,23.67,0,35.49-.11,4.12,1.49,6.24,4.87,8.09,18.8,10.29,38.63,13.69,59.89,10.45,45.73-6.95,80.97-48.49,78.92-93.53-1.73-37.98-32.45-73.5-72.03-83.29-13.38-3.31-15.37-5.76-15.8-19.43-1.18-37.19-32.52-67.19-70.05-67.02-37.15,.16-68.22,30.21-69.33,67.05-.41,13.63-2.39,16.07-15.84,19.41-39.61,9.85-70.67,45.39-71.9,83.32-1.17,35.76,15.16,62.69,45.23,80.77,30.32,18.23,61.88,19.17,93.5,2.26,3.4-1.82,4.89-3.98,4.86-8.09-.21-26.91,.02-53.83-.28-80.74-.03-3.01-1.79-6.64-3.91-8.87-10.42-10.91-21.29-21.39-31.9-32.13-7.21-7.3-7.74-15.41-1.64-21.43,6.09-6,14.07-5.35,21.49,1.85,5.04,4.89,9.98,9.88,16.15,16,0-16.92-.04-31.94,.01-46.96,.03-10.23,5.26-16.56,13.67-16.72,8.65-.17,14.2,6.33,14.21,16.89,.04,30.39,.01,60.79,.01,91.18,0,2.48,0,4.96,0,8.56Zm-28.19,110.03c-55.29,20.88-102.28,8.22-143.07-32.87v148.36h143.07v-115.49Zm-171.62-32.95c-41.33,41.48-88.41,53.81-143.02,33.07v115.33h143.02v-148.4Z"/><path d="M726.71,303.98c7.43-.01,13.72,6.09,13.92,13.5,.21,7.67-6.19,14.23-13.88,14.25-7.69,.01-14.1-6.53-13.92-14.2,.18-7.42,6.44-13.53,13.87-13.55Z"/></svg>