<?xml version="1.0" encoding="UTF-8"?>
<svg id="Capa_1" xmlns="http://www.w3.org/2000/svg"
viewBox="0 0 595.28 841.89"><defs><style>.cls-1{fill:#fff;}</style></defs>
<path class="cls-1" d="M106,409.29c.97-7.14,1.78-14.31,2.94-21.43,11.79-71.99,68.14-133.74,138.92-151.61,60.37-15.24,115.85-4.42,166.03,32.68,4.56,3.37,5.42,7.89,2.38,11.56-2.68,3.25-6.85,3.29-11.08,.67-10.98-6.83-21.61-14.48-33.23-19.99-36.77-17.43-75.58-21.97-114.84-11.59-73.61,19.47-119.53,67.25-133.23,142.11-11.34,61.99,8.24,115.66,53.94,159.43,.69,.66,1.49,1.21,2.57,2.09,7.69-32.29,24.95-57.63,52.57-75.52,21.23-13.76,44.71-19.98,69.97-18.88,53.83,2.34,100.01,40.58,111.97,94.29,.96-.76,1.84-1.36,2.61-2.09,33.52-31.49,52.46-70.08,56.11-115.97,2.94-36.87-5.17-71.3-23.68-103.29-.37-.65-.77-1.28-1.11-1.95-2.12-4.14-1.11-8.3,2.51-10.43,3.65-2.14,7.98-1.13,10.29,2.87,3.37,5.82,6.7,11.69,9.53,17.78,49.39,106.5-6.41,230.97-118.72,264.91-12.92,3.91-26.13,6.37-39.61,7.32-1.09,.08-2.17,.42-3.25,.64h-23.95c-.96-.21-1.91-.54-2.88-.62-32.58-2.53-62.72-12.46-89.89-30.62-45.8-30.62-73.96-73.08-83.96-127.37-1.28-6.96-1.96-14.03-2.92-21.05,0-7.98,0-15.97,0-23.95Zm190.97,188.67c35.6-.27,67.82-9.56,97.13-28.66q7.85-5.12,5.63-14.5c-14.77-62.29-79.41-97.09-139.37-74.22-36.48,13.92-58.08,41.16-65.98,79.36-.64,3.11,.13,4.89,2.79,6.72,30.3,20.78,63.84,31,99.81,31.3Z"/>
<path class="cls-1" d="M297.48,443.72c-37.09-.06-67.27-30.38-67.22-67.52,.06-37.09,30.37-67.27,67.51-67.21,37.1,.06,67.28,30.36,67.22,67.51-.06,37.09-30.38,67.28-67.51,67.22Zm52.54-67.4c-.01-28.82-23.52-52.34-52.34-52.36-28.84-.02-52.4,23.44-52.45,52.24-.05,29,23.53,52.6,52.52,52.55,28.79-.05,52.28-23.61,52.27-52.43Z"/>
<path class="cls-1" d="M435.34,291.05c3.98,0,7.36,3.27,7.47,7.26,.11,4.12-3.32,7.65-7.44,7.66-4.13,0-7.56-3.51-7.47-7.63,.09-3.99,3.45-7.27,7.44-7.28Z"/>
</svg>