<?xml version="1.0" encoding="UTF-8"?><svg id="Capa_1" xmlns="http://www.w3.org/2000/svg" viewBox="0 0 1080 1080"><path d="M348,625.92c2.25-10.82,4.48-21.65,6.74-32.47,3.79-18.17,7.53-36.34,11.4-54.49,2.03-9.53,10.53-15.78,19.67-14.72,9.36,1.09,16.09,8.7,16.15,18.49,.07,13.84,.02,27.69,.02,41.53,0,1.31,0,2.63,0,4.7,9.47-6.37,19.64-5.86,30.33-5.67-.96-1.37-1.56-2.23-2.16-3.09-8.25-11.72-9.7-24.23-3.29-37.06,6.34-12.66,17.08-19.27,31.26-19.69,10.36-.31,20.74-.07,31.12-.08,1.21,0,2.43,0,4.84,0-4.18-4.1-7.62-7.44-11.02-10.81-4.35-4.31-8.68-8.62-12.99-12.97-3.19-3.22-3.51-6.28-1.01-8.83,2.5-2.55,5.67-2.31,8.84,.84,9.92,9.85,19.76,19.79,29.77,29.55,1.25,1.21,3.37,2.05,5.13,2.12,5.85,.26,11.72,.1,17.9,.1-3.39-14.51,.13-26.82,10.85-37.15-11.44-11.39-22.8-22.62-34.06-33.94-10.98-11.04-14.07-25.99-8.36-39.58,9.46-22.5,38.37-29.02,56.54-12.68,3.99,3.58,7.65,7.53,11.5,11.27,10.29,9.98,25.24,10.25,34.96,.64,9.78-9.66,9.75-25.05-.68-35.09-7.97-7.67-15.87-15.8-25.08-21.75-37.39-24.15-88.39-13.43-113.6,23.18-.56,.81-1.04,1.67-1.75,2.81,10.68,2.91,18.84,8.86,23.89,18.58,3.36,6.47,4.79,13.38,3.68,20.64-2.82,18.52-13.63,27.73-37.95,31.74,3.86,7.3,7.67,14.24,11.16,21.34,.97,1.96,1.67,4.54,1.2,6.54-.33,1.41-2.87,3.23-4.38,3.19-1.89-.05-4.4-1.34-5.51-2.89-7.63-10.7-12.68-22.6-15.06-35.51-9.59-52.23,22.83-100.62,74.82-111.78,3.52-.76,7.08-1.29,10.62-1.92,5.5,0,11,0,16.5,0,6.7,1.4,13.5,2.43,20.07,4.29,13.67,3.87,25.68,10.92,36.12,20.53,4.86,4.48,9.58,9.13,14.14,13.92,11.84,12.45,13.57,29.29,4.68,44.05-.31,.52-.6,1.05-1.34,2.34,3.23,2.98,6.47,6.07,9.85,8.98,.74,.64,2.01,.9,3.04,.93,3.62,.11,7.25-.03,10.87,.07,3.79,.1,6.14,2.34,6.13,5.63-.01,3.31-2.35,5.47-6.16,5.56-3.09,.07-6.18,.01-9.65,.01,0,3.44,.06,6.53-.02,9.61-.1,3.83-2.24,6.16-5.55,6.19-3.32,.04-5.51-2.29-5.67-6.06-.03-.75-.14-1.53,.01-2.24,2.16-9.89-3.66-15.71-10.9-21.07-7.14,4.73-15.11,7.04-23.91,6.24-8.56-.78-15.82-4.29-21.94-10.22-3.58-3.48-7.03-7.1-10.64-10.55-9.94-9.5-24.91-9.46-34.39,.02-9.36,9.35-9.76,24.42-.24,34.03,26.09,26.34,52.41,52.45,78.71,78.58,.91,.91,2.6,1.43,3.93,1.45,7.49,.14,14.99,.09,22.49,.06,15.11-.05,26.72,6.25,33.49,19.78,6.78,13.54,4.86,26.57-4.42,38.52-.22,.29-.39,.62-.99,1.6,4.07,0,7.71-.05,11.36,0,16.42,.26,30.18,10.97,34.25,26.75,2.75,10.66,.69,20.49-5.56,29.49-.7,1.01-1.46,1.97-2.69,3.62,2.99,0,5.4,0,7.81,0,21.13,0,33.58,9.69,38.69,30.1,.05,.22,.29,.39,.44,.59v9.73c-.23,.56-.55,1.1-.67,1.68-3.56,17.19-17.55,28.96-35.11,28.97-89.62,.07-179.24,.16-268.86-.05-35.73-.09-67.16-24.74-76.42-59.1-1.19-4.42-1.97-8.94-2.94-13.42,0-5.24,0-10.48,0-15.72Zm354.23,76.08c10.05-1.91,18.03-11.45,18.49-22.1,.61-14.16-10.38-25.5-24.97-25.52-39-.06-77.99-.02-116.99-.01-.95,0-1.91,.14-2.8,.21-3.76,23.88-15.5,36.5-34.42,37.16-8.69,.3-16.55-2.14-23.39-7.51-9.59-7.52-13.84-17.67-13.87-29.87h-4.45c-23.75,0-47.5,0-71.24,0-22.76-.01-37.85-15.03-37.86-37.69-.02-23.7,0-47.4,0-71.11,0-6.68-1.92-9.77-6.3-10.14-4.13-.35-6.58,2.4-7.89,8.66-5.14,24.63-10.4,49.24-15.45,73.89-5.62,27.43,2.23,50.45,23.21,69.01,1.44,1.27,3.05,2.34,4.64,3.55,9.23-18.35,22.02-27.02,37.86-24.69,21.04,3.09,31.12,16.47,32.52,36.95h170.99c3.19-23.65,15.67-36.82,35.04-37.18,19.98-.37,32.59,12.09,36.87,36.39Zm-29.95-62.98c6.87-4.85,10.44-11.11,10.88-19.02,.78-14.11-10.32-25.49-24.92-25.51-39.86-.06-79.73-.02-119.59-.01-.96,0-1.92,.15-2.83,.22-2.56,22.96-15.41,36.66-34.67,37.16-8.83,.23-16.76-2.38-23.6-7.97-9.19-7.5-13.25-17.46-13.36-29.27-15.5,0-30.74-.39-45.93,.25-4.26,.18-8.51,3.12-12.54,5.23-2.93,1.54-4.23,4.28-3.81,7.83,.32,2.71,.06,5.48,.06,8.22,.01,17.12,9.83,26.97,26.91,26.97,32.74,0,65.48,0,98.22,.01,4.41,0,6.92,2.09,6.92,5.59,0,3.52-2.48,5.58-6.89,5.62-3.71,.04-7.43,0-11.08,0-1.19,9.11,3.52,18.32,11.77,22.87,9.19,5.07,18.3,4.58,26.74-1.65,6.97-5.14,10.14-12.21,9.57-21.23-4.39,0-8.38,.02-12.36,0-3.11-.03-5.31-1.39-5.94-4.57-.76-3.86,1.89-6.61,6.47-6.62,14.75-.04,29.49-.02,44.24-.02,1.33,0,2.66,0,3.97,0,.53-24.65,18.32-36.26,33.15-37.33,19.27-1.4,33.17,10.41,38.61,33.22Zm-45.39-56.64c.78-.12,1.26-.14,1.7-.28,11.13-3.43,18.47-14.65,17.01-25.99-1.56-12.1-11.52-21.43-23.64-21.46-54.61-.11-109.22-.1-163.83,0-8.75,.02-15.63,4.13-20.21,11.57-4.83,7.85-5.09,16.11-.68,24.19,4.56,8.34,11.87,12.75,21.4,12.78,31.49,.11,62.98,.04,94.48,.04,.71,0,1.43-.12,2.07-.18,3.61-23.92,15.57-36.68,34.68-37.2,8.7-.24,16.53,2.28,23.32,7.69,9.17,7.31,13.37,17.12,13.69,28.83Zm-178.24-142.54c9.12,1.35,16.79-1.05,22.75-7.79,6.49-7.33,8.1-15.9,4.5-25.03-3.36-8.53-9.92-13.49-18.94-15.08-.75-.13-2.18,.65-2.49,1.36-6.48,14.84-8.29,30.28-5.82,46.54Zm166.87,143.19c-.01-9.94-3.66-17.61-12.03-22.52-8.64-5.07-17.5-4.82-25.84,.69-7.63,5.05-11.19,12.39-10.75,21.83h48.61Zm-139.97,11.6c-.01,9.89,3.63,17.53,11.92,22.47,8.72,5.19,17.68,4.93,26.09-.71,7.57-5.08,11.04-12.42,10.67-21.76h-48.69Zm136.67,48.21h48.29c1.09-13.99-10.17-25.93-24.16-25.92-14,0-25.16,11.87-24.13,25.92Zm78.41,59.99c-.03-10.3-3.94-18.11-12.68-22.92-8.88-4.88-17.84-4.29-26.05,1.65-7.12,5.14-10.43,12.28-9.83,21.28h48.56Zm-243.2,.08c1.03-11.94-7.07-22.8-18.6-25.43-12.04-2.74-24.04,3.76-28.4,15.17-1.14,2.98-.57,4.23,2.47,5.49,14.34,5.91,29.33,4.88,44.53,4.77Zm129.75-179.57c-9.4-9.39-18.83-18.83-28.3-28.29-7.24,6.09-10.27,16.53-6.93,25.6,.4,1.1,1.86,2.56,2.85,2.57,10.94,.18,21.89,.12,32.38,.12Z"/><path d="M579.44,394.78c0-1.61-.13-3.24,.03-4.83,.34-3.36,2.48-5.35,5.6-5.24,3.22,.11,5.18,1.87,5.38,5.04,.21,3.33,.22,6.7-.03,10.03-.24,3.2-2.38,4.92-5.52,4.88-3.15-.04-5.08-1.87-5.41-5.05-.17-1.59-.03-3.22-.03-4.83,0,0-.02,0-.02,0Z"/></svg>