<?xml version="1.0" encoding="UTF-8"?><svg id="Capa_1" xmlns="http://www.w3.org/2000/svg" viewBox="0 0 1080 1080"><path d="M803.79,412.29c-3.6,6.47-9.02,8.96-16.45,8.49-7.57-.47-15.2-.1-23.56-.1,0,2.81,.06,5.14,0,7.47-.71,24.86-.13,49.84-2.6,74.53-1.69,16.96-7.33,33.57-11.79,50.18-1.93,7.17-8.79,10.3-15.11,8.18-6.53-2.18-10.16-8.5-7.57-15.46,12.33-33.25,13.59-67.79,13.01-102.65-.35-21.07,.01-42.15-.09-63.23-.15-32.46-18.58-60.4-47.69-72.52-29.36-12.22-61.73-5.67-85.02,17.44-25.38,25.19-50.63,50.52-75.93,75.8-1.13,1.12-2.19,2.31-3.55,3.75,36.4,42.72,52.47,92.06,46.77,147.69-5.7,55.55-32.46,99.92-75.86,134.57,.59,.63,.83,1.12,1.09,1.13,36.48,1.4,72.24-1.84,106.34-16.22,22.03-9.29,42.14-21.58,60.08-37.38,1.36-1.2,2.7-2.41,4.13-3.52,5.83-4.52,12.9-4.09,17.27,1.01,4.45,5.2,3.98,12.05-1.6,17.19-15,13.81-31.54,25.47-49.57,35.02-1.7,.9-3.33,1.92-4.82,4.08,2.09,0,4.17,0,6.26,0,50.27,0,100.54,.09,150.82-.09,7.25-.03,12.49,2.18,15.46,8.93v7.23c-4.02,6.45-9.93,8.17-17.33,8.14-50.85-.21-101.71-.11-152.56-.11-2.26,0-4.51,0-6.77,0,4.48,6.27,9.83,10.61,14.08,15.84,6.96,8.57,15.08,11.58,26.4,11.37,28.65-.53,53.49,19.96,58.89,48.05,1.98,10.31,1.46,21.15,1.53,31.75,.05,8.02-4.8,12.41-13,12.56-6.83,.13-13.68,.27-20.5-.09-19.12-1.03-34.72-9.04-46.53-24.17-9.29-11.9-13.41-25.64-12.58-40.48,.46-8.21-2.22-13.81-8.13-19.26-10.92-10.06-21.26-20.77-31.6-31.43-2.89-2.98-5.8-4.23-9.97-4.21-39.8,.14-79.6,0-119.39,.21-3.81,.02-7.97,1.1-11.37,2.84-21.41,10.92-43.83,18.94-67.39,23.56-5.04,.99-8.79,3.05-12.32,6.61-19.93,20.11-39.96,40.13-60.09,60.04-22.12,21.87-48.77,30.47-79.37,25.13-19.88-3.47-37.25-12.19-49.78-28.77,0-2.41,0-4.82,0-7.23,2.72-3.17,5.25-6.52,8.19-9.47,16.85-16.95,33.8-33.79,50.71-50.68,1.4-1.4,2.72-2.87,4.55-4.81-6.17-2.56-11.93-4.73-17.49-7.32-7.63-3.55-15.26-7.18-22.63-11.24-8.41-4.63-9.54-13.01-3.12-20.11,.67-.74,1.41-1.43,2.12-2.14,127.07-126.85,254.1-253.74,381.24-380.52,38.13-38.02,95.77-41.2,136.84-7.77,18.4,14.98,29.88,34.29,35.21,57.38,.67,2.92,2.25,6.02,4.32,8.17,10.03,10.41,20.43,20.47,30.58,30.77,2.64,2.68,4.87,5.77,7.28,8.67v7.23ZM235.02,695.79c.64,.87,.8,1.32,1.11,1.47,2.52,1.23,5.01,2.56,7.62,3.57,91.32,35.19,175.12,22.12,249.12-41.86,60.45-52.27,75.45-135.71,39.2-205.3-5.94-11.4-13.82-21.78-21.52-33.73-4.4,7.03-11.88,8.92-10.7,17.68,8.77,65.35-10.58,121.6-57.86,167.27-51.03,49.29-112.82,73.14-183.94,72.65-1.9-.01-4.4,.06-5.62,1.17-6.01,5.52-11.68,11.4-17.4,17.08Zm45.36-43.06c-.29-.03,.26,.13,.8,.08,41.27-3.58,79.18-16.74,113.4-40.07,43.73-29.8,73.46-69.09,81.43-122.51,1.72-11.51,1.74-23.27,2.56-35.32-66.81,66.68-132.65,132.4-198.19,197.82Zm-64.25,143.99c25.42,16.67,57.91,13.95,79.6-6.66,14.97-14.22,29.33-29.09,43.95-43.68,.61-.6,1-1.42,.7-.98-20.26-2.62-40.65-5.35-61.08-7.77-1.95-.23-4.64,.96-6.12,2.39-9.39,9.04-18.53,18.33-27.76,27.54-9.64,9.61-19.28,19.2-29.3,29.17Zm487.25,9.95c5.03-28.54-21.68-48.71-43.65-42.91-2.41,27.03,18.14,47.23,43.65,42.91Z"/><path d="M677.83,400.25c-6.41-.27-11.65-5.82-11.51-12.2,.14-6.59,6.04-12.12,12.58-11.79,6.43,.32,11.58,5.84,11.45,12.26-.14,6.72-5.79,12.01-12.53,11.72Z"/><path d="M713.09,585.94c6.42-.17,12.03,5.14,12.26,11.6,.24,6.58-4.82,12.06-11.39,12.34-6.84,.3-12.56-5.02-12.64-11.77-.08-6.36,5.38-12.01,11.77-12.18Z"/></svg>