<?xml version="1.0" encoding="UTF-8"?><svg id="Capa_1" xmlns="http://www.w3.org/2000/svg" viewBox="0 0 1080 1080"><path d="M637.53,203c7.64,1.84,15.47,3.13,22.89,5.63,14.41,4.86,25.41,13.44,29.07,29.3,.32,1.4,2.95,2.88,4.73,3.24,8.14,1.66,16.56,2.24,24.53,4.47,32.54,9.12,43.04,36.76,25.29,65.57-11.92,19.35-28.78,33.7-47.58,45.72-39.94,25.53-83.22,42.26-130.57,47.64-3.45,.39-4.82,1.53-5.03,5.23-.32,5.41-1.54,10.77-2.45,16.61,9.18,1.57,18.58,2.91,27.85,4.81,59.12,12.12,108.03,41.62,147.28,87.24,19.29,22.42,36.53,46.27,49.57,72.99,12.01,24.61,19.56,50.36,20.29,77.84,.12,4.33,1.61,6.26,5.53,7.95,22.37,9.69,35.13,34.34,31.04,59.22-3.78,23.03-24.15,41.93-47.24,44.57-11.56,1.32-22.16-.75-32.49-5.79-1.64-.8-4.8-.51-6.22,.6-23.59,18.57-50.13,29.51-79.97,33.55-8.75,1.18-16.79,6.9-25.43,9.71-24.66,8.03-49.88,12.59-75.63,6.57-9.74-2.28-19.61-5.97-28.1-11.16-19.97-12.21-23.23-37.16-8.43-56.94,2.18-2.92,4.7-5.63,7.32-8.17,6.93-6.7,7.04-7.41,.61-16.43-4.34,4.61-8.6,9.11-12.85,13.63-20.06,21.37-42.54,39.69-68.47,53.49-19.22,10.23-39.48,17.35-61.49,17.93-14.6,.38-28.27-3.07-39.91-12.46-14.49-11.69-17.41-32.77-7.5-52.38,7.88-15.59,19.71-27.77,33.04-38.68,2.98-2.44,6.05-4.76,9.35-7.35-42.35-55.78-53.12-115.4-22.53-180.1-11.43-3.82-22.72-7.05-33.59-11.35-17.34-6.85-33.21-16.22-46.42-29.69-21.73-22.15-26.85-48.57-14.01-76.75,4.7-10.32,10.55-20.14,16.25-29.97,4.01-6.92,10.41-8.74,15.85-5.21,5.25,3.4,5.83,9.27,2.19,16.16-5.68,10.74-11.57,21.42-16.42,32.54-8.15,18.68-2.06,34.53,11.41,48.29,13.1,13.38,29.27,21.84,46.68,27.97,34.34,12.1,69.14,14.44,104.17,3.27,40.55-12.93,65.28-41.21,76.93-81.44,1.99-6.89,2.37-14.36,2.7-21.6,.47-10.32,2.86-13.9,12.97-14.62,34.76-2.45,67.57-12.03,98.85-26.9,25.29-12.03,49.37-26.17,67.41-48.27,4.89-5.99,8.65-13.25,11.46-20.49,2.95-7.63,.28-14.26-6.95-18.18-5.78-3.13-12.27-5.6-18.73-6.74-21.14-3.74-42.21-1.78-62.96,3.12-37.55,8.86-72.66,23.46-104.2,45.98-5.62,4.01-10.9,4.09-16.26,.09-28.22-21.06-59.1-21.53-91.15-11.51-30.66,9.59-56.73,27.02-80.49,48.22-2.28,2.03-4.39,4.25-6.66,6.29-6.01,5.42-12.29,5.73-16.68,.9-4.27-4.7-3.71-10.86,2.02-16.13,7.64-7.02,15.27-14.1,23.44-20.47,26.77-20.85,55.99-36.83,89.66-43.63,2.23-.45,4.58-1.76,6.25-3.34,25.44-24,55.45-40.33,87.93-52.47,24.28-9.08,49.17-15.62,75.17-17.33,.76-.05,1.5-.53,2.25-.81,8.14,0,16.29,0,24.43,0Zm144.88,470.81c-.06-19.17-3.93-37.56-10.68-55.41-8.77-23.22-21.73-44.03-36.36-63.94-30.67-41.76-68.7-74.49-117.54-92.81-18.69-7.01-38.66-10.67-58.11-15.6-6.16-1.56-9.72,1.23-12.6,7.23-16.25,33.8-42.65,56.38-78.03,68.47-21.66,7.4-44.04,9.41-66.79,8.55-2.23-.08-5.75,.75-6.6,2.3-15.07,27.35-21.57,56.46-16.34,87.57,4.76,28.33,16.62,53.66,35.64,75.07,13.13,14.78,8.52,19.63-4.1,28.1-14.28,9.59-27.12,20.83-35.96,35.94-11.69,19.97-3.67,35.41,19.38,37.43,.41,.04,.81,.04,1.22,.07,18.28,1.52,35.03-3.8,50.98-11.96,34.26-17.52,62.04-42.99,86.88-71.92,1.37-1.59,1.49-4.83,1.18-7.18-1.03-7.84-3.09-15.58-3.72-23.44-2.11-26.18,3.25-50.97,15.14-74.33,3.2-6.29,9.32-8.23,14.81-5.27,5.68,3.07,6.86,9.03,2.99,17.07-12.86,26.75-15.62,54.52-7.94,83.13,4.79,17.82,12.43,34.32,28.93,44.38,12.11,7.39,24.85,13.77,37.5,20.25,7.83,4.01,11.04,9.09,8.49,15.12-2.65,6.27-8.97,8.3-17.09,4.24-13.61-6.81-27.13-13.88-40.21-21.65-10.13-6.02-10.13-6.54-17.96,2.46-1.33,1.53-2.56,3.18-3.63,4.9-5.74,9.22-4.43,17.81,4,24.21,2.7,2.05,5.91,3.65,9.12,4.77,31.82,11.05,62.06,4.15,91.83-8.22,5.18-2.15,10.54-4.45,16.02-5.2,28.71-3.92,53.92-15.2,74.91-35.19,22.54-21.47,34.92-47.62,34.64-79.14ZM480.36,273.31c.24,.54,.49,1.08,.73,1.62,15.53,1.98,30.21,6.53,43.4,15.05,3.65,2.36,6.15,2.15,9.73-.22,33.11-21.87,69.13-36.76,108.17-44.11,8.48-1.6,17.04-2.83,26.09-4.32-3.15-8.46-10.03-11.45-17.23-13.6-15.5-4.63-31.46-4.11-47.19-2.15-33.6,4.19-65.29,14.85-95.15,30.73-9.77,5.2-19.05,11.31-28.55,17Zm293.32,484.1c14.89,7.22,35.34,.42,43.13-17.13,7.03-15.84,.16-35.48-14.95-41.99-4.77,21.88-14.05,41.64-28.18,59.12Z"/><path d="M400.52,377.59c10.19-.13,18.35,7.82,18.41,17.93,.06,10.02-8.19,18.37-18.15,18.35-9.72-.01-17.9-8.01-18.2-17.77-.3-9.93,7.88-18.38,17.93-18.51Z"/><path d="M632.66,554.86c-1.28,1.52-3.22,5.26-6.3,7.17-9.11,5.63-18.64,10.58-28.05,15.71-5.18,2.82-11.18,1.64-14.16-2.63-3.25-4.65-2.73-11.39,2.41-14.57,10.3-6.36,20.86-12.45,31.83-17.52,6.91-3.19,14.06,2.25,14.27,11.84Z"/></svg>