<?xml version="1.0" encoding="UTF-8"?><svg id="Capa_1" xmlns="http://www.w3.org/2000/svg" viewBox="0 0 1080 1080"><path d="M571.3,744.6c-6.54-1.03-13.08-2.01-19.61-3.1-34.04-5.66-66.16-17.15-97.04-32.23-18.79-9.17-37.16-19.17-54.12-31.51-20.51-14.92-35.01-34.36-43.71-58.13-1.6-4.36-.47-7.81,2.94-9.05,3.56-1.3,6.58,.29,8.24,4.8,6.02,16.37,14.76,31.16,27.88,42.67,9.15,8.03,19.17,15.31,29.6,21.6,36.11,21.76,74.33,38.75,115.77,47.65,14.04,3.01,28.21,6.46,42.7,4.73,20.68-2.47,34.74-13.99,41.9-33.42,8.36-22.7,13.07-46.24,15.11-70.33,.07-.79,.12-1.6,.27-2.38,.78-4.19,3.12-6.27,6.64-5.93,3.53,.33,5.46,2.86,5.21,7.15-.19,3.32-.6,6.62-.96,9.93-2.75,24.81-7.46,49.27-17.85,72.05-9.28,20.35-26.08,31.65-48.28,34.86-.91,.13-1.8,.42-2.69,.64h-12.01Z"/><path d="M353.61,550.96c-8.77-.44-17.11-.83-25.45-1.28-1.19-.06-2.38-.33-3.54-.63-3.56-.93-5.3-3.39-4.84-6.69,.45-3.21,2.99-5.22,6.62-4.96,4.91,.35,9.82,1.28,14.71,1.21,5.29-.08,10.58-.92,15.84-1.67,1.09-.16,2.49-1.14,2.97-2.12,4.96-9.97,11.39-18.87,19.95-27.15-2.7-.56-4.81-.95-6.91-1.44-13.38-3.11-25.14-9.42-35.59-18.18-2-1.67-3.65-1.98-6.07-1.21-16.59,5.29-30.06,15.25-41.86,27.68-2.99,3.15-2.31,6.6,1.7,8.88,4.16,2.37,8.5,4.41,12.77,6.59,4.21,2.15,5.69,5.29,4.06,8.61-1.65,3.35-5,4.24-9.29,2.17-4.56-2.19-9.1-4.44-13.48-6.95-11.3-6.47-12.84-19.32-3.54-28.48,14.76-14.54,15.78-15.24,42.72-29.19-4.01-5.26-8.22-10.34-11.93-15.76-6.77-9.86-2.97-21.98,8.08-26.27,3.97-1.54,8-2.96,12.1-4.08,21.47-5.87,42.82-6.7,63.87,1.95,.45,.19,.99,.16,2.04,.32-7.97-11.12-15.65-21.8-23.29-32.49-.92-1.29-1.86-2.61-2.56-4.03-1.45-2.98-.55-5.54,2.06-7.3,2.47-1.67,5.08-1.47,7.3,.66,.95,.91,1.76,1.99,2.53,3.07,7.15,9.94,14.28,19.9,21.43,29.84,.73,1.02,1.56,1.98,2.66,3.37,.3-6.22,.28-11.88,.9-17.47,2.42-21.98,12.67-40.41,26.85-56.81,7.37-8.52,19.72-7.64,26.68,1.54,3.93,5.18,7.36,10.74,11.32,16.58,1-1.07,2.07-2.13,3.05-3.28,10.83-12.76,24.51-21.62,39.57-28.46,11-4.99,22.41,1.14,24.58,12.98,.91,4.96,1.6,9.97,2.26,14.98,.63,4.73-1.5,7.94-5.3,8.31-3.57,.35-5.94-2.18-6.62-6.9-.7-4.87-1.33-9.75-2.3-14.57-.81-4-3.81-5.55-7.52-3.88-15.79,7.12-29.64,16.75-40.01,30.9-1.41,1.93-1.7,3.51-.84,5.8,1.59,4.22,2.83,8.58,4.01,12.93,1.13,4.18-.45,7.3-3.94,8.33-3.38,.99-6.55-.9-7.61-5.16-3.61-14.54-10.11-27.64-18.99-39.66-4.07-5.51-6.9-5.66-11.23-.31-11.61,14.31-20.13,30.06-22.19,48.67-2.26,20.46,4.15,38.47,16.01,55.45,2.24-1.58,4.17-2.92,6.08-4.28,6.94-4.95,13.61-10.34,20.9-14.73,5.93-3.57,7.93-8.9,9.34-14.9,.61-2.59,.95-5.24,1.61-7.81,.95-3.7,3.72-5.53,7.06-4.86,3.19,.63,5.07,3.59,4.62,7.31-.2,1.67-.42,3.34-.59,4.63,8.02-2.51,15.86-4.96,23.7-7.4,.76-.24,1.57-.56,2.33-.5,7.11,.5,10.62-3.76,12.59-9.7,2.29-6.91,4.37-13.9,6.27-20.92,1.19-4.39,3.35-6.6,6.92-6.22,3.75,.41,6.05,3.46,4.97,8-1.81,7.59-4.22,15.05-6.46,22.53-.44,1.48-1.27,2.85-1.86,4.16,7.7,1.46,15.31,2.27,22.54,4.37,41.07,11.89,68.63,38.6,82.09,78.67,10.52,31.31,14.26,64.03,14.63,97.06,.05,4.14-2.16,6.76-5.59,6.98-3.35,.21-5.98-2.21-6.27-6.32-.79-11.14-1.07-22.33-2.16-33.44-2.14-22.01-5.28-44.04-13.47-64.61-15.68-39.38-44.42-63.63-87.17-69.43-21.05-2.86-40.5,2.36-57.85,14.69-28.45,20.22-56.99,40.31-85.15,60.93-21.37,15.64-32.36,37.3-34.1,63.59-.39,5.95,.06,11.95,.12,17.92,.05,4.8-1.97,7.42-5.76,7.48-3.75,.06-5.88-2.5-6.26-7.21-1.06-13.09-.57-26.04,3.02-38.77,.17-.62,.13-1.3,.16-1.62Zm73.86-78.45c-12.77-18.17-29.14-29.93-50.78-33.82-17.89-3.22-34.95,.3-51.63,6.55-4.26,1.59-5.38,5.25-2.29,8.94,6.64,7.93,13.06,16.2,20.66,23.16,13.37,12.25,29.3,19.18,47.86,18.69,1.65-.04,3.57-.38,4.87-1.28,10.37-7.22,20.62-14.61,31.31-22.23Z"/><path d="M563.33,553.37c-.07-4.82,2.6-6.79,7.16-5.31,5.75,1.87,11.86,10.29,11.79,16.23-.06,4.75-2.88,6.7-7.43,5.13-5.54-1.91-11.43-10.13-11.52-16.06Z"/><path d="M622.92,631.76c0,5.08-2.77,6.98-7.55,5.18-5.73-2.16-11.28-10.1-11.28-16.14,0-4.71,2.51-6.57,6.95-5.18,5.76,1.81,11.9,10.14,11.89,16.14Z"/><path d="M509.21,582.46c-.07,4.91-2.65,6.71-7.29,5.08-6.08-2.13-11.78-10.47-11.48-16.77,.2-4.23,2.59-5.9,6.69-4.67,6.04,1.81,12.16,10.09,12.08,16.36Z"/><path d="M583,472.94c.08-4.69,2.59-6.52,7-5.11,6.17,1.98,12.11,10.57,11.74,16.98-.23,4.05-2.5,5.71-6.39,4.66-6.21-1.68-12.46-10.04-12.35-16.54Z"/><path d="M444.19,540.01c-.06,4.93-2.59,6.68-7.27,5.01-5.95-2.12-11.58-10.19-11.43-16.39,.12-4.64,2.66-6.41,7.11-4.95,5.81,1.91,11.66,10.15,11.59,16.32Z"/><path d="M451.42,668.72c-.05,4.9-2.65,6.72-7.27,5.08-6.12-2.17-11.74-10.43-11.42-16.79,.21-4.27,2.52-5.88,6.66-4.66,6.02,1.77,12.09,10.03,12.02,16.37Z"/><path d="M577.57,690.28c.06-4.76,2.47-6.53,6.94-5.1,6.1,1.95,11.93,10.15,11.76,16.54-.12,4.68-2.62,6.38-7.11,4.85-5.93-2.03-11.67-10.09-11.59-16.28Z"/><path d="M524.39,494.21c0,5.07-2.72,6.95-7.51,5.21-5.65-2.05-11.28-10.12-11.27-16.15,0-4.81,2.73-6.71,7.3-5.11,5.6,1.96,11.48,10.19,11.48,16.04Z"/><path d="M533.72,668.02c-.01,4.66-2.54,6.56-6.94,5.21-6.29-1.93-12.37-10.93-11.74-17.36,.38-3.88,2.51-5.35,6.27-4.33,6.23,1.68,12.43,9.92,12.41,16.48Z"/><path d="M417.79,606.09c-.02,4.91-2.54,6.73-7.17,5.18-5.87-1.97-11.62-10.1-11.54-16.31,.06-4.68,2.56-6.5,7-5.11,5.75,1.8,11.74,10.11,11.72,16.24Z"/></svg>