<?xml version="1.0" encoding="UTF-8"?><svg id="Capa_1" xmlns="http://www.w3.org/2000/svg" viewBox="0 0 1080 1080"><path d="M732,419.25c-1.05,3.7-1.46,7.76-3.29,11.01-3.1,5.48-6.47,11.06-10.82,15.53-22.64,23.3-45.64,46.26-68.49,69.36-1.49,1.5-2.91,3.11-4.15,4.82-17.52,24.17-34.97,48.4-52.56,72.52-1.69,2.32-1.67,3.87-.12,6.2,7.05,10.61,13.98,21.3,20.79,32.06,4.72,7.45,11.34,11.14,20.09,11.9,4.12,.36,8.12,2.05,12.21,2.98,1.2,.28,2.63,.38,3.75-.01,2.34-.83,4.49-2.18,6.81-3.09,3.84-1.51,7.83,.06,9.54,3.56,1.75,3.57,.56,7.55-3.01,9.74-1.78,1.09-3.69,1.97-5.55,2.94v1.02c1.29,.23,2.57,.66,3.86,.67,8.62,.07,17.25-.04,25.87,.11,4.49,.08,7.45,3.11,7.55,7.19,.1,4.04-2.82,7.18-7.18,7.65-.99,.11-2,.07-3,.07-7.75,0-15.5-.02-23.25,.02-1.24,0-2.47,.3-3.71,.47-.07,.35-.13,.71-.2,1.06,1.23,.68,2.44,1.4,3.7,2.02,4.48,2.19,9.02,4.29,13.47,6.53,4.56,2.29,6.14,6.51,4.09,10.53-1.94,3.8-6.11,5.01-10.65,2.9-6-2.79-11.91-5.75-17.91-8.53-1.02-.47-2.6-1.03-3.37-.58-8.96,5.18-18.45,3.89-27.77,2.02-19.29-3.87-34.84-13.9-46.5-29.8-5.17-7.05-10.18-14.21-15.55-21.71-16.99,16.81-37.16,27.25-61,31.13,.62,2.15,.92,4.28,1.89,6.03,.46,.84,2.2,1.34,3.37,1.35,8.25,.11,16.5,0,24.74,.09,4.89,.05,7.87,2.38,8.45,6.29,.73,4.91-2.47,8.57-7.86,8.64-9,.11-18,.02-26.99,.05-1.27,0-2.53,.21-3.8,.32-.09,.37-.17,.74-.26,1.11,3.73,2.1,7.61,3.99,11.13,6.39,1.82,1.24,3.56,3.21,4.34,5.23,1.1,2.87,0,5.69-2.56,7.63-2.53,1.91-5.32,2.13-8.1,.63-4.72-2.55-9.35-5.27-14.09-7.8-1-.53-2.5-1.05-3.42-.69-8.44,3.34-17.14,2.23-25.56,.87-52.72-8.5-87.75-38.11-104.63-88.87-1.87-5.63-2.9-11.55-4.31-17.34,0-3.75,0-7.5,0-11.25,.64-2.4,1.19-4.82,1.92-7.19,8.11-26.4,38.18-38.62,62.42-25.37,1.3,.71,2.58,1.45,4.12,2.31,.59-1.25,1.15-2.31,1.62-3.41,18.17-42.65,45.19-78.65,81.16-107.9,1.89-1.54,4.6-2.73,6.98-2.84,3.21-.14,5.51,2.14,6.43,5.34,.98,3.43-.5,6.01-3,8.27-7.97,7.2-16.24,14.11-23.76,21.75-24.32,24.68-42.72,53.3-55.77,85.39-.9,2.21-.35,3.2,1.4,4.54,13.75,10.46,29.07,15.92,46.47,16.4,24.98,.69,43.57,20.3,42.3,44.4-.31,5.99-2.37,11.88-3.58,17.58,5.98-.72,22.56-12.05,30.96-21.72-3.4-4.77-6.86-9.62-10.31-14.48-2.67-3.77-5.43-7.49-7.97-11.34-10.39-15.74-8.63-35.39,4.65-48.8,11.69-11.81,23.56-23.46,35.58-34.93,15.42-14.71,39.1-10.95,49.45,7.62,.41,.74,.88,1.46,1.52,2.53,2.23-3.05,4.4-5.76,6.29-8.66,10.44-15.98,25.16-28.03,38.21-41.6,14.38-14.95,29.21-29.46,43.71-44.3,7.59-7.77,10.12-17.14,6.92-27.61-3.1-10.14-10.06-17.04-20.45-18.7-7.54-1.21-15.42-.24-23.15-.21-.99,0-2,.13-2.98,.32-6.3,1.16-11.37,.06-16.69-4.55-10.22-8.85-26.31-3.99-31.22,8.78-1.55,4.04-4,6.25-7.98,7.57-16.4,5.46-31.96,12.79-46.7,21.83-2.97,1.82-5.99,2.55-9.13,.47-2.68-1.77-4.07-4.46-3.09-7.4,.72-2.15,2.36-4.49,4.26-5.68,14.1-8.85,29.05-16.04,44.74-21.63,2.71-.96,4.54-2.31,6.02-4.97,10.31-18.64,34.63-24.05,51.69-11.5,2.57,1.89,4.94,2.28,7.92,2.1,7.48-.45,14.99-1.06,22.45-.75,20.34,.83,36.32,15.15,39.95,35.19,.1,.58,.44,1.12,.66,1.68v10.5Zm-259.42,238.98c4.32-.53,8.77-.54,12.92-1.68,12.78-3.5,21.3-16.29,19.83-29.09-1.65-14.33-12.79-24.76-27.64-24.97-20.35-.3-38.4-6.7-54.54-18.93-5.27-4-10.57-8-16.15-11.54-10.1-6.41-20.65-6.59-30.75-.25-9.99,6.28-14.66,15.89-12.95,27.53,4.08,27.78,16.88,51.01,38.53,69.02,20.23,16.83,43.72,25.13,70.02,25.41,7.14,.08,12.02-5.35,11.11-12-.74-5.38-5.2-8.86-11.58-8.95-29.02-.38-52.99-11.62-72.12-33.36-5.12-5.82-10.27-11.6-15.41-17.39-3.82-4.3-4.09-8.78-.72-11.89,3.48-3.22,7.96-2.49,11.98,2.01,5.16,5.77,10.35,11.53,15.43,17.38,16.38,18.83,37.08,28.14,62.04,28.71Zm64.25-77.6c1.59,4.25,2.4,9.05,4.91,12.66,14.54,20.92,29.1,41.84,44.42,62.19,11.31,15.03,27.24,22.25,46.02,22.94,6.61,.24,11.38-4.07,11.55-10.14,.16-5.91-3.88-10.39-10.17-10.66-14.96-.64-25.92-7.51-33.79-20.19-9.02-14.53-18.52-28.76-27.8-43.13-3.41-5.28-3.09-8.08,1.38-12.53,9.83-9.78,19.75-19.48,29.5-29.35,6.6-6.68,6.6-16.84,.26-23.23-6.47-6.53-16.39-6.7-23.21-.1-11.77,11.38-23.41,22.88-35.05,34.39-4.65,4.59-6.99,10.24-8.02,17.14Z"/><path d="M667.5,426.34c.06,13.25-10.82,24.17-24.02,24.13-13.06-.05-23.87-10.83-23.93-23.88-.06-13.29,10.71-24.04,24.05-24.02,13.2,.03,23.84,10.61,23.9,23.77Zm-23.82-8.74c-5.07-.07-9.15,3.92-9.12,8.91,.03,4.8,4.01,8.82,8.83,8.91,4.96,.09,9.12-4.02,9.1-8.99-.02-4.88-3.89-8.76-8.81-8.82Z"/><path d="M532.99,441.09c-4.15-.03-7.32-3.23-7.33-7.39-.01-4.06,3.28-7.46,7.29-7.53,4.07-.07,7.73,3.61,7.62,7.67-.11,4.04-3.49,7.27-7.58,7.24Z"/></svg>