<?xml version="1.0" encoding="UTF-8"?><svg id="Capa_1" xmlns="http://www.w3.org/2000/svg" viewBox="0 0 1080 1080"><path d="M473.7,528.5c-4.76,.4-9.7,.82-15.42,1.3,1.09,7.26,1.84,14.28,3.24,21.16,2.92,14.43,8.04,27.9,17.15,39.81,7,9.15,7.2,19.37,2.36,29.69-4.52,9.64-11.88,16.89-20.19,23.23-2.15,1.64-3,3.31-2.8,5.92,.21,2.73,.14,5.49,.01,8.23-.16,3.59-2.14,5.64-5.19,5.62-3.09-.02-4.99-2.07-5.06-5.7-.08-4.24,.12-8.49-.07-12.72-.14-3.23,1.29-5.19,3.7-7.22,5.51-4.65,10.89-9.5,15.89-14.68,2.26-2.35,3.77-5.58,5.11-8.63,2.78-6.33,2.1-12.56-2.15-18.01-13.05-16.74-18.17-36.35-20.99-56.82-.39-2.84-.67-5.69-1.06-9.02-1.26,0-2.57,0-3.88,0-15.87,.04-31.75,.23-47.62,.04-8.46-.1-14.53-5.9-15.46-13.95-.83-7.23,4.2-14.34,11.64-16.17,1.9-.47,3.96-.42,5.94-.43,12.61-.03,25.23-.02,38.38-.02-1.91-5.83-3.66-11.25-5.46-16.64-4.58-13.7-9.19-27.39-13.78-41.09-1.64-4.91-1.36-5.99,2.99-9.15,21.87-15.87,46.25-26.54,72.06-34.09,26.17-7.66,52.94-11.41,80.22-11.46,6.04-.01,7.13,.96,8.05,6.83,3.77,24.14,7.59,48.27,11.41,72.39,.07,.47,.31,.91,.69,1.96,7.45-3.52,14.83-6.77,21.98-10.45,6.54-3.37,12.89-7.11,19.23-10.87,8.38-4.97,17.65-3.2,22.29,4.42,4.57,7.51,2.13,16.44-6,21.58-16.72,10.57-34.42,19.22-52.87,26.33-2.48,.95-3.65,2.29-3.73,4.76-.08,2.74-.25,5.49-.06,8.21,.25,3.7,1.94,6.48,5.43,8.32,12.15,6.38,24.35,12.7,36.28,19.49,16.4,9.34,31.24,20.67,42.99,35.64,7.77,9.89,13.54,20.9,18.17,32.54,.59,1.49,1,3.08,1.3,4.67,1.68,8.75-3.48,14.12-12.16,12.02-6.89-1.66-13.61-4.1-20.28-6.53-25.19-9.18-50.97-16.07-77.68-18.8-7.33-.75-15.01-.18-22.28,1.12-7.4,1.33-9.15,6.13-5.67,12.88,4.68,9.09,12.03,15.94,20.07,21.91,4.16,3.09,6.22,6.38,5.66,11.56-.37,3.45,0,6.98-.11,10.47-.12,3.37-2.06,5.31-5.03,5.31-2.97,0-5.48-2.07-4.91-5.29,1.68-9.47-2.69-15.37-9.84-20.86-6.53-5.01-11.69-11.59-15.29-19.17-2.81-5.93-3.68-11.89-.13-18.27-3.35-1.32-6.63-2.42-9.74-3.89-10.82-5.12-21.7-10.13-32.33-15.62-19.72-10.18-29.95-27.15-33.86-48.43-.16-.86-.31-1.71-.51-2.56-.05-.22-.28-.4-.63-.88Zm-45.57-88.09c5.53,16.5,10.86,32.43,16.27,48.57,20.78-12.89,42.42-22.05,65.22-28.61,22.77-6.55,46.04-10.05,69.95-11.18-2.74-17.3-5.43-34.23-8.15-51.38-51.86,1.3-99.77,14.02-143.3,42.6Zm259.93,174.08c-.37-1.42-.45-2.01-.67-2.54-5.29-12.74-11.84-24.72-21.25-34.98-12.24-13.33-27.04-23.2-42.82-31.75-9.54-5.17-19.2-10.14-28.78-15.23-6.49-3.45-9.92-8.9-10.41-16.2-.18-2.71-.31-5.43-.48-8.54-32.26,11-65.27,17.88-100.06,22.13,2.61,7.5,4.63,14.67,7.56,21.44,5.36,12.38,15.9,19.57,27.48,25.35,2.01,1.01,4.81,1.49,6.97,1.01,23.01-5.1,46.06-5.62,69.22-1.3,32.19,6,61.16,19.61,88.35,37.4,1.4,.92,2.81,1.84,4.9,3.21Zm-263.43-104.15c-9.12,0-18.25-.02-27.37,.01-3.57,.01-5.84,1.97-5.71,5.02,.14,3.29,2.09,4.92,5.31,5.07,4.24,.21,8.49,.5,12.74,.55,37.48,.5,74.65-2.66,111.45-9.74,35.33-6.79,69.54-17.15,101.68-33.55,7.99-4.08,15.69-8.75,23.44-13.28,2.76-1.61,3.53-4.16,1.94-7.06-1.38-2.51-4.25-3.08-7.19-1.59-.67,.34-1.3,.74-1.94,1.14-21.53,13.38-44.55,23.5-68.65,31.24-47.37,15.22-96.12,21.58-145.71,22.2Zm156.47-50.94c-47.74,2.01-92.22,13.87-132.59,39.47,1.1,.37,2.11,.47,3.09,.36,18.72-2.19,37.51-3.88,56.13-6.73,24.58-3.77,48.58-10.1,72.03-18.47,2.83-1.01,3.67-2.28,3.02-5.08-.69-3-1.09-6.07-1.69-9.53Zm-42.64,124.6c4.62,1.79,9.3,3.43,13.84,5.42,4.69,2.05,9.11,2.52,14.33,1.26,12.51-3.03,25.14-1.04,37.55,1.27,12.48,2.32,24.83,5.3,37.24,7.99-32.67-15.11-66.6-22.55-102.96-15.94Z"/><path d="M672.1,505.05c.02,2.98-2.51,5.52-5.46,5.5-2.98-.03-5.41-2.58-5.34-5.6,.07-2.86,2.43-5.24,5.26-5.31,2.96-.07,5.52,2.43,5.54,5.42Z"/><path d="M425.97,587.09c-3.13,0-5.4-2.3-5.35-5.44,.05-2.97,2.2-5.16,5.17-5.25,3.12-.09,5.5,2.16,5.55,5.25,.05,3.11-2.25,5.43-5.37,5.44Z"/><path d="M560.61,545.95c-8.53,.06-15.3-6.49-15.43-14.9-.13-8.6,6.6-15.57,15.12-15.69,8.39-.12,15.56,6.97,15.54,15.38-.01,8.33-6.86,15.16-15.24,15.22Zm-.19-10.16c2.7,.03,5.04-2.24,5.11-4.96,.07-2.69-2.14-5.08-4.84-5.21-2.86-.14-5.34,2.26-5.31,5.12,.03,2.72,2.33,5.01,5.04,5.04Z"/></svg>