<?xml version="1.0" encoding="UTF-8"?><svg id="Capa_1" xmlns="http://www.w3.org/2000/svg" viewBox="0 0 1080 1080"><path d="M880.73,835.21c-2.52,11.6-6.81,22.33-16.01,30.34-21.56,18.76-49.38,17.39-70.41-3.58-43.68-43.55-87.27-87.21-130.84-130.87-1.66-1.66-2.76-3.88-3.45-4.88-16.32,8.52-30.54,17.34-45.79,23.67-66.73,27.73-133.47,27.38-199.47-2.66-49.25-22.41-86.83-57.9-113-105.07-23.57-42.48-33.35-88.25-29.67-136.82,4.56-60.18,28.4-111.83,70.51-154.56,40.12-40.7,89.03-64.85,146.08-71.47,51.08-5.93,99.54,2.99,144.88,27.36,37.76,20.3,68.3,48.59,91.44,84.77,23.93,37.41,36.94,78.33,38.54,122.67,1.72,47.89-9.31,92.78-33.87,134.08-2.81,4.73-2.72,7.36,1.37,11.42,42.4,42.03,84.43,84.44,126.84,126.45,10.77,10.67,20.07,21.86,22.85,37.25v11.9Zm-196.68-311.44c.05-91.55-75.21-166.7-166.63-166.39-91.81,.31-165.94,74.3-166.35,166.03-.41,91.51,74.34,166.45,166.29,166.68,91.6,.23,166.65-74.65,166.69-166.32Z"/></svg>