<?xml version="1.0" encoding="UTF-8"?><svg id="Capa_1" xmlns="http://www.w3.org/2000/svg" viewBox="0 0 1080 1080"><path d="M876.53,704.29c8.5,9.25,14.69,19.37,16.77,31.67,4.02,23.8-3.88,42.92-22.29,58.15-2.51,2.08-4.83,4.86-6.17,7.8-13.94,30.68-37.52,48.74-71.06,50.98-34.18,2.29-60.29-12.77-77.93-42.24-.63-1.05-1.21-2.13-1.84-3.19-.12-.21-.32-.37-.78-.87-1.59,1.03-3.22,2.04-4.82,3.11-33.93,22.81-69.65,26.32-107.1,9.69-3.71-1.65-6.53-1.86-10.26,.1-21.3,11.23-43.5,12.72-66.49,5.7-2.44-.75-6.37-.18-8.28,1.39-40.63,33.51-90.9,35.7-134.28,5.6-.6-.42-1.26-.74-2.25-1.31-1.41,1.16-2.93,2.33-4.35,3.61-37.02,33.35-93.99,20.68-113.39-25.35-1.58-3.75-3.48-5.7-7.5-6.92-69.89-21.13-91.79-104.91-41.14-157.22,2.68-2.77,3.69-4.77,2.18-8.83-16.26-43.54,1.47-86.76,43.46-106.7,1.08-.52,2.14-1.09,3.53-1.8-6.15-15.74-7.95-31.55-3.15-47.76,6.82-23.04,21.54-38.84,43.91-47.3,4.11-1.55,6.39-3.62,7.9-7.63,1.9-5.03,4.27-9.95,7.03-14.57,3.73-6.24,10.06-7.91,15.83-4.77,5.72,3.11,7.54,9.3,4.79,15.9-3.11,7.46-6.3,14.9-9.12,22.47-2.2,5.92-6.89,7.78-12.41,9.06-22.68,5.27-38.47,24.91-36.68,47.7,.66,8.44,4.15,17.16,8.25,24.72,6.46,11.89,4.04,19.13-9.18,22.08-39.25,8.73-58.5,51.45-39.04,86.65,6.04,10.93,5.27,13.86-4.23,21.81-22.84,19.11-32.06,43.58-24.8,72.48,7.31,29.12,26.83,46.81,56.5,52.52,7.76,1.49,11.75,5.31,13.79,13.05,5.13,19.42,18.08,31.45,37.84,34.8,18.82,3.19,34.35-3.51,45.87-18.84,8.37-11.15,13.35-11.7,23.87-2.23,33.06,29.75,82.31,29.25,113.61-1.72,7.34-7.27,13.93-12.77,24.74-4.91v-32.04c-12.79-1.9-25.81-3.85-38.84-5.76-10.22-1.5-20.5-2.61-30.63-4.56-3.85-.74-8.09-2.58-10.87-5.25-14.88-14.34-29.4-29.06-43.95-43.74-5.9-5.95-6.61-11.73-2.48-17.06,4.73-6.11,12.27-6.37,18.59-.17,12.66,12.4,25.23,24.89,37.56,37.61,3.99,4.12,8.21,6.17,13.98,6.88,18.78,2.3,37.47,5.29,56.41,8.05,.27-1.24,.66-2.17,.64-3.09-.63-29.47,1.95-59.03-2.7-88.42-.77-4.84-2.23-7.54-6.94-8.84-32.02-8.83-57.97-26.82-79.01-52.32-4.05-4.91-9.11-8.98-13.46-13.67-5.27-5.69-5.32-12.25-.47-17.11,4.84-4.85,11.55-4.93,17.1,.47,12.34,12.02,24.61,24.12,36.52,36.55,5.59,5.83,11.77,10.12,19.42,12.71,7.19,2.43,14.14,5.56,22.39,8.87-1.35-11.22-2.2-21.62-3.98-31.85-1.32-7.54,.44-13.18,5.98-18.52,14.17-13.66,27.7-27.99,42.02-41.49,3.16-2.98,8.72-5.54,12.78-5.04,9.7,1.18,12.24,12.84,4.78,20.5-12.01,12.34-24.15,24.58-36.58,36.5-3.97,3.81-5.31,7.51-4.58,12.93,3.41,25.34,6.5,50.73,9.59,76.11,.53,4.38,.71,8.82,.77,13.23,.11,8.82,.03,17.64,.03,27.02,21.12-2.96,41.53-5.69,61.87-8.84,2.25-.35,4.52-2.74,6.12-4.72,13.18-16.24,25.99-32.78,39.45-48.78,2.68-3.18,7.58-6.11,11.55-6.25,9.4-.33,13.98,10.84,8.07,18.97-5.2,7.16-10.96,13.91-16.49,20.83-9.53,11.91-18.78,24.07-28.78,35.56-2.92,3.35-7.8,6.17-12.17,6.9-20.6,3.47-41.34,6.13-62.02,9.12-2.39,.35-4.74,.96-7.6,1.55v71.5c12.42,.23,23.37-2.86,32.82-9.79,7.2-5.27,13.24-5.15,20.9-.73,33.53,19.34,74.77,12.89,101.21-15.36,3.97-4.24,7.83-8.38,14.45-6.68,6.48,1.66,8.22,6.74,9.75,12.54,6.68,25.38,29.11,43.36,54.61,44.17,26.56,.84,49.82-14.95,58.32-40.13,1.94-5.76,5.12-9.57,10.18-12.79,20.17-12.8,22.44-39.57,4.82-55.63-5.58,2.72-11.14,5.76-16.95,8.16-6.88,2.85-12.89,.81-15.9-4.78-3.17-5.9-1.2-12.1,5.37-16.32,3.93-2.52,7.9-5.02,12.04-7.17,7.88-4.08,13.77-10.07,18.5-17.51,4.8-7.54,11.28-9.38,17.37-5.45,5.98,3.86,6.94,10.75,2.43,18.16-1.53,2.52-3.24,4.93-5.33,8.09Z"/><path d="M457.11,367.89c11.25-20.59,26.45-36.16,46.85-46.5,54.6-27.67,121.23-3.75,145.35,52.54,2.32,5.42,4.94,6.86,10.7,7.11,29.11,1.3,50.17,15.49,62.8,41.71,2.02,4.19,4.11,6.28,8.82,7.3,11.83,2.58,22.17,8.52,29.67,18.07,3.89,4.95,7.5,5.89,13.5,4.9,51.21-8.44,97.2,31.69,95.92,83.48-.35,14-4.07,27.16-11.12,39.33-1.21,2.08-2.38,4.19-3.63,6.41,2.59,2.02,5.05,3.67,7.19,5.66,4.78,4.46,5.34,11.12,1.57,15.97-3.61,4.65-9.75,5.86-15.23,2.85-6.02-3.3-11.97-6.72-17.95-10.08-7.88-4.43-9.13-12.82-2.44-19.7,8.63-8.88,14.62-19.01,16.98-31.25,8.43-43.72-32.64-80.76-75.2-67.77-1.64,.5-3.25,1.13-4.89,1.64-7.78,2.42-12.61,.6-16.37-6.88-6.69-13.3-17.24-20.39-32.13-21.03-7.05-.3-11.21-4.13-13.29-10.73-8.62-27.31-27.92-39.37-56.24-35.24-9.26,1.35-13.34-1.58-16.32-11.69-10.86-36.92-43.2-61.54-81.41-60.27-34.24,1.13-58.94,18.06-73.81,49.05-.96,1.99-1.66,4.1-2.62,6.09-3.71,7.75-10.32,10.24-17.55,5.74-14.14-8.79-29.3-13.54-45.97-13.93-7.12-.17-11.79-5.2-11.83-11.64-.05-6.72,4.95-11.72,12.41-11.81,16-.2,31.11,3.81,46.26,10.65Z"/><path d="M419.36,309.91c-17.01,1.12-32.79-2.19-46.26-13.25-13.64-11.2-20.96-25.74-21.85-43.35-.48-9.44,4.14-14.3,13.61-14.2,11.02,.11,22.23-.39,33.02,1.39,26.01,4.3,45.57,26.73,47.59,52.91,.89,11.56-3.53,16.41-15.05,16.5-3.68,.03-7.37,0-11.05,0Zm-.65-24.31c-3.8-15.7-20.99-25.11-40.67-22.26,3.75,15.67,21.02,25.12,40.67,22.26Z"/><path d="M726.57,239.05c4.42,0,8.85-.12,13.26,.03,8.54,.28,12.91,4.97,12.87,13.58-.11,29.56-25.49,55.67-55.74,57.1-8.58,.41-17.19,.28-25.78,.1-8.53-.18-12.89-4.95-12.86-13.58,.08-29.54,25.52-55.66,55.73-57.12,4.17-.2,8.35-.03,12.52-.03,0-.03,0-.06,0-.09Zm-.74,24.24c-19.94-2.65-37.12,6.8-40.64,22.37,19.88,2.68,37.08-6.79,40.64-22.37Z"/><path d="M235.57,332.02c10.28,1.91,21.09,2.4,30.72,6.03,22.47,8.44,34.49,25.89,37.33,49.53,1.43,11.91-3.32,16.91-15.35,16.8-9.8-.09-19.77,.46-29.37-1.08-26.51-4.25-45.29-24.17-49.12-50.72-2-13.84,2.54-19.01,16.66-19.03,2.95,0,5.89,0,8.84,0,.1-.51,.19-1.02,.29-1.53Zm41.81,48.21c-6.15-17.11-24.46-26.57-41.29-21.85,5.76,16.12,20.67,24.12,41.29,21.85Z"/><path d="M845.16,333.55c4.18,0,8.35-.1,12.53,.02,8.92,.26,13.29,4.99,13.13,14.06-.5,29.75-25.86,55.42-56.2,56.66-8.34,.34-16.7,.24-25.05,.09-8.93-.17-13.27-4.96-13.13-14.05,.45-29.4,25.54-55.07,55.45-56.64,4.41-.23,8.84-.03,13.26-.03,0-.03,0-.07,0-.1Zm-41.89,46.49c19.34,3.1,36.62-6.29,40.72-22.13-19.37-3.07-36.67,6.33-40.72,22.13Z"/><path d="M740.92,593.39c-.09,19.69-16.16,35.59-35.77,35.41-19.26-.18-35.04-16.12-35.03-35.39,0-19.59,16.07-35.48,35.78-35.4,19.19,.08,35.11,16.16,35.02,35.38Zm-23.65,.26c.15-6.31-4.99-11.77-11.33-12.01-6.29-.25-11.85,4.84-12.19,11.16-.35,6.61,5.06,12.35,11.69,12.38,6.33,.03,11.68-5.19,11.83-11.53Z"/><path d="M610.95,440.06c-.1,19.29-15.94,35.1-35.25,35.17-19.59,.07-35.56-15.94-35.54-35.63,.02-19.2,16.03-35.18,35.24-35.16,19.69,.02,35.65,16.01,35.55,35.62Zm-35.26-11.97c-6.33-.09-11.71,5.09-11.89,11.44-.18,6.32,4.93,11.8,11.26,12.08,6.61,.29,12.31-5.2,12.26-11.81-.04-6.35-5.28-11.62-11.64-11.71Z"/><path d="M421.94,510.89c-.08,19.58-16.24,35.43-35.93,35.25-19.18-.17-35.01-16.32-34.86-35.55,.16-19.66,16.3-35.5,35.92-35.25,19.27,.25,34.95,16.23,34.87,35.54Zm-35.43,11.61c6.34,.03,11.68-5.18,11.81-11.53,.13-6.35-5-11.77-11.34-11.99-6.64-.23-12.24,5.25-12.17,11.9,.07,6.35,5.35,11.6,11.71,11.62Z"/><path d="M374.69,675.97c.07,19.3-15.63,35.28-34.9,35.52-19.6,.24-35.74-15.63-35.89-35.29-.14-19.22,15.72-35.37,34.89-35.51,19.71-.14,35.83,15.7,35.9,35.28Zm-23.62,.31c.08-6.34-5.07-11.72-11.42-11.93-6.62-.22-12.22,5.32-12.1,11.96,.11,6.34,5.44,11.57,11.78,11.56,6.35,0,11.66-5.25,11.75-11.59Z"/><path d="M799.96,723.19c.08,19.6-15.92,35.59-35.6,35.58-19.21,0-35.19-16-35.19-35.22,0-19.69,15.99-35.68,35.59-35.58,19.31,.1,35.12,15.92,35.2,35.21Zm-35.51-11.58c-6.38,.09-11.59,5.34-11.63,11.71-.04,6.63,5.63,12.1,12.25,11.81,6.34-.28,11.44-5.75,11.26-12.08-.18-6.36-5.55-11.53-11.89-11.44Z"/><path d="M374.69,380.87c-.05,6.39-5.46,11.73-11.84,11.67-6.41-.05-11.71-5.44-11.66-11.85,.05-6.43,5.41-11.71,11.83-11.66,6.41,.05,11.72,5.43,11.67,11.84Z"/><path d="M882.57,652.43c-6.41-.07-11.69-5.48-11.62-11.88,.07-6.43,5.45-11.7,11.87-11.63,6.41,.07,11.7,5.47,11.63,11.87-.07,6.4-5.49,11.71-11.88,11.64Z"/></svg>