<?xml version="1.0" encoding="UTF-8"?><svg id="Capa_1" xmlns="http://www.w3.org/2000/svg" viewBox="0 0 1080 1080"><path d="M537.16,879c-1.74-.73-3.5-1.43-5.23-2.19-12.27-5.4-17.96-14.95-18.28-28.22-1.36-57.19-2.82-114.38-4.26-171.58-.05-2.1-.25-4.2-1.39-6.43-3.1,15.55-6.21,31.11-9.29,46.66-3.94,19.87-7.61,39.79-11.83,59.59-8.2,38.49-44.42,65.53-84.78,63.63-38.93-1.84-72.02-32.84-76.56-71.75-2.93-25.04,6.38-43.35,26.2-51.52,18.89-7.78,36.66,3.8,36.99,24.15,.08,4.91-.06,9.82,.04,14.73,.23,11.14,7.29,19.38,17.36,20.35,10.03,.97,18.59-5.9,20.73-16.82,9.07-46.23,18.16-92.46,27.08-138.72,2.93-15.19,11.07-25.49,26.01-30.29,1.44-.46,3.12-2.7,3.24-4.23,.41-5.06,.15-10.18,.15-16.17-2.83,0-5.3,.1-7.76-.02-17.13-.8-30.37-15.81-27-32.63,3.84-19.16,9.42-37.98,14.39-56.91,.98-3.72,3.09-7.43-.81-10.54-3.93-3.15-7.08-.52-10.29,1.76-19.16,13.59-43.23,12.88-60.41-1.72-17.71-15.05-22.41-38.81-11.65-60.42,30.42-61.07,73.32-111.78,127.56-153.01,4.42-3.36,8.98-6.51,13.42-9.85,15.31-11.53,31.85-20.43,50.96-23.85h20.5c32.43,5.74,55.72,27.34,80.39,46.48,5.62,4.36,6.39,9.96,2.79,14.46-3.63,4.55-9.43,4.47-15.3,.07-12.8-9.59-25.39-19.51-38.59-28.52-26.5-18.08-52.62-17.66-79.31,.08-62.45,41.53-111.4,95.09-144.99,162.36-9.93,19.89,.55,40.97,21.87,44.16,9.01,1.35,16.6-2.09,23.78-7.32,11.44-8.34,25.72-6.83,34.6,3.36,7.22,8.3,7.13,17.52,4.18,27.64-5.01,17.15-9.65,34.43-13.74,51.82-2.13,9.07,1.91,13.38,11.1,13.38,68.54,.02,137.07,0,205.61-.05,9.6,0,13.64-4.3,11.38-13.74-4.36-18.2-9.35-36.27-14.53-54.26-5.37-18.65,8.63-35.84,27.75-33.06,4.42,.64,8.91,2.97,12.67,5.53,13.4,9.14,27.29,9.32,38.34-.05,11.17-9.48,13.45-23.66,6.06-38.36-18.05-35.9-40.96-68.4-68.46-97.68-1.46-1.56-3.04-3.03-4.32-4.72-3.29-4.37-3.11-8.76,.63-12.74,3.6-3.83,8.95-3.87,13.23-.2,1.78,1.52,3.32,3.32,4.92,5.03,28.97,30.86,53.03,65.17,71.86,103.08,15.68,31.57-2.44,66.25-37.21,71.38-11.9,1.75-22.84-1.34-32.86-7.83-1.07-.7-2-1.92-3.15-2.14-3.04-.58-6.84-1.92-9.02-.67-1.6,.92-2.08,5.72-1.39,8.35,3.92,14.81,8.45,29.47,12.53,44.24,1.24,4.5,1.83,9.2,2.48,13.84,2.44,17.49-9.71,32.21-27.32,33.17-2.29,.13-4.6,.02-7.24,.02-.14,2.2-.18,3.86-.36,5.5-.93,8.66-.32,15,10.51,18.44,10.88,3.45,16.32,13.78,18.54,25.13,6.96,35.57,13.93,71.14,20.88,106.72,2.21,11.3,4.33,22.62,6.6,33.9,2.14,10.65,10.36,17.34,20.25,16.65,10.09-.71,17.48-8.9,17.79-19.93,.17-5.76-.11-11.54,.13-17.29,.7-17.13,17.11-28.45,33.52-23.25,17.99,5.71,30.26,22.75,30.43,42.27,.38,41.82-32.16,77.58-74.67,82.04-41.07,4.31-79.97-24.89-87.93-65.81-6.76-34.74-13.74-69.44-20.64-104.15-.28-1.41-.75-2.77-2.11-4.15-.14,2.11-.35,4.21-.4,6.32-1.45,57.2-3.2,114.39-4.14,171.6-.29,17.56-6.87,29.42-23.83,34.91h-11.53c-16.97-5.48-23.56-17.33-23.84-34.9-.9-56.36-2.59-112.71-3.99-169.06-.05-1.92,.41-4.16-.43-5.67-.97-1.74-3-3.68-4.77-3.91-1.22-.16-3.3,2.22-4.07,3.89-.75,1.61-.37,3.77-.42,5.69-1.45,57.85-2.84,115.69-4.39,173.54-.42,15.71-7.09,24.37-21.84,29.43-.58,.2-1.07,.66-1.6,1h-11.53Zm-34.31-289.56c5.85,0,10.97-.08,16.08,.02,6.95,.13,11.11,3.86,11.03,9.72-.08,5.81-4.26,9.39-11.29,9.46-9.39,.09-18.79-.05-28.19,.05-9.77,.11-15.4,4.88-17.32,14.55-2.2,11.09-4.32,22.19-6.5,33.28-7.21,36.61-14.18,73.28-21.75,109.82-3.73,18.02-20.03,29.95-38.42,29.35-17.86-.57-33.24-13.68-35.99-31.51-1.13-7.32-.67-14.89-.98-22.34-.29-6.98-4.21-9.53-10.67-6.72-9.86,4.29-14.61,12.19-14.87,22.69-.79,31.78,23.72,59.2,56.34,63.24,30.98,3.84,61.38-17.91,67.77-48.94,7.44-36.13,14.48-72.34,21.68-108.52,2.29-11.54,10.33-18.43,20.72-17.68,10.57,.76,17.52,8.64,17.87,20.41,.43,14.51,.78,29.03,1.14,43.54,1.14,45.9,2.23,91.79,3.42,137.69,.2,7.88,4,12.24,10.08,12.2,6.08-.04,9.7-4.37,9.98-12.32,.37-10.46,.59-20.92,.85-31.38,1.21-48.67,2.37-97.34,3.63-146.01,.29-11.31,6.35-19.65,16.19-22.93,15.94-5.31,31.19,5.71,31.64,23.2,1.41,54.64,2.65,109.29,3.99,163.94,.14,5.76,.17,11.56,.89,17.26,.69,5.41,4.52,8.22,9.84,8.15,5.02-.07,8.42-2.86,9.46-7.92,.42-2.07,.4-4.25,.46-6.38,1.48-59.13,2.95-118.26,4.42-177.39,.33-13.37,6.85-21.29,18.16-22.09,11.61-.83,19.33,5.79,21.88,18.59,7.12,35.76,14.13,71.54,21.47,107.26,6.37,30.99,35.59,52.41,66.82,49.41,32.26-3.11,57.47-30.42,57.35-62.36-.04-10.44-4.55-18.53-14.11-23.29-6.95-3.46-11.23-.87-11.4,6.8-.12,5.12,.18,10.26-.09,15.37-.89,16.67-8.72,28.91-24.28,35.29-23.08,9.45-47.04-4.9-52.11-30.78-9.05-46.25-18.08-92.5-27.14-138.75-1.96-9.98-7.59-14.66-17.81-14.74-10.46-.08-20.93-.02-31.39-.02-24.77,0-49.54,.04-74.31-.03-8.14-.02-12.84-5.01-11.16-11.8,1.51-6.12,6.15-7.45,11.8-7.43,28.83,.08,57.66,.04,86.48,.04h6.61v-18.82h-158.25v18.82Z"/><path d="M534.57,514.96c0,2.13,.12,4.26-.02,6.37-.41,5.92-4.31,9.72-9.73,9.64-5.39-.09-9.14-3.94-9.39-9.96-.18-4.24-.16-8.5-.01-12.75,.22-6.39,4.07-10.36,9.73-10.27,5.6,.09,9.2,4.1,9.44,10.59,.08,2.12,.01,4.25,.01,6.38h-.02Z"/><path d="M629.49,514.11c0-2.55-.31-5.15,.06-7.64,.8-5.32,4.07-8.44,9.51-8.41,5.44,.03,8.88,3.17,9.38,8.52,.47,5.06,.36,10.2,.07,15.29-.32,5.52-4.38,9.15-9.55,9.12-5.17-.03-9.03-3.68-9.47-9.22-.2-2.53-.03-5.1-.03-7.65h.05Z"/></svg>