<?xml version="1.0" encoding="UTF-8"?><svg id="Capa_1" xmlns="http://www.w3.org/2000/svg" viewBox="0 0 1.25 1.01"><defs><style>.cls-1{fill:#fff;}</style></defs><path class="cls-1" d="M.44,.46s0-.01,0-.02c0-.01,0-.03,.01-.04s.01-.03,.02-.04,.02-.02,.03-.03,.03-.02,.04-.02,.03,0,.05-.01c0,0,0,0,0,0,.04,0,.08,0,.12,.03,0,0,0,0,0,.01,0,0-.01,0-.01,0-.04-.03-.1-.04-.15-.02s-.09,.07-.1,.12,.01,.11,.05,.15c.01-.05,.06-.09,.11-.09s.1,.04,.11,.09c.03-.02,.05-.06,.05-.09s0-.07-.02-.1c0,0,0,0,0,0s0,0,0,0c0,0,0,0,0,0,.03,.06,.03,.13,0,.18s-.1,.08-.17,.08-.12-.06-.14-.12c0-.01,0-.03,0-.04,0,0,0-.02,0-.03h0Zm.17,.17s.06,0,.09-.03c0,0,0,0,0-.01-.01-.06-.07-.09-.13-.07-.03,.01-.05,.04-.06,.07,0,0,0,0,0,0,.03,.02,.06,.03,.09,.03H.61Z"/><path class="cls-1" d="M.61,.49s-.06-.03-.06-.06,.03-.06,.06-.06,.06,.03,.06,.06-.03,.06-.06,.06h0Zm.05-.06s-.02-.05-.05-.05c-.03,0-.05,.02-.05,.05s.02,.05,.05,.05c.03,0,.05-.02,.05-.05H.66Z"/><path class="cls-1" d="M.74,.35s0,0,0,0c0,0,0,0,0,0,0,0,0,0,0,0s0,0,0,0H.74Z"/></svg>