<?xml version="1.0" encoding="UTF-8"?><svg id="Capa_1" xmlns="http://www.w3.org/2000/svg" viewBox="0 0 1080 1080"><path d="M680,606c-2.21,2.78-5.09,3.28-8.54,3.29-13.61,.01-26.27-3.72-38.77-8.69-21.82-8.68-43.9-8.93-65.56,.12-21.1,8.82-42.62,10.99-64.77,6-7.11-1.6-13.9-4.67-20.82-7.12-20.26-7.18-40.75-7.76-60.7,.19-17.01,6.78-34.17,10.58-52.48,9.29-11.22-.79-21.81-3.76-32.08-8.13-9.99-4.25-20.39-6.42-31.25-6.55-5.76-.07-8.38-2.1-8.25-5.87,.13-3.83,2.89-5.48,8.62-5.36,10.42,.21,20.6,1.75,30.73,5.68,9.57-18.47,21.66-35.16,35.46-51.12-5.95-.85-11.47-1.1-16.67-2.51-7.31-1.97-14.46-4.61-21.56-7.29-8.73-3.3-17.66-5.21-26.99-5.3-1.12-.01-2.25,0-3.37-.1-4.02-.33-6.42-2.68-6.22-6.02,.2-3.23,2.6-5.12,6.52-5.2,13.43-.26,26.27,2.49,38.52,7.88,11.87,5.22,24.28,7.41,37.15,6.91,1.87-.07,4.05-1.1,5.46-2.39,9.14-8.31,17.97-16.97,27.16-25.21,9.33-8.37,20-10.04,31.64-5.25,1.38,.57,2.8,1.09,4.25,1.42,7.05,1.63,11.57-2.75,9.95-9.81-1.03-4.48-2.8-8.81-3.61-13.33-1.26-7.07,.55-13.68,4.56-19.57,3.58-5.26,7.39-10.37,11.2-15.47,2.45-3.28,5.69-3.93,8.38-1.91,2.7,2.04,2.97,5.29,.58,8.61-3.13,4.36-6.26,8.72-9.51,13-4.63,6.1-5.42,12.53-2.68,19.74,1.4,3.67,2.36,7.7,2.53,11.62,.52,11.97-9.97,20.58-22.15,18.37-3.16-.57-6.21-1.78-9.26-2.85-6.29-2.22-12.2-1.42-17.23,2.83-26.76,22.61-50.57,47.86-68.63,78.15-1.66,2.78-3.15,5.65-5.27,9.48,6.99,1.44,13.43,3.36,19.98,4,15.19,1.49,30.09,.13,44.35-6,27.5-11.84,54.98-11.25,82.38,.44,9.52,4.06,19.45,6.11,30.04,5.89,1.2-3.96-.11-7.51-1.05-11.26-1.2-4.75-2.49-9.79-2.1-14.57,.83-9.98,10.02-16.68,19.91-15.2,3.54,.53,7.07,1.53,10.44,2.77,6.49,2.4,12.59,1.99,18.05-2.26,12.99-10.12,25.86-20.38,38.71-30.67,6.15-4.93,6.77-12.3,7.73-19.31,2.36-17.29,.69-34.41-3.18-51.33-.41-1.81-1.54-3.69-2.85-5.03-11.3-11.48-22.67-22.89-34.14-34.19-1.41-1.39-3.45-2.49-5.38-2.94-18.88-4.35-37.88-5.97-57.11-2.18-6.01,1.18-11.08,3.6-14.78,8.61-1.18,1.6-2.55,3.08-3.91,4.54-2.62,2.81-5.78,3.17-8.28,1.02-2.51-2.15-2.39-5.12-.27-8.36,8.58-13.04,21.43-17.33,36.12-18.6,16.83-1.46,33.36-.03,49.75,3.72,2.2,.5,3.74,.11,5.24-1.61,1.88-2.16,4-4.11,6.06-6.12,2.18-2.12,4.77-3.83,2.66-7.73-.56-1.04,.66-3.67,1.79-4.89,4.59-4.94,9.33-9.74,14.25-14.35,7.14-6.67,17.68-6.69,24.71,.16,10.73,10.45,21.31,21.07,31.76,31.81,6.83,7.03,6.89,17.56,.26,24.77-4.56,4.96-9.46,9.61-14.23,14.38-2.64,2.64-5.51,2.5-8.92,.17-3.61,3.78-7.33,7.47-10.76,11.41-.76,.87-.9,2.72-.63,3.96,3.24,15.11,4.81,30.35,3.85,45.79-.28,4.47-.93,8.92-1.43,13.51,15.35,5.68,30.3,12.9,47.28,12.3,3.33-.12,5.82,1,7.34,4.05v3.75c-2.19,1.16-4.37,3.3-6.57,3.33-11.41,.15-22.58-1.51-33.28-5.79-5.86-2.34-11.81-4.48-17.3-6.55-2.71,3.42-4.59,6.85-7.4,9.15-13.81,11.27-27.7,22.46-41.91,33.21-7.03,5.32-15.37,6.16-23.9,3.85-2.76-.75-5.38-1.99-8.15-2.67-8.05-1.96-12.46,2.77-10.27,10.87,1.61,5.94,3.21,11.89,4.9,18.16,8.21-.47,16.67-3.29,24.98-6.7,25.54-10.46,51.18-10.69,76.76-.37,11.34,4.58,22.87,7.55,35.17,7.68,2.34,.02,4.65,2.17,6.98,3.33v4.5Zm-40.68-178.85c3.17-3.19,6.39-6.31,9.46-9.57,2.99-3.18,3.19-7.02,.23-10.04-10.3-10.49-20.7-20.89-31.17-31.21-2.71-2.67-6.18-2.95-8.79-.56-3.73,3.42-7.04,7.29-10.29,10.71,13.38,13.42,26.83,26.9,40.56,40.67Zm-13.34,4.64c-10.86-10.95-21.52-21.7-31.68-31.93-3.32,3.2-6.87,6.62-10.61,10.22,5.29,5.24,10.71,10.57,16.09,15.94,5.35,5.34,10.66,10.72,15.96,16.05,3.78-3.79,7.19-7.22,10.24-10.28Z"/><path d="M680,677.25c-1.66,3.17-4.31,3.91-7.76,3.92-13.58,.05-26.25-3.52-38.82-8.35-7.14-2.74-14.78-4.22-22.25-6.01-3.68-.88-5.78-2.97-5.44-6.33,.33-3.27,2.92-5.24,6.7-4.91,10.43,.92,20.16,4.39,29.72,8.37,9.58,3.98,19.51,5.99,29.85,5.86,3.36-.04,6.06,.88,8.01,3.7v3.75Z"/><path d="M558.36,663.16c7.51-2.22,14.74-4.45,22.02-6.45,2.5-.69,5.15-.98,7.75-1.15,3.42-.22,5.95,2.01,6.19,5.14,.23,2.94-1.78,5.64-5.01,5.96-9.3,.92-17.91,4.08-26.52,7.45-25.84,10.11-51.55,9.52-77.17-1.04-23-9.48-46.1-9.42-69.1,.08-26.43,10.92-52.87,11.03-79.25,.05-10.87-4.52-22.06-6.89-33.79-7.04-4.33-.05-6.85-2.37-6.7-5.81,.15-3.46,2.76-5.42,7.16-5.41,13.66,.03,26.58,3.24,39.19,8.41,22.38,9.18,45,9.2,67.33-.02,14.32-5.91,28.99-8.96,44.43-8.29,2.2,.1,3.01-.67,3.5-2.76,5.65-24.5,26.57-40.95,50.83-40.1,24.48,.87,44.29,18.45,48.46,43.08,.44,2.57,.46,5.21,.68,7.9Zm-89.11-7.49c7.43,2.52,15.01,4.57,22.16,7.64,13.9,5.96,28.34,7.34,43.17,6.29,13.12-.93,14.35-2.73,11.4-15.68-4.11-18.03-21.02-31.14-39.32-30.48-18.94,.69-34.82,14.44-37.41,32.22Z"/><path d="M585.43,639.92c-8.74-.02-15.58-6.91-15.56-15.69,.02-8.71,7.01-15.69,15.66-15.65,8.59,.04,15.71,7.2,15.68,15.75-.04,8.61-7.12,15.61-15.77,15.59Zm-1.37-11.22c4.16-.13,5.79-1.74,5.79-4.47,0-2.56-1.61-4.26-4.25-4.29-2.77-.03-4.79,1.59-4.34,4.37,.29,1.78,2.07,3.31,2.79,4.39Z"/><path d="M353.56,643.57c-8.65-.03-15.65-7.08-15.61-15.73,.04-8.58,7.23-15.73,15.76-15.67,8.58,.06,15.65,7.22,15.61,15.82-.03,8.63-7.09,15.6-15.77,15.58Zm.3-11.23c2.66-.37,4.28-1.91,4.16-4.66-.12-2.57-1.83-4.15-4.35-4.14-2.7,.01-4.46,1.69-4.41,4.45,.05,2.74,1.77,4.2,4.6,4.35Z"/><path d="M468.31,701.04c.07,8.71-6.81,15.81-15.42,15.92-8.57,.1-15.73-6.92-15.87-15.55-.13-8.58,6.9-15.8,15.5-15.89,8.66-.1,15.71,6.84,15.78,15.53Zm-11.12,1.49c-.31-4.05-1.8-5.73-4.6-5.69-2.62,.04-4.21,1.73-4.22,4.32-.01,2.79,1.77,4.77,4.44,4.35,1.76-.27,3.26-2.18,4.38-2.98Z"/></svg>